<?xml version="1.0" encoding="UTF-8"?>
<svg width="160px" height="50px" viewBox="0 0 160 50" version="1.1" xmlns="http://www.w3.org/2000/svg">
    <title>сlients/left/black/vart</title>
    <g id="сlients/left/black/vart" stroke="none" stroke-width="1" fill="none" fill-rule="evenodd">
        <rect id="bounding_box" x="0" y="0" width="160" height="50"></rect>
        <g id="vart" transform="translate(0.000000, 13.000000)" fill="#000000">
            <path d="M131.736981,0 C132.917794,0 134,0.8889098 134,2.0740817 C134,3.25927124 133.016048,4.24693507 131.835412,4.24693507 L122.586827,4.24693507 L122.586827,24 L120.422239,24 C83.8214463,24 81.8537184,14.1235028 81.8537184,12.1481928 L81.8537184,9.97535707 L96.5136863,9.97535707 C98.0878685,9.97535707 99.2685052,8.69139585 99.2685052,7.20990893 C99.2685052,5.62965032 97.9894382,4.44446078 96.5136863,4.44446078 L76.0486137,4.44446078 L59.912894,21.333447 C59.1078745,22.1415469 57.9776107,22.7046707 56.8177792,22.8003784 L56.4692385,22.8148457 C55.0917411,22.9136527 53.9111044,22.3209874 52.9271526,21.432254 L36.7914328,5.62965032 C36.5945722,5.43212461 36.2010266,5.43212461 36.0041659,5.62965032 L20.557107,21.2346401 C19.5731552,22.3209874 18.0974033,22.8148457 16.7199059,22.7160388 C15.3424789,22.6174083 14.0634119,21.9259359 13.177908,20.7407817 L0.485685556,3.6543403 C-0.301430184,2.66667647 -0.104652128,1.28396122 0.879248699,0.592612415 C1.86313019,-0.197525709 3.2405924,0 3.92930593,0.987663833 L16.6214756,18.0740523 C16.7002199,18.2321434 16.8419596,18.2637617 16.945812,18.2700853 L17.0150212,18.2716662 C17.2118818,18.2716662 17.3103122,18.2716662 17.5069971,18.0740523 L32.9542317,2.37037908 C34.8235292,0.395069062 37.8736392,0.395069062 39.841367,2.27162505 L55.9772626,18.0740523 C56.0756929,18.2716662 56.2723778,18.2716662 56.3708081,18.2716662 C56.4692385,18.2716662 56.6659234,18.1728593 56.7643537,18.0740523 L74.2777466,0.197543353 L96.6121166,0.197543353 C100.449318,0.197543353 103.597682,3.35804292 103.597682,7.20990893 C103.597682,11.0617749 100.449318,14.2222745 96.6121166,14.2222745 L88.4457385,14.2222745 L88.7745889,14.434896 C92.2116186,16.5833878 100.166824,19.3643882 118.25765,19.5556274 L118.25765,4.34568911 L108.51709,4.34568911 C107.336453,4.34568911 106.352677,3.35804292 106.352677,2.17285337 C106.352677,0.987663833 107.336453,0 108.51709,0 L131.736981,0 Z M36.4961415,13.9259595 C38.0175932,13.9259595 39.2509605,15.1640813 39.2509605,16.69139 C39.2509605,18.2187339 38.0175932,19.4568205 36.4961415,19.4568205 C34.9746898,19.4568205 33.7411468,18.2187339 33.7411468,16.69139 C33.7411468,15.1640813 34.9746898,13.9259595 36.4961415,13.9259595 Z" id="Shape"></path>
        </g>
    </g>
</svg>