<?xml version="1.0" encoding="UTF-8"?>
<svg width="170px" height="85px" viewBox="0 0 170 85" version="1.1" xmlns="http://www.w3.org/2000/svg" xmlns:xlink="http://www.w3.org/1999/xlink">
    <title>aareon</title>
    <g id="Page-1" stroke="none" stroke-width="1" fill="none" fill-rule="evenodd">
        <g id="Artboard" transform="translate(-240.000000, -50.000000)">
            <g id="aareon" transform="translate(240.000000, 50.000000)">
                <rect id="bounding_box" x="0" y="0" width="170" height="85"></rect>
                <g id="icon" transform="translate(14.000000, 26.000000)" fill="#FFFFFF" fill-rule="nonzero">
                    <path d="M57.4458333,17.6375 L57.4458333,11.2625 L51.9208333,11.2625 C49.725,11.2625 48.875,12.75 48.8041667,14.8041667 L48.8041667,17.6375 C48.8041667,17.6375 57.4458333,17.6375 57.4458333,17.6375 Z M46.1833333,14.7333333 C46.1833333,11.475 48.3791667,9.35 51.9916667,9.35 L60.1375,9.35 L60.1375,24.0833333 L57.5166667,24.0833333 L57.5166667,19.3375 L48.8041667,19.3375 L48.8041667,24.0833333 L46.1125,24.0833333 C46.1833333,24.0833333 46.1833333,14.7333333 46.1833333,14.7333333 Z M135.858333,13.0333333 C139.4,13.0333333 141.595833,15.2291667 141.666667,18.4166667 L141.666667,24.0833333 L139.045833,24.0833333 L139.045833,18.3458333 C138.975,16.2916667 138.125,14.8041667 135.929167,14.8041667 L131.041667,14.8041667 L131.041667,24.0125 L128.279167,24.0125 L128.279167,14.875 L126.154167,14.875 L126.154167,13.0333333 C126.225,13.0333333 135.858333,13.0333333 135.858333,13.0333333 Z M69.4166667,24.0833333 C66.4416667,24.0833333 63.8916667,22.3125 63.8916667,18.4166667 C63.8916667,15.1583333 66.0875,13.0333333 69.7,13.0333333 L76.5,13.0333333 L76.5,22.3125 L78.5541667,22.3125 L78.5541667,24.0833333 L69.4166667,24.0833333 Z M73.8083333,22.2416667 L73.8083333,14.875 L69.6291667,14.875 C67.3625,14.875 66.5125,16.4333333 66.5125,18.6291667 C66.5125,20.8958333 67.5041667,22.3125 69.8416667,22.3125 L73.8083333,22.2416667 L73.8083333,22.2416667 Z M112.554167,18.1333333 L112.554167,18.6291667 C112.554167,21.1791667 113.616667,22.3125 116.520833,22.3125 L117.654167,22.3125 C120.558333,22.3125 121.620833,21.1791667 121.620833,18.6291667 L121.620833,18.1333333 C121.620833,15.3 120.204167,14.5208333 117.654167,14.5208333 L116.520833,14.5208333 C113.970833,14.5208333 112.554167,15.3708333 112.554167,18.1333333 M117.016667,24.0833333 L116.095833,24.0833333 C112.270833,24.0833333 109.791667,22.525 109.791667,18.4875 L109.791667,18.275 C109.791667,14.3083333 112.270833,12.6791667 116.095833,12.6791667 L117.016667,12.6791667 L117.9375,12.6791667 C121.7625,12.6791667 124.170833,14.3083333 124.241667,18.275 L124.241667,18.4875 C124.241667,22.525 121.7625,24.0833333 117.9375,24.0833333 L117.016667,24.0833333 Z M99.8041667,14.875 C96.6166667,14.875 96.3333333,16.7875 96.1916667,17.6375 L100.229167,17.6375 L104.266667,17.6375 C104.125,16.8583333 103.841667,14.875 100.654167,14.875 L100.158333,14.875 L99.8041667,14.875 Z M96.2625,19.3375 C96.475,21.1791667 97.4666667,22.3125 99.5208333,22.3125 L104.408333,22.3125 L104.408333,24.0833333 L99.0958333,24.0833333 C96.1208333,24.0833333 93.5708333,22.3125 93.5708333,18.4166667 C93.5708333,15.2291667 95.625,13.0333333 99.7333333,13.0333333 L100.866667,13.0333333 C104.7625,13.0333333 106.25,14.8041667 106.745833,17.5666667 C106.8875,18.275 106.816667,19.4083333 106.816667,19.4083333 C106.816667,19.4083333 96.2625,19.3375 96.2625,19.3375 Z M92.0125,13.1041667 L87.6208333,13.1041667 C84.0791667,13.1041667 81.8833333,15.2291667 81.8125,18.4166667 L81.8125,24.0833333 L84.4333333,24.0833333 L84.4333333,18.4166667 C84.5041667,16.3625 85.3541667,14.9458333 87.55,14.9458333 L91.9416667,14.9458333 L91.9416667,13.1041667 L92.0125,13.1041667 Z M33.0083333,14.6625 C33.15,15.4416667 33.2208333,16.2916667 33.2208333,17.1416667 C33.2208333,24.1541667 28.8291667,30.175 22.6666667,32.5833333 L33.0083333,14.6625 Z M5.17083333,12.6083333 C4.675,12.6791667 4.39166667,12.8208333 3.89583333,12.9625 C2.47916667,13.5291667 1.7,14.9458333 1.7,14.9458333 L0.920833333,16.2916667 L0,17.9208333 C0,17.7083333 0,17.425 0,17.2125 C0,8.00416667 7.4375,0.566666667 16.575,0.566666667 C24.0833333,0.566666667 30.4583333,5.59583333 32.5125,12.4666667 C32.5125,12.4666667 28.9,12.3958333 27.5541667,12.6083333 C27.0583333,12.6791667 26.775,12.8208333 26.2791667,12.9625 C24.8625,13.5291667 24.0833333,14.9458333 24.0833333,14.9458333 L23.3041667,16.2916667 L13.3875,33.4333333 C12.6791667,33.2916667 11.9708333,33.0791667 11.2625,32.8666667 L23.9416667,10.8375 C23.5875,11.1208333 23.0916667,11.3333333 22.6666667,11.3333333 C21.8875,11.3333333 21.675,10.6958333 22.1,9.9875 C22.525,9.20833333 23.5166667,8.64166667 24.2958333,8.64166667 C24.7208333,8.64166667 25.0041667,8.85416667 25.075,9.1375 L26.4916667,6.65833333 C26.4916667,6.65833333 21.1791667,6.51666667 19.7625,6.8 C19.2666667,6.87083333 18.9833333,7.0125 18.4875,7.15416667 C17.0708333,7.72083333 16.2916667,9.1375 16.2916667,9.1375 L15.5125,10.4833333 L4.8875,28.9 C4.39166667,28.4041667 3.89583333,27.8375 3.4,27.2 L11.9,12.4666667 C11.9,12.4666667 6.44583333,12.3958333 5.17083333,12.6083333 Z" id="Shape"></path>
                </g>
            </g>
        </g>
    </g>
</svg>