<?xml version="1.0" encoding="UTF-8"?>
<svg width="70px" height="70px" viewBox="0 0 70 70" version="1.1" xmlns="http://www.w3.org/2000/svg" xmlns:xlink="http://www.w3.org/1999/xlink">
    <style>svg {color:#e30613;}</style>
    <title>decor-icons-red-banking</title>
    <g id="Symbols" stroke="none" stroke-width="1" fill="none" fill-rule="evenodd">
        <g id="decor-icons-red-banking">
            <rect id="bounding_box" x="0" y="0" width="70" height="70"></rect>
            <g id="icon" transform="translate(9.000000, 8.000000)" fill="currentColor">
                <path d="M28.6124,47.4176 L28.6124,49.5064 C28.6124,49.9803 28.9323,50.3968 29.3908,50.5186 C35.7601,52.2175 42.4934,52.2168 48.8613,50.5186 C49.3205,50.3968 49.6404,49.9803 49.6404,49.5064 L49.6404,47.4176 L51.0404,47.4176 L51.0404,49.5064 C51.0404,50.6138 50.2921,51.5861 49.2225,51.8717 C45.9199,52.7523 42.5228,53.1926 39.1264,53.1926 C35.7286,53.1926 32.3329,52.7523 29.0296,51.8717 C27.96,51.5861 27.2124,50.6131 27.2124,49.5064 L27.2124,47.4176 L28.6124,47.4176 Z M28.6124,41.00343 L28.6124,43.09153 C28.6124,43.56613 28.9323,43.98263 29.3908,44.10443 C35.7608,45.80333 42.4941,45.80263 48.8613,44.10443 C49.3205,43.98263 49.6404,43.56613 49.6404,43.09153 L49.6404,41.00343 L51.0404,41.00343 L51.0404,43.09153 C51.0404,44.19893 50.2921,45.17193 49.2225,45.45753 C45.9199,46.33813 42.5228,46.77843 39.1264,46.77843 C35.7286,46.77843 32.3329,46.33813 29.0296,45.45753 C27.96,45.17193 27.2124,44.19893 27.2124,43.09153 L27.2124,41.00343 L28.6124,41.00343 Z M26.53732,0.39972 C27.31502,0.39972 27.94782,1.03252 27.94782,1.81022 L27.94782,26.92622 L26.54782,26.92622 L26.54782,1.81022 L2.21022,1.79972 L2.19972,42.78192 L24.90422,42.79172 L24.90422,44.19172 L2.21022,44.19172 C1.43252,44.19172 0.79972,43.55962 0.79972,42.78192 L0.79972,1.81022 C0.79972,1.03252 1.43252,0.39972 2.21022,0.39972 L26.53732,0.39972 Z M28.6124,34.58891 L28.6124,36.67701 C28.6124,37.15161 28.9323,37.56811 29.3908,37.68991 C35.7608,39.38881 42.4941,39.38811 48.8613,37.68991 C49.3205,37.56811 49.6404,37.15161 49.6404,36.67701 L49.6404,34.58891 L51.0404,34.58891 L51.0404,36.67701 C51.0404,37.78441 50.2921,38.75741 49.2225,39.04301 C45.9199,39.92361 42.5228,40.36391 39.1264,40.36391 C35.7286,40.36391 32.3329,39.92361 29.0296,39.04301 C27.96,38.75741 27.2124,37.78441 27.2124,36.67701 L27.2124,34.58891 L28.6124,34.58891 Z M14.64754,35.80845 C15.90194,35.80845 16.92254,36.82905 16.92254,38.08345 C16.92254,39.33785 15.90194,40.35845 14.64754,40.35845 C13.39314,40.35845 12.37254,39.33785 12.37254,38.08345 C12.37254,36.82905 13.39314,35.80845 14.64754,35.80845 Z M14.64754,37.20845 C14.16524,37.20845 13.77254,37.60115 13.77254,38.08345 C13.77254,38.56575 14.16524,38.95845 14.64754,38.95845 C15.12984,38.95845 15.52254,38.56575 15.52254,38.08345 C15.52254,37.60115 15.12984,37.20845 14.64754,37.20845 Z M39.1264,26.91712 C41.0255,26.91712 42.9078,27.05222 44.5703,27.30702 L44.3589,28.69092 C42.7643,28.44592 40.9555,28.31712 39.1264,28.31712 C38.7262471,28.31712 38.3367903,28.3227781 37.958156,28.3335997 L37.2153547,28.3619809 L37.2153547,28.3619809 L36.5016376,28.4032518 C36.2686042,28.4190593 36.0404556,28.4368686 35.8172291,28.456533 L35.1623538,28.520945 L35.1623538,28.520945 L34.5372359,28.5956085 C34.2321538,28.6353565 33.9383148,28.678619 33.6558454,28.7249013 L33.1061031,28.8213457 L33.1061031,28.8213457 L32.5869038,28.9249634 L32.5869038,28.9249634 L32.0984718,29.0348751 C32.0196429,29.0536693 31.9421053,29.0726892 31.8658638,29.0919163 L31.4240037,29.2096199 L31.4240037,29.2096199 L31.0134721,29.3314187 C30.9476733,29.3520109 30.8831893,29.3727372 30.8200246,29.3935791 L30.4569064,29.5198719 C30.3990379,29.5411032 30.3424982,29.5624135 30.2872919,29.5837845 L29.9720921,29.7125926 L29.9720921,29.7125926 L29.6891184,29.8419782 C29.5112612,29.9282323 29.3550377,30.0142851 29.2207472,30.0989641 L29.0357984,30.2248055 C28.7550913,30.4323354 28.6124,30.6276141 28.6124,30.79232 C28.6124,30.9571631 28.7550913,31.1525522 29.0357984,31.3601708 L29.2207472,31.4860629 L29.2207472,31.4860629 L29.4385953,31.6140109 C29.5166697,31.6569052 29.6001898,31.6999956 29.6891184,31.7431356 L29.9720921,31.8725578 C30.0219461,31.8941041 30.0731429,31.9156262 30.1256777,31.9371057 L30.4569064,32.0653256 L30.4569064,32.0653256 L30.8200246,32.1916451 L30.8200246,32.1916451 L31.2148078,32.3151849 L31.2148078,32.3151849 L31.6410317,32.4350658 C31.7146766,32.4546922 31.7896222,32.4741296 31.8658638,32.4933595 L32.3388278,32.6061036 C32.4202347,32.6244307 32.5029283,32.6425137 32.5869038,32.6603343 L33.1061031,32.7639635 C33.729696,32.8808494 34.4156474,32.9830851 35.1623538,33.0643879 L35.8172291,33.1288032 L35.8172291,33.1288032 L36.5016376,33.1820864 C37.3172544,33.2374146 38.1927098,33.26822 39.1264,33.26822 C40.0600902,33.26822 40.9355456,33.2374146 41.7511624,33.1820864 L42.4355709,33.1288032 L42.4355709,33.1288032 L43.0904462,33.0643879 C43.7304802,32.9946998 44.325878,32.9096324 44.8756296,32.8131422 L45.4101285,32.7129909 C45.6697328,32.661158 45.9178415,32.6067991 46.1543282,32.5504087 L46.6117683,32.4350658 L46.6117683,32.4350658 L47.0379922,32.3151849 L47.0379922,32.3151849 L47.4327754,32.1916451 C47.6854342,32.108261 47.9169828,32.0230238 48.1271223,31.9371057 L48.426237,31.8078644 C48.5677285,31.743135 48.6970932,31.6783523 48.8142047,31.6140109 L49.0320528,31.4860629 L49.0320528,31.4860629 L49.2170016,31.3601708 C49.4977087,31.1525522 49.6404,30.9571631 49.6404,30.79232 C49.6404,30.6628518 49.4905696,30.4133727 49.0330459,30.1147982 L48.7994583,29.9737667 C48.5001087,29.8057655 48.1045045,29.6266927 47.588,29.44762 L48.0472,28.12462 C50.0331,28.81342 51.0404,29.71082 51.0404,30.79232 C51.0404,32.06457 49.54205,33.033545 47.303625,33.6844575 L46.8129112,33.8190651 C46.4785853,33.9055507 46.1302612,33.9855237 45.7701496,34.058941 L45.2214179,34.1641447 C45.1285812,34.1808574 45.035077,34.197159 44.9409397,34.2130489 L44.3687949,34.3034416 L44.3687949,34.3034416 L43.783114,34.3839198 C43.5858152,34.4090899 43.3865368,34.4326022 43.185555,34.4544513 L42.5777758,34.5150037 L42.5777758,34.5150037 L41.9614347,34.5655446 C41.7547448,34.5807194 41.5469043,34.5942202 41.3381895,34.6060417 L40.7096983,34.6364627 L40.7096983,34.6364627 L40.0776191,34.6567752 C39.9720657,34.6593165 39.8664319,34.6614352 39.7607522,34.6631307 L39.1264,34.66822 L39.1264,34.66822 L38.4920478,34.6631307 L38.4920478,34.6631307 L37.8587964,34.6478845 C37.7534384,34.6444989 37.6481953,34.6406914 37.5431017,34.6364627 L36.9146105,34.6060417 C36.8102531,34.6001309 36.7061143,34.5938004 36.6022286,34.5870506 L35.9822281,34.5415276 C35.8794931,34.5331038 35.7770802,34.5242623 35.6750242,34.5150037 L35.067245,34.4544513 C34.9667541,34.4435268 34.8666891,34.4321864 34.7670844,34.4204309 L34.1752571,34.344922 C34.0776321,34.3315088 33.9805366,34.3176817 33.8840051,34.3034416 L33.3118603,34.2130489 C33.1235857,34.1812692 32.9378434,34.1478425 32.7549098,34.1127741 L32.2148114,34.0026495 C31.9492517,33.9451302 31.6906333,33.8839293 31.4398888,33.8190651 L30.949175,33.6844575 C28.71075,33.033545 27.2124,32.06457 27.2124,30.79232 C27.2124,29.656695 28.4068754,28.7626995 30.2561012,28.1209211 L30.7122102,27.9717423 C31.1803378,27.8274169 31.6836919,27.697668 32.2148114,27.582642 L32.7549098,27.472529 L32.7549098,27.472529 L33.3118603,27.3722638 C33.500135,27.3404869 33.690942,27.3103568 33.8840051,27.2818788 L34.469686,27.2014067 C34.6669848,27.1762384 34.8662632,27.1527277 35.067245,27.1308799 L35.6750242,27.070331 C35.8791363,27.0518147 36.0846755,27.0349667 36.2913653,27.0197925 L36.9146105,26.979297 C37.1233254,26.9674759 37.3329146,26.957334 37.5431017,26.9488768 L38.1751809,26.9285647 L38.1751809,26.9285647 L38.8091899,26.918393 C38.9149268,26.9175446 39.020675,26.91712 39.1264,26.91712 Z M15.822,13.75348 C17.6567,13.75348 19.4347,14.40728 20.8305,15.59448 L19.9226,16.66058 C18.7809,15.68898 17.3242,15.15348 15.822,15.15348 C13.086365,15.15348 10.7501908,16.8969333 9.86627156,19.3310457 L14.9673,19.3308 L14.9673,20.7308 L9.53331588,20.7306421 C9.50365931,20.9787171 9.4884,21.2311505 9.4884,21.48708 C9.4884,21.7430095 9.50365931,21.9954429 9.53331588,22.2435179 L14.9673,22.2435 L14.9673,23.6435 L9.86627156,23.6431143 C10.7501908,26.0772268 13.086365,27.82068 15.822,27.82068 C17.3242,27.82068 18.7809,27.28588 19.9219,26.31428 L20.8298,27.38038 C19.4347,28.56688 17.656,29.22068 15.822,29.22068 C12.3055541,29.22068 9.32982313,26.8617158 8.39414471,23.6431249 L7.0482,23.6435 L7.0482,22.2435 L8.12511402,22.2437065 C8.10082915,21.9947289 8.0884,21.7423289 8.0884,21.48708 C8.0884,21.2321356 8.10079951,20.9800333 8.12502715,20.7313447 L7.0482,20.7308 L7.0482,19.3308 L8.39414471,19.3310351 C9.32982313,16.1124442 12.3055541,13.75348 15.822,13.75348 Z M34.81405,19.54668 L34.81405,22.80308 L38.00255,22.80308 L38.00255,24.20308 L34.11405,24.20308 L33.41405,23.50308 L33.41405,19.54668 L34.81405,19.54668 Z M43.3894,1.77144 L44.6172,2.44554 L38.4936,13.59304 L41.2152,16.31534 L41.2152,17.30514 L36.7324,21.78864 L35.7426,20.79884 L39.7305,16.81024 L37.1314,14.21184 L37.0124,13.37954 L43.3894,1.77144 Z M45.22333,7.4588 C46.74723,7.4588 47.98693,8.6985 47.98693,10.2231 L47.98693,11.6525 C47.98693,13.1764 46.74723,14.4168 45.22333,14.4168 C43.69873,14.4168 42.45903,13.1764 42.45903,11.6525 L42.45903,10.2231 C42.45903,8.6985 43.69873,7.4588 45.22333,7.4588 Z M45.22333,8.8588 C44.47083,8.8588 43.85903,9.4706 43.85903,10.2231 L43.85903,11.6525 C43.85903,12.405 44.47083,13.0168 45.22333,13.0168 C45.97513,13.0168 46.58693,12.405 46.58693,11.6525 L46.58693,10.2231 C46.58693,9.4706 45.97513,8.8588 45.22333,8.8588 Z M36.54921,1.40835 C38.07311,1.40835 39.31281,2.64805 39.31281,4.17265 L39.31281,5.60205 C39.31281,7.12595 38.07311,8.36635 36.54921,8.36635 C35.02461,8.36635 33.78491,7.12595 33.78491,5.60205 L33.78491,4.17265 C33.78491,2.64805 35.02461,1.40835 36.54921,1.40835 Z M36.54921,2.80835 C35.79671,2.80835 35.18491,3.42015 35.18491,4.17265 L35.18491,5.60205 C35.18491,6.35385 35.79671,6.96635 36.54921,6.96635 C37.30101,6.96635 37.91281,6.35385 37.91281,5.60205 L37.91281,4.17265 C37.91281,3.42015 37.30101,2.80835 36.54921,2.80835 Z M24.68414,2.96739 L25.38414,3.66739 L25.38414,5.26199 L24.91514,5.92279 L23.96384,5.26899 L23.96384,3.66739 L24.68414,2.96739 Z M16.9252,2.9676 L16.9252,4.3676 L11.8222,4.3676 L11.8222,2.9676 L16.9252,2.9676 Z" id="Shape"></path>
            </g>
        </g>
    </g>
</svg>