<?xml version="1.0" encoding="utf-8"?><svg viewBox="0 0 78 85" xmlns="http://www.w3.org/2000/svg" xmlns:xlink="http://www.w3.org/1999/xlink"><style>:root>svg{display:none}:root>svg:target{display:block}</style><svg viewBox="0 0 14 14" id="arrow-down" xmlns="http://www.w3.org/2000/svg"><path d="M7 8.5L11.5 4H13l-6 6-6-6h1.5z" fill="currentColor" fill-rule="evenodd"/></svg><svg viewBox="0 0 34 34" id="arrow-next" xmlns="http://www.w3.org/2000/svg"><path d="M21 17l-9-9V5l12 12-12 12v-3z" fill="currentColor" fill-rule="evenodd"/></svg><svg viewBox="0 0 22 14" id="arrow-next-last" xmlns="http://www.w3.org/2000/svg"><path d="M17.5 7L13 11.5V13l6-6-6-6v1.5zm-8 0L5 11.5V13l6-6-6-6v1.5z" fill="#0D181C" fill-rule="evenodd"/></svg><svg viewBox="0 0 34 34" id="arrow-prev" xmlns="http://www.w3.org/2000/svg"><path d="M13 17l9-9V5L10 17l12 12v-3z" fill="currentColor" fill-rule="evenodd"/></svg><svg viewBox="0 0 40 40" id="big-arrow-icon" xmlns="http://www.w3.org/2000/svg"><g fill="none" fill-rule="evenodd"><path d="M0 0h40v40H0z"/><path d="M32.865 13L40 20l-7.135 7-1.105-1.083 5.248-5.151L0 20.767v-1.533l37.009-.001-5.249-5.15z" fill="currentColor"/></g></svg><svg viewBox="0 0 40 40" id="burger-icon" xmlns="http://www.w3.org/2000/svg"><g fill="none" fill-rule="evenodd"><path d="M0 0h40v40H0z"/><path d="M5 13.5h30.667v-1.499H5zm0 7.334h30.667v-1.5H5zm0 7.333h30.667v-1.5H5z" fill="#0D181C"/></g></svg><svg viewBox="0 0 32 32" id="close-icon" xmlns="http://www.w3.org/2000/svg"><g fill="none" fill-rule="evenodd"><path d="M0 0h32v32H0z"/><path d="M22.376 8.8l.824.823L16.822 16l6.378 6.377-.824.823-6.377-6.378L9.623 23.2l-.823-.823L15.176 16 8.8 9.623l.823-.823 6.376 6.377z" fill="currentColor"/></g></svg><svg viewBox="0 0 45 41" id="corner-dotts" xmlns="http://www.w3.org/2000/svg"><path d="M44.243 37.586h-3v3h3zm-21.001-19h-3v3h3zm21.001 0h-3v3h3zM3.242.586h-3v3h3zm20 0h-3v3h3zm21.001 0h-3v3h3z" fill="#E30613" fill-rule="evenodd"/></svg><svg viewBox="0 0 20 19" id="diamonds" xmlns="http://www.w3.org/2000/svg"><g fill="currentColor" fill-rule="evenodd"><path d="M10.337.379L12.458 2.5l-2.121 2.121L8.216 2.5zM3.266 7.45L5.387 9.57l-2.121 2.121-2.121-2.121zM17.408 7.45l2.121 2.121-2.121 2.121-2.121-2.121zM10.337 14.52l2.121 2.122-2.121 2.121-2.121-2.121z"/></g></svg><svg viewBox="0 0 14 14" id="external-link-icon" xmlns="http://www.w3.org/2000/svg"><g fill="none" fill-rule="evenodd"><path d="M0 0h14v14H0z"/><path d="M6.532 1.632v.936h-5.6v10.5H11.2v-5.6h.932V14H0V1.632h6.532zM14 0v5.6h-.932V1.594l-7.372 7.37-.66-.66 7.37-7.372H8.4V0H14z" fill="currentColor"/></g></svg><svg viewBox="0 0 40 40" id="icons-dark-filter-icon" xmlns="http://www.w3.org/2000/svg"><g fill="none" fill-rule="evenodd"><path d="M0 0h40v40H0z"/><path d="M35.33 27.58H15.94v-.75h-3v.75H4.67v1.5h8.27v.75h3v-.75h19.39v-1.5zm0-8.33h-7.39v-.75h-3v.75H4.67v1.5h20.27v.75h3v-.75h7.39v-1.5zm0-6.83H10.94v.75h-3v-.75H4.67v-1.5h3.27v-.75h3v.75h24.39v1.5z" fill="currentColor"/></g></svg><svg viewBox="0 0 32 32" id="more-icon" xmlns="http://www.w3.org/2000/svg"><g fill="none" fill-rule="evenodd"><path d="M0 0h32v32H0z"/><g fill="#0D181C" fill-opacity=".3" transform="translate(6 14)"><circle cx="2" cy="2" r="2"/><circle cx="10" cy="2" r="2"/><circle cx="18" cy="2" r="2"/></g></g></svg><svg viewBox="0 0 32 32" id="search-icon" xmlns="http://www.w3.org/2000/svg"><g fill="none" fill-rule="evenodd"><path d="M0 0h32v32H0z"/><path d="M13.763 7.2a6.57 6.57 0 016.563 6.563c0 1.594-.57 3.057-1.52 4.195l6.148 6.148-.848.848-6.148-6.148a6.535 6.535 0 01-4.195 1.52A6.57 6.57 0 017.2 13.763 6.57 6.57 0 0113.763 7.2zm0 1.2A5.37 5.37 0 008.4 13.763a5.37 5.37 0 005.363 5.363 5.37 5.37 0 005.363-5.363A5.37 5.37 0 0013.763 8.4z" fill="currentColor"/></g></svg><svg viewBox="0 0 20 20" id="social-facebook" xmlns="http://www.w3.org/2000/svg"><g fill="none" fill-rule="evenodd"><path d="M0 0h20v20H0z"/><path d="M16.125 3c.237 0 .442.087.615.26.173.173.26.378.26.615v12.25a.841.841 0 01-.26.615.841.841 0 01-.615.26h-3.5v-5.441h1.75l.294-2.017h-2.044V7.956c0-.292.074-.515.222-.67.148-.155.366-.232.653-.232h1.313V5.235a9.227 9.227 0 00-1.436-.095c-.939 0-1.655.238-2.15.714-.494.476-.742 1.125-.742 1.945v1.743h-1.75v2.017h1.75V17h-6.61a.841.841 0 01-.615-.26.841.841 0 01-.26-.615V3.875c0-.237.087-.442.26-.615A.841.841 0 013.875 3h12.25z" fill="currentColor"/></g></svg><svg viewBox="0 0 20 20" id="social-instagram" xmlns="http://www.w3.org/2000/svg"><g fill="none" fill-rule="evenodd"><path d="M0 0h20v20H0z"/><path d="M9.026 2h1.949l1.182.009c.44.007.72.019 1.143.038.851.04 1.433.174 1.942.372.526.205.972.478 1.417.923.445.445.719.891.923 1.417.176.453.302.963.356 1.668l.044.962c.01.318.015.668.018 1.255l-.004 3.291c-.007.576-.02.875-.042 1.365-.039.851-.174 1.433-.372 1.942a3.916 3.916 0 01-.923 1.417c-.445.445-.89.719-1.417.923-.452.176-.962.302-1.668.356l-.868.04c-.187.007-.38.012-.62.016l-2.358.008-2.05-.013c-.35-.007-.609-.018-.976-.035-.852-.039-1.434-.174-1.943-.372a3.916 3.916 0 01-1.417-.923 3.92 3.92 0 01-.923-1.417c-.176-.452-.302-.962-.355-1.668l-.017-.274A42.05 42.05 0 012 10.975l.003-2.626c.006-.773.018-1.083.044-1.647.04-.852.174-1.434.372-1.943.205-.526.478-.972.923-1.417a3.929 3.929 0 011.417-.923c.453-.176.963-.302 1.668-.355l.9-.043A54.47 54.47 0 019.027 2zm2.766 1.446H8.21c-.634.006-.93.018-1.443.041-.78.036-1.204.166-1.485.276-.374.145-.64.318-.92.599-.28.28-.454.546-.6.92-.109.281-.239.705-.275 1.485l-.033.901c-.007.313-.01.694-.012 1.31l.004 2.814c.006.634.018.928.041 1.442.036.78.166 1.204.276 1.486.145.373.319.64.599.92.28.28.546.453.92.598l.187.068c.278.09.674.18 1.298.208l.9.033c.314.007.695.01 1.31.013l2.815-.005a33.87 33.87 0 001.442-.041c.78-.036 1.204-.166 1.486-.276a2.48 2.48 0 00.92-.598c.28-.28.453-.547.598-.92l.068-.188c.09-.278.18-.674.208-1.298l.03-.786c.01-.336.014-.732.016-1.424l-.006-2.966c-.007-.533-.019-.82-.04-1.29-.036-.78-.166-1.205-.276-1.486a2.472 2.472 0 00-.598-.92 2.497 2.497 0 00-.92-.6l-.188-.066c-.278-.091-.674-.18-1.298-.209l-.786-.03a33.184 33.184 0 00-.656-.011zM10.003 5.89a4.108 4.108 0 11.001 8.215 4.108 4.108 0 01-.001-8.215zm0 1.44a2.667 2.667 0 000 5.333 2.665 2.665 0 100-5.332zm4.318-2.599a.948.948 0 110 1.896.948.948 0 010-1.896z" fill="currentColor"/></g></svg><svg viewBox="0 0 20 20" id="social-linkedin" xmlns="http://www.w3.org/2000/svg"><g fill="none" fill-rule="evenodd"><path d="M0 0h20v20H0z"/><path d="M6.75 4.714c0 .493-.173.903-.52 1.23-.347.327-.803.491-1.37.491h-.022c-.542 0-.984-.165-1.325-.494A1.634 1.634 0 013 4.714c0-.494.175-.902.524-1.227C3.873 3.162 4.328 3 4.89 3c.551 0 .997.162 1.336.487.34.325.514.734.524 1.227zM3.315 7.995h3.12v9.69h-3.12v-9.69zm8.123 4.065v5.625H8.31v-7.5a137.09 137.09 0 01-.051-2.19h3.076l.102 1.34a3.995 3.995 0 011.209-1.2 2.94 2.94 0 011.604-.447c1.123 0 2.029.384 2.717 1.153.689.77 1.033 1.842 1.033 3.22v5.624h-3.127v-5.31c0-.742-.158-1.293-.473-1.652-.315-.358-.724-.538-1.227-.538-.498 0-.912.162-1.241.487-.33.325-.495.787-.495 1.388z" fill="currentColor"/></g></svg><svg viewBox="0 0 20 20" id="social-twitter" xmlns="http://www.w3.org/2000/svg"><g fill="none" fill-rule="evenodd"><path d="M0 0h20v20H0z"/><path d="M18.222 5.126a6.575 6.575 0 01-1.633 1.703v.43c0 .73-.092 1.462-.277 2.2-.185.736-.45 1.452-.797 2.148a8.753 8.753 0 01-1.332 1.949 9.693 9.693 0 01-1.82 1.582 8.474 8.474 0 01-2.325 1.066 9.722 9.722 0 01-2.777.391c-1.974 0-3.654-.445-5.039-1.336a5.656 5.656 0 002.921-.367 7.54 7.54 0 001.93-1.133 3.106 3.106 0 01-1.902-.652 3.192 3.192 0 01-1.152-1.63c.219.042.422.063.61.063.301 0 .593-.039.874-.117a3.194 3.194 0 01-1.883-1.129 3.172 3.172 0 01-.75-2.09v-.039c.47.256.964.39 1.485.407A3.301 3.301 0 013.281 7.4a3.168 3.168 0 01-.395-1.547c0-.537.148-1.068.445-1.594a9.125 9.125 0 002.985 2.379 9.445 9.445 0 003.773.988 3.43 3.43 0 01-.07-.758c0-.906.319-1.678.957-2.316a3.155 3.155 0 012.316-.957c.933 0 1.737.344 2.414 1.031a6.477 6.477 0 002.07-.797 3.142 3.142 0 01-1.445 1.82 6.213 6.213 0 001.891-.523z" fill="currentColor"/></g></svg><svg viewBox="0 0 20 20" id="social-youtube" xmlns="http://www.w3.org/2000/svg"><g fill="none" fill-rule="evenodd"><path d="M0 0h20v20H0z"/><path d="M10 4c2.719 0 4.506.038 5.361.114 1.237.106 2.104.355 2.602.747.463.364.762.964.896 1.802.094.598.141 1.746.141 3.445v.264c0 1.764-.038 2.939-.114 3.524-.123.891-.402 1.527-.835 1.908-.463.416-1.278.682-2.444.8-.867.093-2.613.14-5.238.14H10c-2.719 0-4.506-.038-5.361-.114-1.237-.106-2.104-.355-2.602-.747-.463-.363-.762-.964-.896-1.802C1.047 13.483 1 12.335 1 10.636v-.264c0-1.764.038-2.938.114-3.524.123-.891.402-1.528.836-1.908.462-.416 1.277-.682 2.443-.8C5.26 4.048 7.006 4 9.63 4H10zm-2.25 9.747l5.625-3.375L7.75 6.997v6.75z" fill="currentColor"/></g></svg><svg viewBox="0 0 78 85" id="step01" xmlns="http://www.w3.org/2000/svg"><g fill="none" fill-rule="evenodd"><path d="M0 0h78v85H0z"/><path d="M18.38 81.85c11.305 0 17-9.605 17-25.67V45.47c0-17-5.61-26.52-17.085-26.52-11.22 0-16.915 9.52-16.915 26.52v10.71c0 16.065 5.695 25.67 17 25.67zm0-8.84c-4.25 0-6.63-5.61-6.63-16.83V45.47c0-11.475 2.55-17.68 6.545-17.68 4.335 0 6.63 6.375 6.63 17.595V56.18c0 11.135-2.21 16.83-6.545 16.83zM59.605 81V19.8h-6.97L39.12 28.64v10.115l10.285-5.95-.255.17V81h10.455z" stroke="currentColor" stroke-width=".6" fill="none"/></g></svg><svg viewBox="0 0 78 85" id="step02" xmlns="http://www.w3.org/2000/svg"><g fill="none" fill-rule="evenodd"><path d="M0 0h78v85H0z"/><path d="M18.38 81.85c11.305 0 17-9.605 17-25.67V45.47c0-17-5.61-26.52-17.085-26.52-11.22 0-16.915 9.52-16.915 26.52v10.71c0 16.065 5.695 25.67 17 25.67zm0-8.84c-4.25 0-6.63-5.61-6.63-16.83V45.47c0-11.475 2.55-17.68 6.545-17.68 4.335 0 6.63 6.375 6.63 17.595V56.18c0 11.135-2.21 16.83-6.545 16.83zM73.375 81v-8.84H53.74l.17-.255 8.755-11.645c6.715-9.18 10.37-18.19 10.37-24.055 0-10.2-5.865-17.255-15.98-17.255-10.285 0-15.81 6.8-16.235 19.635h10.03c.595-7.48 2.465-10.795 6.205-10.795 3.655 0 5.525 3.06 5.525 8.5 0 5.185-3.4 11.815-7.055 17L40.82 74.03V81h32.555z" stroke="currentColor" stroke-width=".6" fill="none"/></g></svg><svg viewBox="0 0 78 85" id="step03" xmlns="http://www.w3.org/2000/svg"><g fill="none" fill-rule="evenodd"><path d="M0 0h78v85H0z"/><path d="M18.38 81.85c11.305 0 17-9.605 17-25.67V45.47c0-17-5.61-26.52-17.085-26.52-11.22 0-16.915 9.52-16.915 26.52v10.71c0 16.065 5.695 25.67 17 25.67zm0-8.84c-4.25 0-6.63-5.61-6.63-16.83V45.47c0-11.475 2.55-17.68 6.545-17.68 4.335 0 6.63 6.375 6.63 17.595V56.18c0 11.135-2.21 16.83-6.545 16.83zm38.25 8.84c8.925 0 17.425-5.95 17.425-18.105 0-7.225-2.635-11.135-7.905-13.685v-.34c3.995-2.72 6.375-7.225 6.375-12.665 0-11.135-6.205-17.34-15.895-17.34-9.01 0-14.96 6.545-15.385 18.02h9.945c.425-6.29 2.125-9.18 5.44-9.18 3.315 0 5.44 2.465 5.44 8.5 0 5.44-2.295 8.585-6.375 8.585h-3.74v8.755h3.74c4.93 0 7.905 3.23 7.905 9.35 0 6.205-3.06 9.265-6.97 9.265-3.485 0-6.035-2.975-6.63-9.095H39.97c.595 11.475 6.8 17.935 16.66 17.935z" stroke="currentColor" stroke-width=".6" fill="none"/></g></svg><svg viewBox="0 0 78 85" id="step04" xmlns="http://www.w3.org/2000/svg"><g fill="none" fill-rule="evenodd"><path d="M0 0h78v85H0z"/><path d="M18.38 81.85c11.305 0 17-9.605 17-25.67V45.47c0-17-5.61-26.52-17.085-26.52-11.22 0-16.915 9.52-16.915 26.52v10.71c0 16.065 5.695 25.67 17 25.67zm0-8.84c-4.25 0-6.63-5.61-6.63-16.83V45.47c0-11.475 2.55-17.68 6.545-17.68 4.335 0 6.63 6.375 6.63 17.595V56.18c0 11.135-2.21 16.83-6.545 16.83zM69.975 81V67.06l-.17-.17h6.205v-8.755h-6.205l.17-.255V19.8h-9.01l-22.78 40.545v6.545h21.59l-.17.17V81h10.37zm-10.2-22.865H49.32l.17-.34c2.04-3.485 3.825-6.8 5.695-10.03 1.36-2.55 2.975-5.355 4.42-7.905v18.02l.17.255z" stroke="currentColor" stroke-width=".6" fill="none"/></g></svg><svg viewBox="0 0 78 85" id="step05" xmlns="http://www.w3.org/2000/svg"><g fill="none" fill-rule="evenodd"><path d="M0 0h78v85H0z"/><path d="M18.38 81.85c11.305 0 17-9.605 17-25.67V45.47c0-17-5.61-26.52-17.085-26.52-11.22 0-16.915 9.52-16.915 26.52v10.71c0 16.065 5.695 25.67 17 25.67zm0-8.84c-4.25 0-6.63-5.61-6.63-16.83V45.47c0-11.475 2.55-17.68 6.545-17.68 4.335 0 6.63 6.375 6.63 17.595V56.18c0 11.135-2.21 16.83-6.545 16.83zm38.165 8.84c11.475 0 17.51-7.82 17.51-20.485 0-12.495-5.95-20.825-16.49-20.825-1.785 0-3.57.425-5.015 1.19l.255-.17c.34-4.25.85-8.5 1.19-12.75l-.17-.17H71.08V19.8H44.645l-2.72 31.62 8.67 2.21c1.7-2.89 3.4-4.25 5.44-4.25 5.1 0 7.565 4.845 7.565 12.07 0 7.565-3.315 11.56-7.055 11.56-3.145 0-5.355-2.465-6.205-9.095H39.97c.85 11.39 6.29 17.935 16.575 17.935z" stroke="#DFE0E5" stroke-width=".6" fill="none"/></g></svg><svg viewBox="0 0 78 85" id="step06" xmlns="http://www.w3.org/2000/svg"><g fill="none" fill-rule="evenodd"><path d="M0 0h78v85H0z"/><path d="M18.38 81.85c11.305 0 17-9.605 17-25.67V45.47c0-17-5.61-26.52-17.085-26.52-11.22 0-16.915 9.52-16.915 26.52v10.71c0 16.065 5.695 25.67 17 25.67zm0-8.84c-4.25 0-6.63-5.61-6.63-16.83V45.47c0-11.475 2.55-17.68 6.545-17.68 4.335 0 6.63 6.375 6.63 17.595V56.18c0 11.135-2.21 16.83-6.545 16.83zm38.505 8.84c10.71 0 17.085-8.84 17.085-20.825 0-10.115-5.525-20.485-15.045-20.485-2.975 0-5.355.68-7.48 2.38 1.7-9.435 6.035-14.28 13.175-14.28h4.335V19.8H63.09c-14.365 0-23.12 11.22-23.12 33.405v4.505c0 14.79 6.885 24.14 16.915 24.14zm0-8.33c-4.165 0-6.545-5.015-6.545-14.875V55.84c1.19-4.335 3.74-6.885 6.715-6.885 4.08 0 6.46 4.93 6.46 12.325s-2.38 12.24-6.63 12.24z" stroke="#DFE0E5" stroke-width=".6" fill="none"/></g></svg></svg>