<?xml version="1.0" encoding="UTF-8"?>
<svg width="70px" height="70px" viewBox="0 0 70 70" version="1.1" xmlns="http://www.w3.org/2000/svg" xmlns:xlink="http://www.w3.org/1999/xlink">
    <style>svg {color:#e30613;}</style>
    <title>decor-icons-red-boost</title>
    <g id="Symbols" stroke="none" stroke-width="1" fill="none" fill-rule="evenodd">
        <g id="decor-icons-red-boost">
            <rect id="bounding_box" x="0" y="0" width="70" height="70"></rect>
            <g id="icon" transform="translate(10.000000, 11.000000)" fill="currentColor">
                <path d="M49,23.25 L49.7,23.95 L49.7,40.87 L48.3,40.87 L48.3,24.65 L35.25,24.65 L35.25,46.13 L48.3,46.13 L48.3,43.3 L49.7,43.3 L49.7,46.83 L49,47.53 L34.55,47.53 L33.85,46.83 L33.85,23.95 L34.55,23.25 L49,23.25 Z M9.87,5.45 L9.87,6.85 L1.7,6.85 L1.71,43.15 L32.09,43.15 L32.09,44.55 L1.01,44.55 L0.31,43.85 L0.3,6.15 L1,5.45 L9.87,5.45 Z M43.32,43.15 L43.32,44.55 L40.27,44.55 L40.27,43.15 L43.32,43.15 Z M17.26,0.47 L18.09,0.47 L18.2890818,0.627675084 L18.2890818,0.627675084 L18.5539235,0.854888484 L18.5539235,0.854888484 L18.81152,1.09096 L18.81152,1.09096 L19.1128021,1.38434181 L19.1128021,1.38434181 L19.4515997,1.73596005 L19.4515997,1.73596005 L19.6952595,2.00318314 L19.6952595,2.00318314 L19.9510222,2.29697511 L19.9510222,2.29697511 L20.2170596,2.61761038 L20.2170596,2.61761038 L20.4915435,2.96536335 C20.5378931,3.02559723 20.5845184,3.08697245 20.6313814,3.14949473 L20.915107,3.53843878 C22.5832544,5.88810651 24.4492308,9.65692308 24.88,15.09 L24.9001605,15.4909224 L24.9001605,15.4909224 L24.9468175,17.1119012 L24.9468175,17.1119012 L24.9811688,19.2196922 L24.9811688,19.2196922 L24.9991501,21.766123 L24.9991501,21.766123 L25,22.45 L28.21,26.3 L28.38,26.75 L28.38,34.84 L27.29,35.43 L24.11,33.32 L21.41,33.32 L18.28,38.64 L17.07,38.64 L13.94,33.32 L11.25,33.32 L8.06,35.43 L6.98,34.84 L6.98,26.75 L7.14,26.3 L10.38,22.43 L10.4479687,16.8024609 L10.4479687,16.8024609 L10.4729297,15.7222412 L10.4729297,15.7222412 L10.4907422,15.2451611 L10.4907422,15.2451611 L10.5,15.09 L10.5,15.09 C10.8507692,10.4146154 12.2666272,6.97899408 13.7132909,4.61698225 L14.0027279,4.15884544 C14.0509337,4.0848587 14.0990971,4.01205254 14.1471798,3.94042083 L14.4344015,3.52467456 L14.4344015,3.52467456 L14.7178478,3.13681941 L14.7178478,3.13681941 L14.99568,2.77656 C15.0414154,2.7188 15.0868402,2.66217751 15.1319162,2.60668639 L15.3978798,2.28726675 L15.3978798,2.28726675 L15.6536325,1.99470438 L15.6536325,1.99470438 L15.8973356,1.72870391 L15.8973356,1.72870391 L16.1271503,1.48896994 L16.1271503,1.48896994 L16.4418097,1.17797254 L16.4418097,1.17797254 L16.7148775,0.924413254 L16.7148775,0.924413254 L16.8707517,0.786791479 L16.8707517,0.786791479 L17.26,0.47 Z M17.7,2 L17.68,2 L17.5231716,2.14090733 L17.5231716,2.14090733 L17.3460279,2.30793501 L17.3460279,2.30793501 L17.0463753,2.60795999 L17.0463753,2.60795999 L16.8267516,2.84130416 L16.8267516,2.84130416 L16.5934592,3.10158117 C16.5535435,3.14721797 16.5131375,3.19398665 16.4722806,3.24189203 L16.2220457,3.54300355 C16.1370417,3.64794669 16.0505509,3.75747537 15.9628896,3.87162826 L15.6967114,4.22799828 C15.6070259,4.3514383 15.5164866,4.47954123 15.42541,4.61234576 L15.1508844,5.02490284 C13.7274439,7.22972232 12.2509434,10.5733962 11.9,15.2 L11.8757017,15.6892825 L11.8757017,15.6892825 L11.8398849,17.1338875 L11.8398849,17.1338875 L11.76875,22.97875 L11.76875,22.97875 L11.7218019,30.8757985 L11.7218019,30.8757985 L11.72,31.92 L14.39,31.92 L15,32.27 L17.67,36.96 L20.4,32.32 L21,31.97 L23.66,31.97 L23.5880856,20.672547 L23.5880856,20.672547 L23.5380559,17.0203793 L23.5380559,17.0203793 L23.4962663,15.5290159 L23.4962663,15.5290159 L23.4841201,15.3062554 L23.4841201,15.3062554 L23.48,15.25 C23.1290566,10.6233962 21.6525561,7.27972232 20.2291156,5.0648976 L19.95459,4.6502764 C19.8635134,4.5167404 19.7729741,4.38786166 19.6832886,4.26359881 L19.4171104,3.90461656 L19.4171104,3.90461656 L19.1579543,3.5730814 C19.1154523,3.52009901 19.073322,3.4682499 19.031603,3.4175289 L18.7865408,3.12669889 L18.7865408,3.12669889 L18.5532484,2.86269531 L18.5532484,2.86269531 L18.229532,2.51644646 L18.229532,2.51644646 L17.9429795,2.22916065 L17.9429795,2.22916065 L17.7757561,2.06998025 L17.7757561,2.06998025 L17.7,2 Z M10.38,24.63 L8.38,27 L8.44,33.54 L10.38,32.26 L10.38,24.63 Z M25,24.65 L25,32.26 L27,33.54 L27,27 L25,24.65 Z M46.64,5.45 L47.34,6.15 L47.33,21.53 L45.93,21.53 L45.94,12.85 L26.7,12.85 L26.7,11.45 L45.94,11.45 L45.94,6.85 L25.48,6.85 L25.48,5.45 L46.64,5.45 Z M17.68,12.01 C19.7234536,12.01 21.38,13.6665464 21.38,15.71 C21.38,17.7534536 19.7234536,19.41 17.68,19.41 C16.698699,19.41 15.7575895,19.0201797 15.0637049,18.3262951 C14.3698203,17.6324105 13.98,16.691301 13.98,15.71 C13.98,13.6665464 15.6365464,12.01 17.68,12.01 Z M17.68,13.41 C16.4120208,13.4154773 15.3854773,14.4420208 15.38,15.71 C15.38,16.9802549 16.4097451,18.01 17.68,18.01 C18.9502549,18.01 19.98,16.9802549 19.98,15.71 C19.98,14.4397451 18.9502549,13.41 17.68,13.41 Z M44.01,8.47 L44.01,9.87 L42.06,9.87 L42.06,8.47 L44.01,8.47 Z M41.03,8.47 L41.03,9.87 L39.08,9.87 L39.08,8.47 L41.03,8.47 Z" id="Shape"></path>
            </g>
        </g>
    </g>
</svg>