<?xml version="1.0" encoding="utf-8"?><!DOCTYPE svg  PUBLIC '-//W3C//DTD SVG 1.1//EN'  'http://www.w3.org/Graphics/SVG/1.1/DTD/svg11.dtd'><svg viewBox="0 0 381 266" xmlns="http://www.w3.org/2000/svg" xmlns:xlink="http://www.w3.org/1999/xlink"><style>:root>svg{display:none}:root>svg:target{display:block}</style><svg viewBox="0 0 185 266" id="abstract-dots-1" xmlns="http://www.w3.org/2000/svg"><path d="M40.758 60.414h3v-3h-3zm20 0h3v-3h-3zm19.999 0h3v-3h-3zm20 0h3v-3h-3zm20 0h3v-3h-3zm21 0h3v-3h-3zm-80.999 18h3v-3h-3zm19.999 0h3v-3h-3zm20 0h3v-3h-3zm20 0h3v-3h-3zm21 0h3v-3h-3zm20 0h3v-3h-3zm-120.999 19h3v-3h-3zm20 0h3v-3h-3zm19.999 0h3v-3h-3zm20 0h3v-3h-3zm20 0h3v-3h-3zm21 0h3v-3h-3zm-61 18h3v-3h-3zm40 0h3v-3h-3zm21 0h3v-3h-3zm20 0h3v-3h-3zm20 0h3v-3h-3zm-140.999 19h3v-3h-3zm20 0h3v-3h-3zm19.999 0h3v-3h-3zm20 0h3v-3h-3zm20 0h3v-3h-3zm21 0h3v-3h-3zm-61 18h3v-3h-3zm20 0h3v-3h-3zm20 0h3v-3h-3zm21 0h3v-3h-3zm20 0h3v-3h-3zm20 0h3v-3h-3zm-62-149h3v-3h-3zm20 0h3v-3h-3zm20 0h3v-3h-3zm-20 19h3v-3h-3zm20 0h3v-3h-3zm20 0h3v-3h-3zm-60 19h3v-3h-3zm20 0h3v-3h-3zm20 0h3v-3h-3zm-18 131h3v-3h-3zm-20 0h3v-3h-3zm-21 0h3v-3h-3zm-20 0h3v-3h-3zm-19.999 0h3v-3h-3zm-20 0h3v-3h-3zm80.999 19h3v-3h-3zm-21 0h3v-3h-3zm-20 0h3v-3h-3zm-19.999 0h3v-3h-3zm-20 0h3v-3h-3zm-20 0h3v-3h-3zm120.999 18h3v-3h-3zm-20 0h3v-3h-3zm-21 0h3v-3h-3zm-20 0h3v-3h-3zm-19.999 0h3v-3h-3zm-20 0h3v-3h-3zm59.999 19h3v-3h-3zm-39.999 0h3v-3h-3zm-20 0h3v-3h-3zm-20 0h3v-3h-3zm-20 0h3v-3h-3zm140.999 18h3v-3h-3zm-20 0h3v-3h-3zm-21 0h3v-3h-3zm-20 0h3v-3h-3zm-19.999 0h3v-3h-3zm-20 0h3v-3h-3zm59.999 19h3v-3h-3zm-20 0h3v-3h-3zm-19.999 0h3v-3h-3zm-20 0h3v-3h-3zm-20 0h3v-3h-3zm-20 0h3v-3h-3z" fill="#FEFEFE" fill-rule="evenodd"/></svg><svg viewBox="0 0 185 266" id="abstract-dots-1-red" xmlns="http://www.w3.org/2000/svg"><path d="M40.758 60.414h3v-3h-3zm20 0h3v-3h-3zm19.999 0h3v-3h-3zm20 0h3v-3h-3zm20 0h3v-3h-3zm21 0h3v-3h-3zm-80.999 18h3v-3h-3zm19.999 0h3v-3h-3zm20 0h3v-3h-3zm20 0h3v-3h-3zm21 0h3v-3h-3zm20 0h3v-3h-3zm-120.999 19h3v-3h-3zm20 0h3v-3h-3zm19.999 0h3v-3h-3zm20 0h3v-3h-3zm20 0h3v-3h-3zm21 0h3v-3h-3zm-61 18h3v-3h-3zm40 0h3v-3h-3zm21 0h3v-3h-3zm20 0h3v-3h-3zm20 0h3v-3h-3zm-140.999 19h3v-3h-3zm20 0h3v-3h-3zm19.999 0h3v-3h-3zm20 0h3v-3h-3zm20 0h3v-3h-3zm21 0h3v-3h-3zm-61 18h3v-3h-3zm20 0h3v-3h-3zm20 0h3v-3h-3zm21 0h3v-3h-3zm20 0h3v-3h-3zm20 0h3v-3h-3zm-62-149h3v-3h-3zm20 0h3v-3h-3zm20 0h3v-3h-3zm-20 19h3v-3h-3zm20 0h3v-3h-3zm20 0h3v-3h-3zm-60 19h3v-3h-3zm20 0h3v-3h-3zm20 0h3v-3h-3zm-18 131h3v-3h-3zm-20 0h3v-3h-3zm-21 0h3v-3h-3zm-20 0h3v-3h-3zm-19.999 0h3v-3h-3zm-20 0h3v-3h-3zm80.999 19h3v-3h-3zm-21 0h3v-3h-3zm-20 0h3v-3h-3zm-19.999 0h3v-3h-3zm-20 0h3v-3h-3zm-20 0h3v-3h-3zm120.999 18h3v-3h-3zm-20 0h3v-3h-3zm-21 0h3v-3h-3zm-20 0h3v-3h-3zm-19.999 0h3v-3h-3zm-20 0h3v-3h-3zm59.999 19h3v-3h-3zm-39.999 0h3v-3h-3zm-20 0h3v-3h-3zm-20 0h3v-3h-3zm-20 0h3v-3h-3zm140.999 18h3v-3h-3zm-20 0h3v-3h-3zm-21 0h3v-3h-3zm-20 0h3v-3h-3zm-19.999 0h3v-3h-3zm-20 0h3v-3h-3zm59.999 19h3v-3h-3zm-20 0h3v-3h-3zm-19.999 0h3v-3h-3zm-20 0h3v-3h-3zm-20 0h3v-3h-3zm-20 0h3v-3h-3z" fill="#e30613" fill-rule="evenodd"/></svg><svg viewBox="0 0 145 97" id="abstract-dots-2" xmlns="http://www.w3.org/2000/svg"><path d="M.758 3.414h3v-3h-3zm20 0h3v-3h-3zm20 0h3v-3h-3zm21 0h3v-3h-3zm19.999 0h3v-3h-3zm20 0h3v-3h-3zm-80.999 19h3v-3h-3zm20 0h3v-3h-3zm21 0h3v-3h-3zm19.999 0h3v-3h-3zm20 0h3v-3h-3zm20 0h3v-3h-3zm-120.999 19h3v-3h-3zm20 0h3v-3h-3zm20 0h3v-3h-3zm21 0h3v-3h-3zm19.999 0h3v-3h-3zm20 0h3v-3h-3zm-60.999 18h3v-3h-3zm40.999 0h3v-3h-3zm20 0h3v-3h-3zm20 0h3v-3h-3zm20 0h3v-3h-3zm-140.999 19h3v-3h-3zm20 0h3v-3h-3zm20 0h3v-3h-3zm21 0h3v-3h-3zm19.999 0h3v-3h-3zm20 0h3v-3h-3zm-60.999 18h3v-3h-3zm21 0h3v-3h-3zm19.999 0h3v-3h-3zm20 0h3v-3h-3zm20 0h3v-3h-3zm20 0h3v-3h-3z" fill="#FEFEFE" fill-rule="evenodd"/></svg><svg viewBox="0 0 145 97" id="abstract-dots-2-red" xmlns="http://www.w3.org/2000/svg"><path d="M.758 3.414h3v-3h-3zm20 0h3v-3h-3zm20 0h3v-3h-3zm21 0h3v-3h-3zm19.999 0h3v-3h-3zm20 0h3v-3h-3zm-80.999 19h3v-3h-3zm20 0h3v-3h-3zm21 0h3v-3h-3zm19.999 0h3v-3h-3zm20 0h3v-3h-3zm20 0h3v-3h-3zm-120.999 19h3v-3h-3zm20 0h3v-3h-3zm20 0h3v-3h-3zm21 0h3v-3h-3zm19.999 0h3v-3h-3zm20 0h3v-3h-3zm-60.999 18h3v-3h-3zm40.999 0h3v-3h-3zm20 0h3v-3h-3zm20 0h3v-3h-3zm20 0h3v-3h-3zm-140.999 19h3v-3h-3zm20 0h3v-3h-3zm20 0h3v-3h-3zm21 0h3v-3h-3zm19.999 0h3v-3h-3zm20 0h3v-3h-3zm-60.999 18h3v-3h-3zm21 0h3v-3h-3zm19.999 0h3v-3h-3zm20 0h3v-3h-3zm20 0h3v-3h-3zm20 0h3v-3h-3z" fill="#e30613" fill-rule="evenodd"/></svg><svg viewBox="0 0 85 97" id="abstract-dots-3" xmlns="http://www.w3.org/2000/svg"><path d="M.758 3.414h3v-3h-3zm20 0h3v-3h-3zm20 0h3v-3h-3zm-20 19h3v-3h-3zm20 0h3v-3h-3zm21 0h3v-3h-3zm-61 19h3v-3h-3zm20 0h3v-3h-3zm20 0h3v-3h-3zm40.999 18h3v-3h-3zm-19.999 0h3v-3h-3zm-21 0h3v-3h-3zm21 19h3v-3h-3zm-21 0h3v-3h-3zm-20 0h3v-3h-3zm60.999 18h3v-3h-3zm-19.999 0h3v-3h-3zm-21 0h3v-3h-3z" fill="#FEFEFE" fill-rule="evenodd"/></svg><svg viewBox="0 0 85 97" id="abstract-dots-3-red" xmlns="http://www.w3.org/2000/svg"><path d="M.758 3.414h3v-3h-3zm20 0h3v-3h-3zm20 0h3v-3h-3zm-20 19h3v-3h-3zm20 0h3v-3h-3zm21 0h3v-3h-3zm-61 19h3v-3h-3zm20 0h3v-3h-3zm20 0h3v-3h-3zm40.999 18h3v-3h-3zm-19.999 0h3v-3h-3zm-21 0h3v-3h-3zm21 19h3v-3h-3zm-21 0h3v-3h-3zm-20 0h3v-3h-3zm60.999 18h3v-3h-3zm-19.999 0h3v-3h-3zm-21 0h3v-3h-3z" fill="#e30613" fill-rule="evenodd"/></svg><svg viewBox="0 0 225 135" id="abstract-dots-4" xmlns="http://www.w3.org/2000/svg"><path d="M161.757 3.414h3v-3h-3zm20 0h3v-3h-3zm20 0h3v-3h-3zm-20 19h3v-3h-3zm20 0h3v-3h-3zm20 0h3v-3h-3zm-60 19h3v-3h-3zm20 0h3v-3h-3zm20 0h3v-3h-3zm-60 0h3v-3h-3zm-20 0h3v-3h-3zm-20 0h3v-3h-3zm-21 0h3v-3h-3zm-19.999 0h3v-3h-3zm-20 0h3v-3h-3zm80.999 18h3v-3h-3zm-20 0h3v-3h-3zm-21 0h3v-3h-3zm-19.999 0h3v-3h-3zm-20 0h3v-3h-3zm-20 0h3v-3h-3zm120.999 19h3v-3h-3zm-20 0h3v-3h-3zm-20 0h3v-3h-3zm-21 0h3v-3h-3zm-19.999 0h3v-3h-3zm-20 0h3v-3h-3zm60.999 19h3v-3h-3zm-40.999 0h3v-3h-3zm-20 0h3v-3h-3zm-20 0h3v-3h-3zm-20 0h3v-3h-3zm140.999 18h3v-3h-3zm-20 0h3v-3h-3zm-20 0h3v-3h-3zm-21 0h3v-3h-3zm-19.999 0h3v-3h-3zm-20 0h3v-3h-3zm60.999 19h3v-3h-3zm-21 0h3v-3h-3zm-19.999 0h3v-3h-3zm-20 0h3v-3h-3zm-20 0h3v-3h-3zm-20 0h3v-3h-3z" fill="#FEFEFE" fill-rule="evenodd"/></svg><svg viewBox="0 0 225 135" id="abstract-dots-4-red" xmlns="http://www.w3.org/2000/svg"><path d="M161.757 3.414h3v-3h-3zm20 0h3v-3h-3zm20 0h3v-3h-3zm-20 19h3v-3h-3zm20 0h3v-3h-3zm20 0h3v-3h-3zm-60 19h3v-3h-3zm20 0h3v-3h-3zm20 0h3v-3h-3zm-60 0h3v-3h-3zm-20 0h3v-3h-3zm-20 0h3v-3h-3zm-21 0h3v-3h-3zm-19.999 0h3v-3h-3zm-20 0h3v-3h-3zm80.999 18h3v-3h-3zm-20 0h3v-3h-3zm-21 0h3v-3h-3zm-19.999 0h3v-3h-3zm-20 0h3v-3h-3zm-20 0h3v-3h-3zm120.999 19h3v-3h-3zm-20 0h3v-3h-3zm-20 0h3v-3h-3zm-21 0h3v-3h-3zm-19.999 0h3v-3h-3zm-20 0h3v-3h-3zm60.999 19h3v-3h-3zm-40.999 0h3v-3h-3zm-20 0h3v-3h-3zm-20 0h3v-3h-3zm-20 0h3v-3h-3zm140.999 18h3v-3h-3zm-20 0h3v-3h-3zm-20 0h3v-3h-3zm-21 0h3v-3h-3zm-19.999 0h3v-3h-3zm-20 0h3v-3h-3zm60.999 19h3v-3h-3zm-21 0h3v-3h-3zm-19.999 0h3v-3h-3zm-20 0h3v-3h-3zm-20 0h3v-3h-3zm-20 0h3v-3h-3z" fill="#e30613" fill-rule="evenodd"/></svg><svg viewBox="0 0 165 155" id="abstract-dots-5" xmlns="http://www.w3.org/2000/svg"><path d="M.758 3.414h3v-3h-3zm20 0h3v-3h-3zm20 0h3v-3h-3zm20 0h3v-3h-3zm19.999 0h3v-3h-3zm20 0h3v-3h-3zm-79.999 19h3v-3h-3zm20 0h3v-3h-3zm20 0h3v-3h-3zm19.999 0h3v-3h-3zm20 0h3v-3h-3zm20 0h3v-3h-3zm-119.999 19h3v-3h-3zm20 0h3v-3h-3zm20 0h3v-3h-3zm20 0h3v-3h-3zm19.999 0h3v-3h-3zm20 0h3v-3h-3zm-59.999 18h3v-3h-3zm39.999 0h3v-3h-3zm20 0h3v-3h-3zm20 0h3v-3h-3zm21 0h3v-3h-3zm-140.999 19h3v-3h-3zm20 0h3v-3h-3zm20 0h3v-3h-3zm20 0h3v-3h-3zm19.999 0h3v-3h-3zm20 0h3v-3h-3zm-59.999 19h3v-3h-3zm20 0h3v-3h-3zm19.999 0h3v-3h-3zm20 0h3v-3h-3zm20 0h3v-3h-3zm21 0h3v-3h-3zm-40 20h3v-3h-3zm20 0h3v-3h-3zm20 0h3v-3h-3zm-20 18h3v-3h-3zm20 0h3v-3h-3zm20 0h3v-3h-3zm-60 19h3v-3h-3zm20 0h3v-3h-3zm20 0h3v-3h-3z" fill="#FEFEFE" fill-rule="evenodd"/></svg><svg viewBox="0 0 165 155" id="abstract-dots-5-red" xmlns="http://www.w3.org/2000/svg"><path d="M.758 3.414h3v-3h-3zm20 0h3v-3h-3zm20 0h3v-3h-3zm20 0h3v-3h-3zm19.999 0h3v-3h-3zm20 0h3v-3h-3zm-79.999 19h3v-3h-3zm20 0h3v-3h-3zm20 0h3v-3h-3zm19.999 0h3v-3h-3zm20 0h3v-3h-3zm20 0h3v-3h-3zm-119.999 19h3v-3h-3zm20 0h3v-3h-3zm20 0h3v-3h-3zm20 0h3v-3h-3zm19.999 0h3v-3h-3zm20 0h3v-3h-3zm-59.999 18h3v-3h-3zm39.999 0h3v-3h-3zm20 0h3v-3h-3zm20 0h3v-3h-3zm21 0h3v-3h-3zm-140.999 19h3v-3h-3zm20 0h3v-3h-3zm20 0h3v-3h-3zm20 0h3v-3h-3zm19.999 0h3v-3h-3zm20 0h3v-3h-3zm-59.999 19h3v-3h-3zm20 0h3v-3h-3zm19.999 0h3v-3h-3zm20 0h3v-3h-3zm20 0h3v-3h-3zm21 0h3v-3h-3zm-40 20h3v-3h-3zm20 0h3v-3h-3zm20 0h3v-3h-3zm-20 18h3v-3h-3zm20 0h3v-3h-3zm20 0h3v-3h-3zm-60 19h3v-3h-3zm20 0h3v-3h-3zm20 0h3v-3h-3z" fill="#e30613" fill-rule="evenodd"/></svg><svg viewBox="0 0 225 97" id="abstract-dots-6" xmlns="http://www.w3.org/2000/svg"><path d="M60.758 3.414h3v-3h-3zm-20 0h3v-3h-3zm-20 0h3v-3h-3zm20 19h3v-3h-3zm-20 0h3v-3h-3zm-20 0h3v-3h-3zm60 19h3v-3h-3zm-20 0h3v-3h-3zm-20 0h3v-3h-3zm200.999-38h3v-3h-3zm-20 0h3v-3h-3zm-20 0h3v-3h-3zm-20 0h3v-3h-3zm-20 0h3v-3h-3zm-20 0h3v-3h-3zm80 19h3v-3h-3zm-20 0h3v-3h-3zm-20 0h3v-3h-3zm-20 0h3v-3h-3zm-20 0h3v-3h-3zm-20 0h3v-3h-3zm120 19h3v-3h-3zm-20 0h3v-3h-3zm-20 0h3v-3h-3zm-20 0h3v-3h-3zm-20 0h3v-3h-3zm-20 0h3v-3h-3zm60 18h3v-3h-3zm-40 0h3v-3h-3zm-20 0h3v-3h-3zm-20 0h3v-3h-3zm-21 0h3v-3h-3zm141 19h3v-3h-3zm-20 0h3v-3h-3zm-20 0h3v-3h-3zm-20 0h3v-3h-3zm-20 0h3v-3h-3zm-20 0h3v-3h-3zm60 18h3v-3h-3zm-20 0h3v-3h-3zm-20 0h3v-3h-3zm-20 0h3v-3h-3zm-20 0h3v-3h-3zm-21 0h3v-3h-3z" fill="#FEFEFE" fill-rule="evenodd"/></svg><svg viewBox="0 0 225 97" id="abstract-dots-6-red" xmlns="http://www.w3.org/2000/svg"><path d="M60.758 3.414h3v-3h-3zm-20 0h3v-3h-3zm-20 0h3v-3h-3zm20 19h3v-3h-3zm-20 0h3v-3h-3zm-20 0h3v-3h-3zm60 19h3v-3h-3zm-20 0h3v-3h-3zm-20 0h3v-3h-3zm200.999-38h3v-3h-3zm-20 0h3v-3h-3zm-20 0h3v-3h-3zm-20 0h3v-3h-3zm-20 0h3v-3h-3zm-20 0h3v-3h-3zm80 19h3v-3h-3zm-20 0h3v-3h-3zm-20 0h3v-3h-3zm-20 0h3v-3h-3zm-20 0h3v-3h-3zm-20 0h3v-3h-3zm120 19h3v-3h-3zm-20 0h3v-3h-3zm-20 0h3v-3h-3zm-20 0h3v-3h-3zm-20 0h3v-3h-3zm-20 0h3v-3h-3zm60 18h3v-3h-3zm-40 0h3v-3h-3zm-20 0h3v-3h-3zm-20 0h3v-3h-3zm-21 0h3v-3h-3zm141 19h3v-3h-3zm-20 0h3v-3h-3zm-20 0h3v-3h-3zm-20 0h3v-3h-3zm-20 0h3v-3h-3zm-20 0h3v-3h-3zm60 18h3v-3h-3zm-20 0h3v-3h-3zm-20 0h3v-3h-3zm-20 0h3v-3h-3zm-20 0h3v-3h-3zm-21 0h3v-3h-3z" fill="#e30613" fill-rule="evenodd"/></svg><svg viewBox="0 0 225 210" id="abstract-dots-7" xmlns="http://www.w3.org/2000/svg"><path d="M141.757 115.414h3v-3h-3zm-20 0h3v-3h-3zm-20 0h3v-3h-3zm-21 0h3v-3h-3zm-19.999 0h3v-3h-3zm-20 0h3v-3h-3zm80.999 19h3v-3h-3zm-20 0h3v-3h-3zm-21 0h3v-3h-3zm-19.999 0h3v-3h-3zm-20 0h3v-3h-3zm-20 0h3v-3h-3zm120.999 19h3v-3h-3zm-20 0h3v-3h-3zm-20 0h3v-3h-3zm-21 0h3v-3h-3zm-19.999 0h3v-3h-3zm-20 0h3v-3h-3zm60.999 18h3v-3h-3zm-40.999 0h3v-3h-3zm-20 0h3v-3h-3zm-20 0h3v-3h-3zm-20 0h3v-3h-3zm140.999 19h3v-3h-3zm-20 0h3v-3h-3zm-20 0h3v-3h-3zm-21 0h3v-3h-3zm-19.999 0h3v-3h-3zm-20 0h3v-3h-3zm60.999 19h3v-3h-3zm-21 0h3v-3h-3zm-19.999 0h3v-3h-3zm-20 0h3v-3h-3zm-20 0h3v-3h-3zm-20 0h3v-3h-3zm220.999-206h3v-3h-3zm-20 0h3v-3h-3zm-20 0h3v-3h-3zm-20 0h3v-3h-3zm-20 0h3v-3h-3zm-20 0h3v-3h-3zm80 19h3v-3h-3zm-20 0h3v-3h-3zm-20 0h3v-3h-3zm-20 0h3v-3h-3zm-20 0h3v-3h-3zm-20 0h3v-3h-3zm120 19h3v-3h-3zm-20 0h3v-3h-3zm-20 0h3v-3h-3zm-20 0h3v-3h-3zm-20 0h3v-3h-3zm-20 0h3v-3h-3zm60 18h3v-3h-3zm-40 0h3v-3h-3zm-20 0h3v-3h-3zm-20 0h3v-3h-3zm-20 0h3v-3h-3zm140 19h3v-3h-3zm-20 0h3v-3h-3zm-20 0h3v-3h-3zm-20 0h3v-3h-3zm-20 0h3v-3h-3zm-20 0h3v-3h-3zm60 19h3v-3h-3zm-20 0h3v-3h-3zm-20 0h3v-3h-3zm-20 0h3v-3h-3zm-20 0h3v-3h-3zm-20 0h3v-3h-3z" fill="#FEFEFE" fill-rule="evenodd"/></svg><svg viewBox="0 0 225 210" id="abstract-dots-7-red" xmlns="http://www.w3.org/2000/svg"><path d="M141.757 115.414h3v-3h-3zm-20 0h3v-3h-3zm-20 0h3v-3h-3zm-21 0h3v-3h-3zm-19.999 0h3v-3h-3zm-20 0h3v-3h-3zm80.999 19h3v-3h-3zm-20 0h3v-3h-3zm-21 0h3v-3h-3zm-19.999 0h3v-3h-3zm-20 0h3v-3h-3zm-20 0h3v-3h-3zm120.999 19h3v-3h-3zm-20 0h3v-3h-3zm-20 0h3v-3h-3zm-21 0h3v-3h-3zm-19.999 0h3v-3h-3zm-20 0h3v-3h-3zm60.999 18h3v-3h-3zm-40.999 0h3v-3h-3zm-20 0h3v-3h-3zm-20 0h3v-3h-3zm-20 0h3v-3h-3zm140.999 19h3v-3h-3zm-20 0h3v-3h-3zm-20 0h3v-3h-3zm-21 0h3v-3h-3zm-19.999 0h3v-3h-3zm-20 0h3v-3h-3zm60.999 19h3v-3h-3zm-21 0h3v-3h-3zm-19.999 0h3v-3h-3zm-20 0h3v-3h-3zm-20 0h3v-3h-3zm-20 0h3v-3h-3zm220.999-206h3v-3h-3zm-20 0h3v-3h-3zm-20 0h3v-3h-3zm-20 0h3v-3h-3zm-20 0h3v-3h-3zm-20 0h3v-3h-3zm80 19h3v-3h-3zm-20 0h3v-3h-3zm-20 0h3v-3h-3zm-20 0h3v-3h-3zm-20 0h3v-3h-3zm-20 0h3v-3h-3zm120 19h3v-3h-3zm-20 0h3v-3h-3zm-20 0h3v-3h-3zm-20 0h3v-3h-3zm-20 0h3v-3h-3zm-20 0h3v-3h-3zm60 18h3v-3h-3zm-40 0h3v-3h-3zm-20 0h3v-3h-3zm-20 0h3v-3h-3zm-20 0h3v-3h-3zm140 19h3v-3h-3zm-20 0h3v-3h-3zm-20 0h3v-3h-3zm-20 0h3v-3h-3zm-20 0h3v-3h-3zm-20 0h3v-3h-3zm60 19h3v-3h-3zm-20 0h3v-3h-3zm-20 0h3v-3h-3zm-20 0h3v-3h-3zm-20 0h3v-3h-3zm-20 0h3v-3h-3z" fill="#e30613" fill-rule="evenodd"/></svg><svg viewBox="0 0 381 199" id="abstract-dots-8" xmlns="http://www.w3.org/2000/svg"><path d="M219.757 47.414h3v-3h-3zm20 0h3v-3h-3zm20 0h3v-3h-3zm20 0h3v-3h-3zm20 0h3v-3h-3zm20 0h3v-3h-3zm-80 19h3v-3h-3zm20 0h3v-3h-3zm20 0h3v-3h-3zm20 0h3v-3h-3zm20 0h3v-3h-3zm20 0h3v-3h-3zm-120 18h3v-3h-3zm20 0h3v-3h-3zm20 0h3v-3h-3zm20 0h3v-3h-3zm20 0h3v-3h-3zm20 0h3v-3h-3zm-60 19h3v-3h-3zm40 0h3v-3h-3zm20 0h3v-3h-3zm20 0h3v-3h-3zm20 0h3v-3h-3zm-140 18h3v-3h-3zm20 0h3v-3h-3zm20 0h3v-3h-3zm20 0h3v-3h-3zm20 0h3v-3h-3zm20 0h3v-3h-3zm-60 19h3v-3h-3zm20 0h3v-3h-3zm20 0h3v-3h-3zm20 0h3v-3h-3zm20 0h3v-3h-3zm20 0h3v-3h-3zm18-137h3v-3h-3zm-20 0h3v-3h-3zm-20 0h3v-3h-3zm20 19h3v-3h-3zm-20 0h3v-3h-3zm-20 0h3v-3h-3zm60 19h3v-3h-3zm-20 0h3v-3h-3zm-20 0h3v-3h-3zm-276.999 120h3v-3h-3zm-20 0h3v-3h-3zm-20 0h3v-3h-3zm20 18h3v-3h-3zm-20 0h3v-3h-3zm-20 0h3v-3h-3zm60 19h3v-3h-3zm-20 0h3v-3h-3zm-20 0h3v-3h-3zm198.999-133h3v-3h-3zm-19 0h3v-3h-3zm-20 0h3v-3h-3zm-20 0h3v-3h-3zm-20 0h3v-3h-3zm-20 0h3v-3h-3zm80 19h3v-3h-3zm-20 0h3v-3h-3zm-20 0h3v-3h-3zm-20 0h3v-3h-3zm-20 0h3v-3h-3zm-20 0h3v-3h-3zm119 18h3v-3h-3zm-19 0h3v-3h-3zm-20 0h3v-3h-3zm-20 0h3v-3h-3zm-20 0h3v-3h-3zm-20 0h3v-3h-3zm60 19h3v-3h-3zm-40 0h3v-3h-3zm-20 0h3v-3h-3zm-20 0h3v-3h-3zm-20 0h3v-3h-3zm139 19h3v-3h-3zm-19 0h3v-3h-3zm-20 0h3v-3h-3zm-20 0h3v-3h-3zm-20 0h3v-3h-3zm-20 0h3v-3h-3zm60 18h3v-3h-3zm-20 0h3v-3h-3zm-20 0h3v-3h-3zm-20 0h3v-3h-3zm-20 0h3v-3h-3zm-20 0h3v-3h-3z" fill="#FEFEFE" fill-rule="evenodd"/></svg><svg viewBox="0 0 381 199" id="abstract-dots-8-red" xmlns="http://www.w3.org/2000/svg"><path d="M219.757 47.414h3v-3h-3zm20 0h3v-3h-3zm20 0h3v-3h-3zm20 0h3v-3h-3zm20 0h3v-3h-3zm20 0h3v-3h-3zm-80 19h3v-3h-3zm20 0h3v-3h-3zm20 0h3v-3h-3zm20 0h3v-3h-3zm20 0h3v-3h-3zm20 0h3v-3h-3zm-120 18h3v-3h-3zm20 0h3v-3h-3zm20 0h3v-3h-3zm20 0h3v-3h-3zm20 0h3v-3h-3zm20 0h3v-3h-3zm-60 19h3v-3h-3zm40 0h3v-3h-3zm20 0h3v-3h-3zm20 0h3v-3h-3zm20 0h3v-3h-3zm-140 18h3v-3h-3zm20 0h3v-3h-3zm20 0h3v-3h-3zm20 0h3v-3h-3zm20 0h3v-3h-3zm20 0h3v-3h-3zm-60 19h3v-3h-3zm20 0h3v-3h-3zm20 0h3v-3h-3zm20 0h3v-3h-3zm20 0h3v-3h-3zm20 0h3v-3h-3zm18-137h3v-3h-3zm-20 0h3v-3h-3zm-20 0h3v-3h-3zm20 19h3v-3h-3zm-20 0h3v-3h-3zm-20 0h3v-3h-3zm60 19h3v-3h-3zm-20 0h3v-3h-3zm-20 0h3v-3h-3zm-276.999 120h3v-3h-3zm-20 0h3v-3h-3zm-20 0h3v-3h-3zm20 18h3v-3h-3zm-20 0h3v-3h-3zm-20 0h3v-3h-3zm60 19h3v-3h-3zm-20 0h3v-3h-3zm-20 0h3v-3h-3zm198.999-133h3v-3h-3zm-19 0h3v-3h-3zm-20 0h3v-3h-3zm-20 0h3v-3h-3zm-20 0h3v-3h-3zm-20 0h3v-3h-3zm80 19h3v-3h-3zm-20 0h3v-3h-3zm-20 0h3v-3h-3zm-20 0h3v-3h-3zm-20 0h3v-3h-3zm-20 0h3v-3h-3zm119 18h3v-3h-3zm-19 0h3v-3h-3zm-20 0h3v-3h-3zm-20 0h3v-3h-3zm-20 0h3v-3h-3zm-20 0h3v-3h-3zm60 19h3v-3h-3zm-40 0h3v-3h-3zm-20 0h3v-3h-3zm-20 0h3v-3h-3zm-20 0h3v-3h-3zm139 19h3v-3h-3zm-19 0h3v-3h-3zm-20 0h3v-3h-3zm-20 0h3v-3h-3zm-20 0h3v-3h-3zm-20 0h3v-3h-3zm60 18h3v-3h-3zm-20 0h3v-3h-3zm-20 0h3v-3h-3zm-20 0h3v-3h-3zm-20 0h3v-3h-3zm-20 0h3v-3h-3z" fill="#e30613" fill-rule="evenodd"/></svg><svg viewBox="0 0 63 41" id="abstract-dots-9" xmlns="http://www.w3.org/2000/svg"><path d="M59.758 3.414h3v-3h-3zm-19 0h3v-3h-3zm-20 0h3v-3h-3zm20 19h3v-3h-3zm-20 0h3v-3h-3zm-20 0h3v-3h-3zm59 18h3v-3h-3zm-19 0h3v-3h-3zm-20 0h3v-3h-3z" fill="#FEFEFE" fill-rule="evenodd"/></svg><svg viewBox="0 0 63 41" id="abstract-dots-9-red" xmlns="http://www.w3.org/2000/svg"><path d="M59.758 3.414h3v-3h-3zm-19 0h3v-3h-3zm-20 0h3v-3h-3zm20 19h3v-3h-3zm-20 0h3v-3h-3zm-20 0h3v-3h-3zm59 18h3v-3h-3zm-19 0h3v-3h-3zm-20 0h3v-3h-3z" fill="#e30613" fill-rule="evenodd"/></svg><svg viewBox="0 0 100 100" id="angular" xmlns="http://www.w3.org/2000/svg"><g fill="#FFF" fill-rule="evenodd"><path d="M44 53h14l-7-17z"/><path d="M50.5 10L12 23.28l5.873 49.24L50.5 90l32.628-17.48L89 23.28 50.5 10zm0 8.84l24.026 52.2h-8.973l-4.838-11.68H40.286l-4.839 11.68h-8.973L50.5 18.84z"/></g></svg><svg viewBox="0 0 100 100" id="ar-core" xmlns="http://www.w3.org/2000/svg"><defs><path id="ata" d="M0 .72h36.698v34.013H0z"/><path id="atc" d="M.706.72h36.698v34.016H.706z"/><path id="ate" d="M0 .888h36.698V35H0z"/><path id="atg" d="M.706.885h36.698V35H.706z"/><path id="ati" d="M.22 16.66c0 9.1 7.378 16.478 16.478 16.478 9.1 0 16.478-7.378 16.478-16.478 0-9.1-7.378-16.478-16.478-16.478C7.598.182.22 7.56.22 16.66z"/></defs><g fill="none" fill-rule="evenodd"><g transform="translate(13 7.28)"><mask id="atb" fill="#fff"><use xlink:href="#ata"/></mask><path fill="#FFF" d="M36.698 26.183V.72L0 21.872v.035l22.251 12.826c2.802-5.096 8.22-8.55 14.447-8.55" mask="url(#atb)" opacity=".94"/></g><g transform="translate(49 7.28)"><mask id="atd" fill="#fff"><use xlink:href="#atc"/></mask><path fill="#FFF" d="M.706.72v25.463c6.224.003 11.64 3.458 14.44 8.553l22.258-12.83v-.034L.706.72z" mask="url(#atd)" opacity=".44"/></g><g transform="translate(13 57.28)"><mask id="atf" fill="#fff"><use xlink:href="#ate"/></mask><path fill="#FFF" d="M22.424.888L0 13.813v.035L36.698 35V9.138c-6.103 0-11.426-3.32-14.274-8.25" mask="url(#atf)" opacity=".44"/></g><path fill="#FFF" d="M33.22 49.94c0-2.873.738-5.574 2.031-7.927l-22.25-12.826v41.906l22.423-12.924a16.396 16.396 0 0 1-2.204-8.228" opacity=".57"/><g transform="translate(49 57.28)"><mask id="ath" fill="#fff"><use xlink:href="#atg"/></mask><path fill="#FFF" d="M.706 9.138V35l36.698-21.152v-.035L14.974.885C12.128 5.815 6.807 9.135.706 9.138" mask="url(#ath)" opacity=".94"/></g><path fill="#FFF" d="M49.698 33.463V49.94l-.346.199.346.2v16.078h.008V50.34l.346-.2-.346-.2V33.464z"/><g fill="#FFF"><path d="M35.252 42.013a16.411 16.411 0 0 0-2.031 7.928c0 2.998.804 5.805 2.203 8.227 2.848 4.93 8.172 8.25 14.275 8.25V50.34l-.346-.2.346-.2V33.464c-6.227 0-11.645 3.454-14.447 8.55m28.895.003c-2.8-5.096-8.216-8.551-14.44-8.554V49.94l.346.199-.346.2v16.078c6.1-.003 11.42-3.323 14.268-8.253a16.392 16.392 0 0 0 2.2-8.224c0-2.873-.736-5.572-2.028-7.924"/><path d="M66.176 49.94c0-9.1-7.377-16.477-16.478-16.477-9.1 0-16.478 7.377-16.478 16.478 0 9.1 7.378 16.478 16.478 16.478 9.1 0 16.478-7.377 16.478-16.478"/></g><g transform="translate(33 33.28)"><mask id="atj" fill="#fff"><use xlink:href="#ati"/></mask><path fill="#FFF" d="M16.72-25.255v-.025l-.021.012-.022-.012v.025L-19.978-4.128v.034L14.51 15.61a4.41 4.41 0 0 0 4.377 0L53.374-4.094v-.034L16.72-25.255z" mask="url(#atj)"/></g></g></svg><svg viewBox="0 0 11 27" id="arrow-down" xmlns="http://www.w3.org/2000/svg"><path fill="#FFF" d="M4.237.959V23.61l-2.8-2.8-1.268 1.267 4.964 4.964 4.965-4.964L8.83 20.81l-2.8 2.8V.96z"/></svg><svg viewBox="0 0 50 50" id="automotive" xmlns="http://www.w3.org/2000/svg"><defs><path id="ava" d="M0 .176h35.166V24H0z"/><path id="avc" d="M0 24h35.166V.176H0z"/></defs><g fill="none" fill-rule="evenodd"><path fill="#FFF" d="M7.7 25.712h5.539v-1H7.701zm6.54-4.404h20.486v-1H14.24zm21.688 4.404h3.604v-1h-3.604zm-4.872 5.606H18.11v-1h12.65l1.84-3.393-1.059-1.412H17.626l-1.059 1.412 1.105 2.037-.879.476-1.258-2.318.04-.539 1.401-1.868.4-.2H31.79l.4.2 1.402 1.868.04.539-2.136 3.937z"/><g transform="translate(7 13.324)"><mask id="avb" fill="#fff"><use xlink:href="#ava"/></mask><path fill="#FFF" d="M5.638 19.864h23.89l.5.5v1.604c0 .57.463 1.032 1.032 1.032h2.075c.569 0 1.032-.463 1.032-1.032V11.275c0-.295-.111-.575-.312-.79l-2.49-2.659c-.14-.17-2.918-3.59-4.076-5.68a1.021 1.021 0 0 0-.893-.523l-3.254-.24a75.647 75.647 0 0 0-11.47.023l-2.745.215c-.413.002-.757.206-.937.534l-.037.057-4.152 5.614-2.489 2.66a1.15 1.15 0 0 0-.312.789v10.693C1 22.538 1.463 23 2.032 23h2.075c.568 0 1.031-.463 1.031-1.032v-1.604l.5-.5zM33.135 24H31.06a2.034 2.034 0 0 1-2.032-2.032v-1.104H6.138v1.104c0 1.12-.911 2.032-2.031 2.032H2.032A2.034 2.034 0 0 1 0 21.968V11.275c0-.55.207-1.073.582-1.473l2.47-2.638 4.078-5.52A2.023 2.023 0 0 1 8.888.623l2.707-.214A76.48 76.48 0 0 1 23.216.385l3.217.24h.003c.698 0 1.373.397 1.728 1.037 1.115 2.012 3.926 5.472 3.954 5.507l2.467 2.633c.375.4.582.924.582 1.473v10.693c0 1.12-.912 2.032-2.032 2.032z" mask="url(#avb)"/><mask id="avd" fill="#fff"><use xlink:href="#avc"/></mask><path fill="#FFF" d="M12.312 14.925h10.543v-1H12.312z" mask="url(#avd)"/></g></g></svg><svg viewBox="0 0 50 50" id="aviation" xmlns="http://www.w3.org/2000/svg"><defs><path id="awa" d="M.07.395h20.992v16.19H.07z"/><path id="awc" d="M0 24.605h40.063V.5H0z"/></defs><g fill="none" fill-rule="evenodd" transform="translate(5 13)"><g transform="translate(19 .105)"><mask id="awb" fill="#fff"><use xlink:href="#awa"/></mask><path fill="#FFF" d="M18.232 16.585h-4.295v-1h4.295c1.613 0 1.83-.668 1.83-1.322 0-1.06-2.128-2.635-3.246-2.635h-6.499l-.416-.223-6.648-10.01H1.151l1.505 9.253-.987.16L.07.976l.494-.58h2.959l.416.223 6.647 10.01h6.23c1.64 0 4.248 1.985 4.248 3.635 0 1.06-.491 2.322-2.83 2.322" mask="url(#awb)"/></g><path fill="#FFF" d="M30.481 16.69H12.787a2.689 2.689 0 0 1-2.527-1.78L7.58 7.403l.47-.668h1.76l.39.188 2.728 3.41h6.377v1h-6.618l-.39-.188-2.728-3.41h-.81l2.443 6.838a1.686 1.686 0 0 0 1.585 1.116H30.48v1zm-11.717 7.915h-2.958l-.431-.754 3.438-5.836.861.508-2.994 5.082h1.893l6.574-5.869.666.746-6.716 5.996z"/><mask id="awd" fill="#fff"><use xlink:href="#awc"/></mask><path fill="#FFF" d="M8.476 1.5h8.614v-1H8.476zm4.375 2.461h4.239v-1h-4.239zM0 7.79h6.016v-1H0zm2.871 3.119h3.145v-1H2.87zm13.536 3.017h1.501v-1h-1.502zm2.921 0h1.501v-1h-1.502zm2.92 0h1.502v-1h-1.502zm2.922 0h1.502v-1H25.17zm2.921 0h1.502v-1H28.09zm2.921 0h1.502v-1h-1.502zm2.922 0h1.501v-1h-1.502z" mask="url(#awd)"/></g></svg><svg viewBox="0 0 50 50" id="banking" xmlns="http://www.w3.org/2000/svg"><defs><path id="axa" d="M.366.375h17.02V4.5H.366z"/><path id="axc" d="M.366.293h17.02v4.125H.366z"/><path id="axe" d="M.366.212h17.02v4.125H.366z"/><path id="axg" d="M.366.232h17.02v5.536H.366z"/><path id="axi" d="M0 37.709h35.886V0H0z"/></defs><g fill="none" fill-rule="evenodd" transform="translate(7 6)"><g transform="translate(18.5 33.209)"><mask id="axb" fill="#fff"><use xlink:href="#axa"/></mask><path fill="#FFF" d="M8.876 4.5c-2.427 0-4.852-.314-7.212-.943a1.752 1.752 0 0 1-1.298-1.69V.375h1v1.492c0 .338.228.636.556.723a27.025 27.025 0 0 0 13.907 0 .749.749 0 0 0 .557-.723V.375h1v1.492c0 .791-.534 1.486-1.299 1.69a28 28 0 0 1-7.211.943" mask="url(#axb)"/></g><g transform="translate(18.5 28.709)"><mask id="axd" fill="#fff"><use xlink:href="#axc"/></mask><path fill="#FFF" d="M8.876 4.418c-2.427 0-4.852-.314-7.212-.943a1.752 1.752 0 0 1-1.298-1.69V.293h1v1.492a.75.75 0 0 0 .556.723 27.025 27.025 0 0 0 13.907 0 .749.749 0 0 0 .557-.723V.293h1v1.492c0 .791-.534 1.486-1.299 1.69a28 28 0 0 1-7.211.943" mask="url(#axd)"/></g><g transform="translate(18.5 24.209)"><mask id="axf" fill="#fff"><use xlink:href="#axe"/></mask><path fill="#FFF" d="M8.876 4.337c-2.427 0-4.852-.315-7.212-.944a1.752 1.752 0 0 1-1.298-1.69V.212h1v1.491a.75.75 0 0 0 .556.724 27.025 27.025 0 0 0 13.907 0 .749.749 0 0 0 .557-.724V.212h1v1.491c0 .791-.534 1.486-1.299 1.69a28 28 0 0 1-7.211.944" mask="url(#axf)"/></g><g transform="translate(18.5 18.709)"><mask id="axh" fill="#fff"><use xlink:href="#axg"/></mask><path fill="#FFF" d="M8.876 5.768C4.647 5.768.366 4.818.366 3c0-1.817 4.281-2.768 8.51-2.768 1.357 0 2.701.096 3.889.278l-.152.989a25.106 25.106 0 0 0-3.737-.267C4.017 1.232 1.366 2.4 1.366 3c0 .6 2.651 1.768 7.51 1.768S16.386 3.6 16.386 3c0-.157-.306-.559-1.466-.96l.328-.946c1.418.492 2.138 1.133 2.138 1.906 0 1.817-4.281 2.768-8.51 2.768" mask="url(#axh)"/></g><path fill="#FFF" d="M10.73 20.586a5.53 5.53 0 0 1-5.524-5.524 5.53 5.53 0 0 1 5.524-5.524c1.31 0 2.58.467 3.577 1.315l-.648.762a4.524 4.524 0 1 0 0 6.895l.648.762a5.527 5.527 0 0 1-3.577 1.314"/><mask id="axj" fill="#fff"><use xlink:href="#axi"/></mask><path fill="#FFF" d="M4.463 14.522h5.657v-1H4.463zm0 2.08h5.657v-1H4.463z" mask="url(#axj)"/><path fill="#FFF" d="M17.217 31.28H1.007A1.008 1.008 0 0 1 0 30.273V1.007C0 .452.452 0 1.007 0h17.377c.555 0 1.007.452 1.007 1.007v17.94h-1V1.007L1.007 1 1 30.273l16.217.007v1z" mask="url(#axj)"/><path fill="#FFF" d="M7.873 2.834h3.645v-1H7.873zm17.793 12.444l-.707-.707 2.849-2.85-1.857-1.855-.085-.595L30.421.98l.877.481-4.374 7.963 1.944 1.944v.707z" mask="url(#axj)"/><path fill="#FFF" d="M31.73 6.042a.975.975 0 0 0-.974.974v1.021a.975.975 0 0 0 1.949 0v-1.02a.975.975 0 0 0-.974-.975m0 3.97a1.977 1.977 0 0 1-1.975-1.975v-1.02c0-1.09.886-1.975 1.975-1.975 1.088 0 1.974.886 1.974 1.974v1.021a1.977 1.977 0 0 1-1.974 1.975M25.535 1.72a.975.975 0 0 0-.974.975v1.02c0 .538.437.975.974.975a.976.976 0 0 0 .974-.974V2.695a.975.975 0 0 0-.974-.975m0 3.97a1.977 1.977 0 0 1-1.974-1.974V2.695c0-1.09.885-1.975 1.974-1.975s1.974.886 1.974 1.975v1.02a1.977 1.977 0 0 1-1.974 1.975m1.038 11.312h-2.777l-.5-.5v-2.826h1v2.326h2.277zM17.225 3.945l-.68-.467V2.334l.515-.5.5.5v1.139zM9.891 26.292a.626.626 0 1 0 .002 1.251.626.626 0 0 0-.002-1.251m0 2.25a1.627 1.627 0 0 1-1.625-1.625c0-.896.73-1.625 1.625-1.625.896 0 1.625.729 1.625 1.625s-.729 1.625-1.625 1.625" mask="url(#axj)"/></g></svg><svg viewBox="0 0 212 104" id="chevron-red" xmlns="http://www.w3.org/2000/svg"><defs><path id="ayb" d="M350 296l13.312 47.999L350 392h190.702L555 343.602 540.702 296z"/><filter id="aya" width="105.9%" height="112.5%" x="-3%" y="-4.2%" filterUnits="objectBoundingBox"><feMorphology in="SourceAlpha" operator="dilate" radius=".5" result="shadowSpreadOuter1"/><feOffset dy="2" in="shadowSpreadOuter1" result="shadowOffsetOuter1"/><feGaussianBlur in="shadowOffsetOuter1" result="shadowBlurOuter1" stdDeviation="1.5"/><feComposite in="shadowBlurOuter1" in2="SourceAlpha" operator="out" result="shadowBlurOuter1"/><feColorMatrix in="shadowBlurOuter1" values="0 0 0 0 0.933084239 0 0 0 0 0.899462625 0 0 0 0 0.899462625 0 0 0 1 0"/></filter></defs><g fill="none" fill-rule="evenodd" transform="translate(-346 -294)"><use fill="#000" filter="url(#aya)" xlink:href="#ayb"/><use fill="#e30613" stroke="#F1EAEA" xlink:href="#ayb"/></g></svg><svg viewBox="0 0 212 104" id="chevron-white" xmlns="http://www.w3.org/2000/svg"><defs><path id="azb" d="M350 296l13.312 47.999L350 392h190.702L555 343.602 540.702 296z"/><filter id="aza" width="105.9%" height="112.5%" x="-3%" y="-4.2%" filterUnits="objectBoundingBox"><feMorphology in="SourceAlpha" operator="dilate" radius=".5" result="shadowSpreadOuter1"/><feOffset dy="2" in="shadowSpreadOuter1" result="shadowOffsetOuter1"/><feGaussianBlur in="shadowOffsetOuter1" result="shadowBlurOuter1" stdDeviation="1.5"/><feComposite in="shadowBlurOuter1" in2="SourceAlpha" operator="out" result="shadowBlurOuter1"/><feColorMatrix in="shadowBlurOuter1" values="0 0 0 0 0.933084239 0 0 0 0 0.899462625 0 0 0 0 0.899462625 0 0 0 1 0"/></filter></defs><g fill="none" fill-rule="evenodd" transform="translate(-346 -294)"><use fill="#000" filter="url(#aza)" xlink:href="#azb"/><use fill="#FFF" stroke="#F1EAEA" xlink:href="#azb"/></g></svg><svg viewBox="0 0 32 32" id="close-icon" xmlns="http://www.w3.org/2000/svg"><path d="M17.459 16.014l8.239-8.194a.992.992 0 0 0 0-1.414 1.016 1.016 0 0 0-1.428 0l-8.232 8.187L7.73 6.284a1.009 1.009 0 0 0-1.428 0 1.015 1.015 0 0 0 0 1.432l8.302 8.303-8.332 8.286a.994.994 0 0 0 0 1.414 1.016 1.016 0 0 0 1.428 0l8.325-8.279 8.275 8.276a1.009 1.009 0 0 0 1.428 0 1.015 1.015 0 0 0 0-1.432l-8.269-8.27z" fill="#121313"/></svg><svg viewBox="0 0 100 100" id="dot-net" xmlns="http://www.w3.org/2000/svg"><defs><path id="bba" d="M0 .505h85.496V86H0z"/></defs><g fill="none" fill-rule="evenodd"><path fill="#FFF" d="M45.92 66.124c-1.779 0-2.549 1.642-2.549 3.216 0 1.812 1.044 3.181 2.515 3.181 1.436 0 2.514-1.35 2.514-3.215 0-1.404-.7-3.182-2.48-3.182"/><g transform="translate(7 6.496)"><mask id="bbb" fill="#fff"><use xlink:href="#bba"/></mask><path fill="#FFF" d="M66.359 24.712v21.506h-3.154V24.712h-7.348V22.06h17.885v2.652h-7.383zM56.908 63.1h-5.815c.034 2.036 1.334 2.874 2.839 2.874 1.078 0 1.728-.19 2.292-.428l.257 1.078c-.53.239-1.437.513-2.754.513-2.55 0-4.071-1.676-4.071-4.174 0-2.497 1.47-4.464 3.883-4.464 2.702 0 3.42 2.377 3.42 3.9 0 .308-.034.547-.051.7zm-7.985-3.13a2.275 2.275 0 0 0-.513-.051c-1.061 0-1.813.804-2.02 1.933a4.25 4.25 0 0 0-.067.7v4.414h-1.488V61.27c0-.975-.018-1.813-.07-2.583h1.319l.05 1.625h.069c.376-1.112 1.283-1.813 2.292-1.813.17 0 .29.017.428.05v1.42zm-10.106 7.184c-2.24 0-3.968-1.642-3.968-4.26 0-2.77 1.813-4.395 4.106-4.395 2.377 0 3.985 1.728 3.985 4.259 0 3.06-2.121 4.396-4.123 4.396zM31.09 65.89c.907 0 1.83-.19 2.43-.48l.307 1.18c-.547.274-1.642.548-3.044.548-3.25 0-5.696-2.053-5.696-5.833 0-3.61 2.446-6.055 6.02-6.055 1.438 0 2.344.308 2.737.513l-.36 1.215c-.563-.274-1.367-.48-2.325-.48-2.703 0-4.5 1.729-4.5 4.756 0 2.822 1.626 4.636 4.43 4.636zM19.77 35.896v10.322h-2.94V22.06h3.406l7.742 12.222c1.793 2.83 3.19 5.376 4.337 7.85l.072-.036c-.287-3.226-.36-6.165-.36-9.93V22.06h2.94v24.158h-3.153L24.143 33.96c-1.684-2.688-3.298-5.448-4.516-8.065l-.108.036c.179 3.047.25 5.95.25 9.965zm-9.102 10.716c-1.255 0-2.115-.967-2.115-2.258 0-1.327.896-2.258 2.15-2.258 1.255 0 2.115.93 2.115 2.258 0 1.29-.824 2.258-2.15 2.258zM40.412 22.06h13.047v2.616h-9.93v7.635h9.392v2.58H43.53v8.71h10.466v2.617H40.412V22.06zM42.748.505C19.138.505 0 19.644 0 43.253 0 66.86 19.139 86 42.748 86c23.609 0 42.748-19.14 42.748-42.747 0-23.61-19.14-42.748-42.748-42.748z" mask="url(#bbb)"/></g><path fill="#FFF" d="M60.419 66.073c-1.522 0-2.189 1.403-2.309 2.446h4.396c.017-.958-.394-2.446-2.087-2.446"/></g></svg><svg viewBox="0 0 7 18" id="dropdown-arrow-red" xmlns="http://www.w3.org/2000/svg"><path fill="none" stroke="#e30613" stroke-width="2" d="M1.154 17.5l4.745-8.212L1.154.5"/></svg><svg viewBox="0 0 7 18" id="dropdown-arrow-white" xmlns="http://www.w3.org/2000/svg"><path fill="none" stroke="#FFF" stroke-width="2" d="M1.154 17.5l4.745-8.212L1.154.5"/></svg><svg viewBox="0 0 50 50" id="electricity" xmlns="http://www.w3.org/2000/svg"><defs><path id="bea" d="M.425.25h19.796V30H.425z"/></defs><g fill="none" fill-rule="evenodd"><path fill="#FFF" d="M24.273 9l-.465.314-6.4 16 .465.686h6.495v-1h-5.757l6-15h7.014l-2.695 7.102.934.356 2.952-7.78L32.35 9z"/><path fill="#FFF" d="M28.35 19.542v1h5.438L19.15 40.416h-.136l4.802-12.157-.93-.367-5.073 12.841.465.684h1.125l.404-.204L35.18 20.338l-.402-.796z"/><g transform="translate(21 11.61)"><mask id="beb" fill="#fff"><use xlink:href="#bea"/></mask><path fill="#FFF" d="M4.11 30c-1.243 0-2.484-.142-3.685-.424l.228-.973A15.21 15.21 0 0 0 4.11 29c8.332 0 15.11-6.779 15.11-15.111a15.046 15.046 0 0 0-7.064-12.793L12.69.25c4.716 2.973 7.532 8.071 7.532 13.639C20.222 22.773 12.995 30 4.11 30" mask="url(#beb)"/></g><path fill="#FFF" d="M16.103 38.86A16.103 16.103 0 0 1 9 25.5a16.1 16.1 0 0 1 5.619-12.226l.652.758A15.102 15.102 0 0 0 10 25.5c0 5.028 2.49 9.712 6.663 12.53l-.56.83zm1.911-26.704l-.47-.883a15.981 15.981 0 0 1 4.32-1.556l.201.98c-1.412.288-2.775.78-4.051 1.459m8.685 3.458l-.927-.375.375-.927.927.376zm-.95 2.345l-.927-.376.38-.937.927.375zm-.946 2.333l-.927-.376.376-.927.927.376z"/><path fill="#FFF" d="M17.932 33.914a11.187 11.187 0 0 1-3.95-8.537c0-3.726 1.846-7.198 4.938-9.287l.56.829a10.196 10.196 0 0 0-4.497 8.458c0 2.998 1.31 5.832 3.597 7.776l-.648.761zm14.484.014l-.646-.763a10.187 10.187 0 0 0 3.613-7.788c0-.87-.11-1.735-.327-2.569l.969-.25c.237.915.358 1.864.358 2.819 0 3.3-1.446 6.416-3.966 8.55m-6.395 2.619l-.074-.997a10.118 10.118 0 0 0 3.603-.952l.429.903a11.111 11.111 0 0 1-3.958 1.046"/></g></svg><svg viewBox="0 0 100 100" id="flutter" xmlns="http://www.w3.org/2000/svg"><g fill="#FFF" fill-rule="evenodd"><path d="M57.193 10L18 49.193l12.061 12.061L81.307 10H57.193zm.001 36.176l-21.11 21.11 12.06 12.06 9.05 9.05h24.114l-21.103-21.11 21.103-21.11H57.194z"/><path d="M57.194 46.176L36.091 67.285l12.054 12.06 33.163-33.17z"/><path d="M57.193 10L18 49.193l12.061 12.061L81.307 10H57.193zm.001 36.176l-21.11 21.11 12.06 12.06 9.05 9.05h24.114l-21.103-21.11 21.103-21.11H57.194z"/><path d="M57.193 10L18 49.193l12.061 12.061L81.307 10z"/><path d="M57.193 10L18 49.193l12.061 12.061L81.307 10H57.193zm.001 36.176l-21.11 21.11 12.06 12.06 9.05 9.05h24.114l-21.103-21.11 21.103-21.11H57.194z"/><path d="M48.145 79.346l9.049 9.042H81.3L60.206 67.285z"/><path d="M57.193 10L18 49.193l12.061 12.061L81.307 10H57.193zm.001 36.176l-21.11 21.11 12.06 12.06 9.05 9.05h24.114l-21.103-21.11 21.103-21.11H57.194z"/></g></svg><svg fill="none" viewBox="0 0 9 18" id="footer-fb" xmlns="http://www.w3.org/2000/svg"><path fill="#fff" d="M7.357 2.984H9V.126A21.328 21.328 0 0 0 6.607 0c-2.37 0-3.992 1.488-3.992 4.223v2.516H0v3.194h2.615v8.038h3.204V9.933h2.51l.398-3.194H5.82v-2.2c0-.924.25-1.555 1.538-1.555z"/></svg><svg fill="none" viewBox="0 0 18 21" id="footer-instagram" xmlns="http://www.w3.org/2000/svg"><path fill="#fff" fill-rule="evenodd" d="M13.27 5.687a.957.957 0 1 0 0-1.914.957.957 0 0 0 0 1.914zm2.382-3.338c.938.935 1.231 2.07 1.292 3.352.075 1.321.075 5.277 0 6.598-.064 1.282-.357 2.417-1.292 3.352-.935.94-2.07 1.232-3.352 1.293-1.32.075-5.28.075-6.6 0-1.281-.064-2.413-.357-3.352-1.293-.938-.935-1.231-2.07-1.292-3.352-.075-1.321-.075-5.28 0-6.601.064-1.282.354-2.418 1.292-3.353.94-.935 2.074-1.228 3.352-1.289 1.32-.075 5.28-.075 6.6 0 1.281.065 2.416.357 3.352 1.293zm-6.65 2.549A4.095 4.095 0 0 0 4.9 9 4.095 4.095 0 0 0 9 13.102 4.095 4.095 0 0 0 13.104 9a4.095 4.095 0 0 0-4.101-4.102z" clip-rule="evenodd"/><path fill="#fff" d="M6.335 9c0 1.47 1.2 2.667 2.667 2.667A2.672 2.672 0 0 0 11.668 9a2.67 2.67 0 0 0-2.666-2.667A2.67 2.67 0 0 0 6.335 9z"/></svg><svg fill="none" viewBox="0 0 15 18" id="footer-linkedin" xmlns="http://www.w3.org/2000/svg"><g clip-path="url(#bia)"><path fill="#fff" d="M3.355 15.75H.245V5.235h3.11V15.75zM1.798 3.8c-.994 0-1.801-.864-1.801-1.909C-.003.847.804 0 1.798 0c.994 0 1.801.847 1.801 1.891 0 1.045-.807 1.91-1.801 1.91zm13.199 11.95h-3.104v-5.119c0-1.22-.024-2.784-1.617-2.784-1.618 0-1.865 1.325-1.865 2.696v5.207H5.304V5.235h2.983v1.434h.043c.416-.826 1.43-1.698 2.943-1.698C14.421 4.971 15 7.147 15 9.974v5.776h-.003z"/></g><defs><clipPath id="bia"><path fill="#fff" d="M0 0h15v18H0z" transform="matrix(-1 0 0 1 15 0)"/></clipPath></defs></svg><svg fill="none" viewBox="0 0 16 13" id="footer-tw" xmlns="http://www.w3.org/2000/svg"><path fill="#fff" d="M14.355 3.239c.01.142.01.284.01.426 0 4.335-3.299 9.33-9.33 9.33A9.267 9.267 0 0 1 0 11.523c.264.03.518.04.792.04a6.568 6.568 0 0 0 4.071-1.4 3.285 3.285 0 0 1-3.066-2.275c.203.03.406.051.62.051.294 0 .588-.04.862-.112A3.28 3.28 0 0 1 .65 4.61v-.04c.437.243.945.395 1.483.416A3.277 3.277 0 0 1 .67 2.254c0-.61.162-1.168.447-1.655A9.321 9.321 0 0 0 7.878 4.03a3.702 3.702 0 0 1-.081-.75A3.278 3.278 0 0 1 11.077 0a3.27 3.27 0 0 1 2.395 1.036 6.456 6.456 0 0 0 2.081-.792 3.27 3.27 0 0 1-1.441 1.807c.66-.071 1.3-.254 1.888-.508a7.048 7.048 0 0 1-1.645 1.696z"/></svg><svg fill="none" viewBox="0 0 20 18" id="footer-youtube" xmlns="http://www.w3.org/2000/svg"><g clip-path="url(#bka)"><path fill="#fff" d="M19.085 4.362a2.398 2.398 0 0 0-1.676-1.708C15.929 2.25 10 2.25 10 2.25s-5.93 0-7.409.404A2.398 2.398 0 0 0 .915 4.362C.518 5.87.518 9.014.518 9.014s0 3.144.397 4.651a2.36 2.36 0 0 0 1.676 1.681c1.48.404 7.409.404 7.409.404s5.93 0 7.409-.404a2.362 2.362 0 0 0 1.676-1.681c.396-1.507.396-4.651.396-4.651s0-3.145-.396-4.652zM8.061 11.868v-5.71l4.956 2.856-4.956 2.854z"/></g><defs><clipPath id="bka"><path fill="#fff" d="M0 0h20v18H0z" transform="matrix(1 0 0 -1 0 18)"/></clipPath></defs></svg><svg viewBox="0 0 19 19" id="four-dots" xmlns="http://www.w3.org/2000/svg"><path d="M9.571.379L11.692 2.5 9.571 4.621 7.45 2.5zM2.5 7.45l2.121 2.12L2.5 11.692.379 9.571zm14.142 0l2.121 2.12-2.12 2.122-2.122-2.121zm-7.071 7.07l2.121 2.122-2.12 2.121-2.122-2.121z" fill="#FFF" fill-rule="evenodd"/></svg><svg viewBox="0 0 19 19" id="four-dots-gray" xmlns="http://www.w3.org/2000/svg"><path d="M9.571.379L11.692 2.5 9.571 4.621 7.45 2.5zM2.5 7.45l2.121 2.12L2.5 11.692.379 9.571zm14.142 0l2.121 2.12-2.12 2.122-2.122-2.121zm-7.071 7.07l2.121 2.122-2.12 2.121-2.122-2.121z" fill="#4c4747" fill-rule="evenodd"/></svg><svg viewBox="0 0 19 19" id="four-dots-red" xmlns="http://www.w3.org/2000/svg"><path d="M9.571.379L11.692 2.5 9.571 4.621 7.45 2.5zM2.5 7.45l2.121 2.12L2.5 11.692.379 9.571zm14.142 0l2.121 2.12-2.12 2.122-2.122-2.121zm-7.071 7.07l2.121 2.122-2.12 2.121-2.122-2.121z" fill="#e30613" fill-rule="evenodd"/></svg><svg viewBox="0 0 50 50" id="gaming" xmlns="http://www.w3.org/2000/svg"><defs><path id="boa" d="M0 .378h17.537V24.16H0z"/><path id="boc" d="M0 24.275h35.336V.493H0z"/></defs><g fill="none" fill-rule="evenodd" transform="translate(7 12)"><g transform="translate(0 .115)"><mask id="bob" fill="#fff"><use xlink:href="#boa"/></mask><path fill="#FFF" d="M11.63 24.16H7.26l-.411-.22-5.754-8.676A6.541 6.541 0 0 1 0 11.636V5.79A5.418 5.418 0 0 1 5.412.378h12.125v.986H5.412A4.431 4.431 0 0 0 .986 5.79v5.846c0 1.1.322 2.166.93 3.083l5.607 8.455h3.615v-6.377h.986v6.87l-.493.493z" mask="url(#bob)"/></g><mask id="bod" fill="#fff"><use xlink:href="#boc"/></mask><path fill="#FFF" d="M19.76 1.48h5.885V.492h-5.884zm8.317 22.795h-4.372l-.493-.493v-6.377h-9.903v-.986h10.396l.493.493v6.377h3.614l5.608-8.455c.608-.917.93-1.983.93-3.083V5.905a4.43 4.43 0 0 0-4.426-4.426V.493a5.418 5.418 0 0 1 5.412 5.412v5.846c0 1.295-.378 2.55-1.094 3.628l-5.754 8.675-.411.22zM10.798 12.617H8.716l-.493-.493v-2.11H6.114l-.493-.492V7.44l.493-.493h2.109v-2.11l.493-.492h2.082l.493.493v2.109H13.4l.493.493v2.082l-.493.493h-1.138v-.986h.645V7.933h-2.109l-.493-.493V5.33H9.21v2.11l-.493.493h-2.11v1.096h2.109l.493.493v2.109h1.096V9.52h.986v2.603z" mask="url(#bod)"/><path fill="#FFF" d="M26.592 5.385h.992v-.992h-.992v.992zm1.485.986h-1.978l-.493-.493V3.901l.493-.493h1.978l.493.493v1.977l-.493.493zm-1.485 5.611h.992v-.992h-.992v.992zm1.485.986h-1.978l-.493-.493v-1.977l.493-.493h1.978l.493.493v1.977l-.493.493zm-4.783-4.284h.991v-.992h-.991v.992zm1.485.986H22.8l-.493-.493V7.199l.493-.493h1.978l.493.493v1.978l-.493.493zm5.112-.986h.992v-.992h-.992v.992zm1.484.986h-1.977l-.493-.493V7.199l.493-.493h1.977l.493.493v1.978l-.493.493zm-20.071 5.169h9.851v-.986h-9.851z" mask="url(#bod)"/></g></svg><svg viewBox="0 0 100 100" id="hadoop" xmlns="http://www.w3.org/2000/svg"><defs><path id="bpa" d="M0 .452h88.34V69H0z"/></defs><g fill="none" fill-rule="evenodd"><path fill="#FFF" d="M64.7 56.177c1.203-1.932 2.094-2.907 3.976-4.202-3.088.89-3.064 1.138-3.976 4.202m-2.525-27.441c.143-.075.266-.155.42-.23-4.214 1.056-5.004 2.827-4.462 5.546.004-.023.012-.046.018-.07a9.24 9.24 0 0 0 .365 2.598c-.203-3.077 1.392-6.213 3.659-7.844"/><g transform="translate(6 15.548)"><mask id="bpb" fill="#fff"><use xlink:href="#bpa"/></mask><path fill="#FFF" d="M86.424 28.827c-.483 4.46-2.637 9.328-6.57 11.523-5.015 2.8-10.927 1.09-15.91-.589-1.062-.358-1.801-.88-2.736-1.469.254 1.146.37 2.358.03 3.503-.536 1.815-1.404 4.786 1.06 5.334.94.21 1.365.178 2.69-.505-1.072.243-1.613.183-2.35.047-.668-.122-1.022-.547-1.208-1.047.233.168.614.26 1.264.416 1.828.44 3.569-.44 3.91-1.706.198-.74.164-1.13.585-2.139.378.116.769.223 1.17.32l-.68 2.215c-.587 1.916-2.875 3.461-4.896 3.426-1.867-.033-3.051-1.202-4.341-2.35-.888-.792-1.744-1.547-2.591-2.296-2.325-.735-4.188-1.59-6.345-3.189 1.535 1.805 2.576 2.804 4.718 3.702-.312 3.177-1.416 5.493-2.357 8.533-.426 1.375-3.79 6.883-4.721 7.42-.665.383-4.827 3.89-5.611 4.352-.583.774-1.094 1.845-1.971 2.308-2.672 1.413-4.39-1.293-5.827-3.578-.654-1.04-2.473-4.038-.887-4.877 1.498-.794 2.337-1.36 3.866-2.366.225.41.61.805.86 1.215l-.166-1.343c-.1-.81-.097-1.468-.032-2.284.063-.789.124-1.578.186-2.369-.23.804-.69 1.606-.92 2.408-.091.322-.167.58-.211.822a27.008 27.008 0 0 1-10.266.132 64.586 64.586 0 0 0-.71-3.543c-.067 1.063-.023 4.001-.03 5.646-.003 1.274-.057 1.711-.714 2.795-.615 1.014-.876 1.245-1.737 2.961.072 1.082.073 1.797-.214 2.824-.48 1.708-5.302.385-6.575.036-1.566-.429-4.806-1.066-3.991-3.155.717-1.838 1.17-3.778 1.52-6.349-2.87-4.136-5.54-9.804-6.051-14.825-.398-3.897-.16-6.298.684-8.684 1.337-3.778 3.207-7.049 6.208-9.683 4.049-3.552 7.833-4.979 13.758-5.88-1.426 1.595-2.835 3.281-4.371 5.09-1.556 1.831-2.48 3.68-3.468 5.681-1.364 2.766-1.335 3.82.474 6.247 1.558 2.092 2.4 3.036 3.08 5.083-.562 1.158-.766 2.137-.955 3.718 1.909 2.087 3.327 3.516 5.18 3.956 1.817.432 3.335.35 4.96-.482 3.612-1.847 6.954-4.232 11.028-4.329 1.885-4.633 1.694-8.505.789-12.988-.618-3.063-.866-5.96-1.057-9.083-.765 3.215-.908 6.042-.342 9.244.684 3.86 1.215 8.122-.686 11.512-3.683.283-6.841 2.524-10.161 4.243-1.334.692-2.724.76-4.201.354-1.371-.377-2.296-1.284-3.773-2.987-.024-1.71.362-2.5 1.148-4.049 1.262-2.487 2.655-4.803 4.183-7.25-1.871 2.258-3.645 4.145-5.118 6.417-.563-1.604-1.37-2.419-2.702-4.225-1.303-1.764-1.44-2.537-.465-4.579.98-2.052 1.81-3.855 3.477-5.655 2.88-3.11 5.519-6.573 8.67-9.637 1.71-1.663 2.404-1.605 4.673-1.949 1.777-.27 3.53-.63 5.325-1.03 1.692.096 2.842.822 4.736 2.782-1.43-2.512-1.85-3.705-1.61-6.079.267-2.656 3.369-3.429 6.096-4.182 3.669-.335 6.905.731 10.55 3.795 1.577 1.326 2.955 2.612 4.553 3.757a5.739 5.739 0 0 0-1.74.413c.805-.153 1.733-.002 2.568.15.234.153.475.301.722.446 1.129.666 1.77 1.033 2.533 2.096a22.846 22.846 0 0 1 2.073 3.486c-.39-.139-.715-.256-1.005-.342a2.173 2.173 0 0 0-2.038.126l-.047.022c-.625.304-1.592.65-2.24.755.33.115 1.062.157 1.406.021.046-.018.093-.032.14-.044a2.166 2.166 0 0 0-.057 2.091l.003.003c.058.138.139.264.229.356a15.8 15.8 0 0 0-.91.37c1.444-.222 2.746-.259 4.155-.073.093.444.186.915.273 1.393l-.523.041-.043.003c-.666-.532-1.41-.442-2.424-.21-3.085.703-2.36 2.434-3.78 5.043 1.474-1.8 1.365-3.686 3.767-4.255.559-.133.94-.299 1.32-.242-.682.343-1.272.911-1.506 1.572-.66 1.861-.25 3.43-.974 5.17.897-1.556.95-3.073 1.754-4.707.288-.588 1.357-1.529 2.013-1.543l.54-.012c.158 1.035.255 2.062.193 2.915-.112 1.555-.515 3.862-.757 4.746.812-1.045 1.182-3.258 1.539-4.815.372-1.622.278-3.568-.047-5.31-.447-2.39 2.015-2 3.444-3.128 1.05-.828 1.774-2.15 2.738-3.088.955-.93 2.459.437 2.835 1.345 1.63 3.942 2.372 10.144 1.942 14.12zM56.26 53.482l.119 4.227c.45.79.52.958.44 1.858-.162 1.84-.775 1.962-2.391 1.934-.734-.014-3.658-.027-4.4-.09-1.047-.09-1.636-.184-1.956-.423 1.647-1.209 4.445-6.2 4.99-7.918.577-1.815 1.209-3.399 1.678-5.077.216.702.387 1.396.7 2.141.526 1.245.783 2.013.82 3.348zm-44.194 2.36c-.124.512-.267 1.012-.567 1.415-1.411 1.887-5.002-.885-6.041-1.945-1.136-1.16-1.897-2.534-2.078-3.822-.132-.94-.004-.963.652-1.627l2.65-2.684.582-1.55c1.046 3.617 2.827 7.171 4.802 10.16v.052zm-9-24.1c-.337-.704-.528-1.394-.774-2.284-2.271-2.355 1.125-5.463 2.975-6.577-.267.575-.458 1.01-.587 1.46-.563 1.943.255 3.68-1.511 5.09.83 1.671.792 2.34 2.72 1.566a6.35 6.35 0 0 0 1.907-1.21 36.042 36.042 0 0 0-.841 2.447c-1.38.585-3.195.957-3.89-.492zm2.579-7.479c.029-.112.06-.22.093-.33.47.274.594.771.646 1.441-.28-.28-.505-.47-.867-.43.03-.237.07-.466.128-.68zm69.128-7.13a1.889 1.889 0 0 0-.196.16 2.162 2.162 0 0 0-.475-.699c.135-.005.275-.01.417-.012.086.181.17.364.254.551zm13.083 3.352c-.426-2.68-1.13-5.282-2.108-7.154a2.852 2.852 0 0 0-.524-.682 5.43 5.43 0 0 0-1.948-1.188c-.788-.27-1.618-.325-2.277.018-.171.091-.33.206-.472.35-.427.433-.787.958-1.147 1.484-.401.586-.805 1.176-1.287 1.587-.56.48-1.26.77-1.92 1.034-.29-.699-.622-1.34-.998-1.94a18.683 18.683 0 0 0-1.53-2.069 8.488 8.488 0 0 0-1.4-1.333c-.487-.372-.985-.686-1.567-1.049-1.558-.976-2.885-2.14-4.24-3.328a79.104 79.104 0 0 0-1.843-1.585C61.372 1.972 58.365.682 55.15.48c-3.194-.2-6.567.677-10.548 2.353-1.922.808-3.35 1.765-4.592 2.914-1.188 1.1-2.196 2.363-3.304 3.84-.645.046-1.216.141-1.8.375-.642.257-1.29.673-2.064 1.357-.55.485-1.076.973-1.584 1.465-.477.46-.94.93-1.396 1.403-3.625.583-6.577 1.226-9.222 2.25-2.705 1.048-5.09 2.49-7.538 4.661a19.705 19.705 0 0 0-2.625 2.818 20.835 20.835 0 0 0-1.942 3.082c-.49.543-.98 1.09-1.511 1.567-.518.468-1.071.861-1.69 1.1-.36.138-.507.22-.524.214-.017-.01-.028-.065-.053-.164.889-.849 1.028-2.093 1.11-3.33.107.127.21.284.316.448.117.181.237.368.38.55l.604.76.213-.949c.177-.795.31-1.854.103-2.773-.134-.596-.411-1.127-.892-1.503.045-.12.089-.232.132-.34a39 39 0 0 0 .44-1.16l.26-.744-.777.134c-1.035.18-3.26 1.402-4.826 3.028-.582.603-1.082 1.271-1.41 1.971-.342.73-.495 1.492-.362 2.254.115.667.449 1.322 1.055 1.94.11.445.213.832.32 1.18.126.397.26.752.429 1.1.456.95 1.183 1.528 2.024 1.798.676.217 1.424.227 2.157.067a19.716 19.716 0 0 0-.268 2.642c-.047 1.237-.002 2.604.135 4.19.03.35.075.732.132 1.148.05.355.11.704.175 1.05-.137.374-.274.75-.412 1.122l-.64 1.742-1.408 1.395c-.44.434-.877.87-1.315 1.302-.036.036-.184.18-.318.307-.888.855-1.063 1.024-.811 2.528.154.921.457 1.855.93 2.755a9.927 9.927 0 0 0 1.772 2.392c.936.938 2.47 2.104 4.078 2.714.918.35 1.865.521 2.753.377a15.083 15.083 0 0 1-.608 1.563c-1.09 2.39.029 3.638 1.77 4.433.87.395 1.905.665 2.866.915.196.051.393.103.64.17 1.139.307 3.106.872 4.902.986 1.96.123 3.729-.28 4.203-2.04.188-.698.297-1.234.34-1.756.042-.486.026-.977-.031-1.584.559-1.238.797-1.587 1.205-2.185l.206-.303c.438-.65.644-1.11.719-1.629.07-.502.01-1-.081-1.764l-.04-.318c1.148.147 2.28.226 3.404.233.572.004 1.142-.014 1.713-.044l-.445.231c-.07.035-.141.072-.213.11-1.514.777-1.577 2.252-1.103 3.77.428 1.368 1.307 2.765 1.859 3.615 1.16 1.787 2.266 3.3 3.608 4.122 1.407.862 3.014.964 5.088-.159 1.055-.572 1.388-1.154 1.836-1.939.138-.24.289-.5.457-.759.436-.288 1.522-1.183 2.586-2.063.362-.3.725-.599 1.134-.932.28.208.62.352 1.032.45.535.127 1.17.185 1.932.24.569.041 2.428.04 3.63.04l.864.001c1.24.007 2.24-.059 2.997-.487.806-.457 1.284-1.266 1.388-2.717.046-.645.054-1.042-.035-1.449-.084-.38-.247-.725-.527-1.229l-.05-1.882-.054-1.996a9 9 0 0 0-.267-2.049c-.158-.623-.383-1.222-.685-1.94-.204-.487-.37-.934-.532-1.37l-.435.158.067-.026.368-.133v-.002c-.26-.7-.516-1.38-.873-2.11.023-.139.046-.29.068-.452l.692.665 1.019.983c.778.75 1.489 1.43 2.324 1.922.863.51 1.834.805 3.09.746 1.317-.063 2.725-.618 3.884-1.472 1.122-.828 2.022-1.945 2.398-3.18l.325-1.072.26-.856c1.845.313 3.826.414 5.739.213 1.847-.194 3.63-.664 5.168-1.484 2.262-1.206 3.957-2.983 5.175-5.095v.001c1.362-2.358 2.125-5.137 2.415-7.997.232-2.294.105-5.412-.372-8.419z" mask="url(#bpb)"/></g><path fill="#FFF" d="M70.719 36.679l.012-.006-.034.008c-.493 0-1.041.082-1.61.209-.311-1.098-.741-1.655-1.589-2.458.215-.215.383-.525.494-.72-.02.007-.048.024-.069.034.035-.031.081-.055.115-.086-1.374.636-2.974.48-4.153 1.278-.999.675-2.358 2.735-3.4 3.73-.156.065-.309.167-.501.166.513.189 1.104.03 1.726-.134.522 1.105.809 1.568 1.846 2.14-.011.022-.017.046-.028.067-.126.243-.296.45-.392.714.048-.056.11-.102.159-.16-.209.564-.359 1.164-.359 1.849 1.592-3.183 4.556-4.888 7.664-6.565.066-.02.133-.054.199-.073-.025 0-.055.007-.08.007M50.11 28.74c-1.707.19-3.41.368-5.117.53-1.433.135-1.663.113-2.679 1.116-1.476 1.458-2.9 6.272-3.444 8.532-.828 2.112-1.717 4.106-2.976 6.166 2.36-2.54 3.79-4.702 5.14-7.575.525-1.117.623-2.426 2.086-1.94.065 1.116.301 2.23.366 3.344.79-5.66 3.018-8.029 8.195-10.227l-2.143.256c.192-.07.374-.127.571-.203"/></g></svg><svg viewBox="0 0 50 50" id="healthcare" xmlns="http://www.w3.org/2000/svg"><defs><path id="bqa" d="M.266.022h6.165v6.789H.266z"/></defs><g fill="none" fill-rule="evenodd"><path fill="#FFF" d="M6.184 18.3c.742 2.202 2.953 8.88 3.189 11.044.238 2.189 2.855 5.665 3.22 6.083.015.014 3.992 5.414 4.945 6.813.724-.074 2.976-.444 4.723-.749v-6.275c0-.003-.076-1.806-1.457-2.902-.616-.488-2.12-1.386-4.236-2.527a6.457 6.457 0 0 1-2.228-1.992l-1.886-2.715c-.698-.71-1.295-.715-1.458-.647a.968.968 0 0 0-.027.433l.621 3.727 3.491 3.122-.666.745-3.622-3.238-.16-.29-.65-3.902a1.968 1.968 0 0 1 .09-.994.88.88 0 0 1 .414-.465l-1.631-3.798a2.285 2.285 0 0 0-1.998-1.438l-.674-.035zM17.68 42.452l.032.053a.546.546 0 0 0-.032-.053zm-.298.79c-.38 0-.44-.091-.529-.226v-.054l-.02.01c-.217-.362-4.71-6.513-5.006-6.903l.003-.001c-.396-.489-3.171-4.04-3.451-6.616C8.113 27.012 5.03 18.016 5 17.925l.499-.661 1.41.073a3.283 3.283 0 0 1 2.87 2.053l1.738 4.044c.566.096 1.162.437 1.684.98l.05.061 1.91 2.75a5.455 5.455 0 0 0 1.882 1.682c1.532.827 3.536 1.953 4.382 2.624 1.754 1.391 1.833 3.579 1.836 3.671v6.71l-.413.492c-3.495.616-4.872.837-5.466.837z"/><g transform="translate(38.5 17.241)"><mask id="bqb" fill="#fff"><use xlink:href="#bqa"/></mask><path fill="#FFF" d="M1.185 6.81l-.919-.394 1.838-4.28A3.277 3.277 0 0 1 4.97.097L6.38.021l.052.999-1.411.073A2.28 2.28 0 0 0 3.028 2.52L1.185 6.81z" mask="url(#bqb)"/></g><path fill="#FFF" d="M32.7 42.452a.49.49 0 0 0-.033.053l.032-.053m.298.79c-.594 0-1.97-.222-5.466-.838l-.413-.493v-6.696c.003-.106.081-2.293 1.836-3.684l.621.783c-1.38 1.096-1.457 2.899-1.457 2.917v6.26c1.747.305 4 .675 4.722.749.954-1.4 4.933-6.802 4.968-6.835.342-.396 2.96-3.872 3.198-6.061.175-1.61 1.438-5.708 2.466-8.862l.951.31c-1.433 4.394-2.293 7.47-2.423 8.66-.28 2.576-3.057 6.129-3.45 6.615l.002.002c-.296.39-4.79 6.541-5.007 6.904l-.02-.012v.054c-.088.136-.148.226-.528.226"/><path fill="#FFF" d="M35.964 32.46l-.667-.745 3.491-3.121.622-3.728a.968.968 0 0 0-.027-.433c-.163-.068-.76-.063-1.458.647l-1.886 2.715a6.46 6.46 0 0 1-2.228 1.992c-.444.24-.968.526-1.5.826l-.492-.87a99.863 99.863 0 0 1 1.517-.836 5.45 5.45 0 0 0 1.881-1.682l1.96-2.811c.738-.766 1.621-1.13 2.362-.972.378.08.657.296.766.593.115.318.147.662.091.995l-.65 3.901-.16.29-3.622 3.24zM17.701 35.6l-1.043-2.141.9-.438 1.042 2.14zm7.536-8.226h-.12l-.301-.1c-.027-.02-2.687-2.022-5.044-4.324-.905-.884-1.645-1.696-2.26-2.483l.787-.616c.588.75 1.299 1.53 2.172 2.384 1.902 1.858 4.007 3.517 4.705 4.055.7-.539 2.805-2.198 4.706-4.055 2.042-1.994 4.419-4.74 4.68-8.295.112-1.53-.411-3.003-1.474-4.147C32.045 8.67 30.608 8 29.243 8c-.656 0-1.27.065-1.827.194l-.225-.975A9.176 9.176 0 0 1 29.243 7c1.637 0 3.348.79 4.577 2.112 1.255 1.35 1.873 3.09 1.739 4.9-.286 3.892-2.81 6.82-4.978 8.938-2.357 2.302-5.018 4.304-5.044 4.324l-.3.1zm-9.805-10.331c-.354-1.063-.569-2.082-.638-3.03-.134-1.81.484-3.551 1.739-4.901C17.76 7.789 19.473 7 21.11 7c3.087 0 4.37 1.306 4.423 1.362l-.357.34.006.505-.373-.155C24.802 9.045 23.731 8 21.11 8c-1.364 0-2.8.67-3.844 1.792-1.063 1.145-1.587 2.617-1.474 4.147.064.866.262 1.804.59 2.787l-.949.317z"/><path fill="#FFF" d="M27.087 16.47l-.965-.265.498-1.813.482-.367h5.489v1h-5.108zm-1.809 3.262l-2.53-5.38-1.767 4.42-.464.314h-7.354v-1h7.015l2.07-5.174.916-.027 3.02 6.421z"/></g></svg><svg viewBox="0 0 50 50" id="information" xmlns="http://www.w3.org/2000/svg"><defs><path id="bra" d="M.048.01h12.557v6.17H.048z"/><path id="brc" d="M.43.466h11.06v15.65H.43z"/></defs><g fill="none" fill-rule="evenodd"><path fill="#FFF" d="M15.76 25.756h-1c0-5.78 4.704-10.484 10.485-10.484 3.539 0 6.815 1.767 8.763 4.727l-.835.55a9.467 9.467 0 0 0-7.928-4.277c-5.23 0-9.484 4.255-9.484 9.484m9.484 10.484c-3.945 0-7.518-2.18-9.326-5.69l.889-.457a9.455 9.455 0 0 0 8.437 5.147c5.23 0 9.484-4.254 9.484-9.484h1c0 5.781-4.703 10.484-10.484 10.484"/><g transform="translate(13 9.49)"><mask id="brb" fill="#fff"><use xlink:href="#bra"/></mask><path fill="#FFF" d="M.798 6.18l-.75-.66A16.19 16.19 0 0 1 12.245.01l.36.847L9.98 3.58l-.72-.695 1.76-1.825A15.199 15.199 0 0 0 .798 6.18" mask="url(#brb)"/></g><path fill="#FFF" d="M10.896 20.56l-.94-.34c.327-.903.738-1.783 1.221-2.616l.865.503a15.21 15.21 0 0 0-1.146 2.454"/><g transform="translate(30 9.99)"><mask id="brd" fill="#fff"><use xlink:href="#brc"/></mask><path fill="#FFF" d="M10.643 16.115L7.92 13.491l.695-.72 1.825 1.76C9.963 8.627 6.06 3.446.429 1.407l.34-.94c6.413 2.321 10.72 8.466 10.72 15.288l-.846.36z" mask="url(#brd)"/></g><path fill="#FFF" d="M25.245 41.99l-.36-.847 2.624-2.722.72.695-1.76 1.824a15.263 15.263 0 0 0 10.27-5.174l.753.658a16.263 16.263 0 0 1-12.247 5.566m13.915-7.848l-.855-.518c.516-.852.95-1.759 1.288-2.695l.94.341a16.262 16.262 0 0 1-1.373 2.872m-19.44 6.892C13.308 38.712 9 32.567 9 25.744l.847-.36 2.722 2.625-.695.72-1.825-1.76c.478 5.904 4.38 11.085 10.012 13.125l-.34.94zm5.525-19.314c-5.141 0-9.484 1.848-9.484 4.036 0 2.188 4.343 4.036 9.484 4.036 5.14 0 9.484-1.848 9.484-4.036 0-2.188-4.343-4.036-9.484-4.036m0 9.072c-5.88 0-10.484-2.212-10.484-5.036 0-2.824 4.605-5.036 10.484-5.036s10.484 2.212 10.484 5.036c0 2.824-4.605 5.036-10.484 5.036"/><path fill="#FFF" d="M25.245 16.272c-2.188 0-4.036 4.344-4.036 9.484 0 1.733.208 3.432.603 4.913.075.281.156.554.243.816.131.395.277.77.433 1.113.76 1.68 1.765 2.643 2.757 2.643 2.187 0 4.036-4.344 4.036-9.485 0-5.14-1.849-9.484-4.036-9.484m0 19.968c-1.422 0-2.725-1.146-3.668-3.229a12.25 12.25 0 0 1-.47-1.21 14.713 14.713 0 0 1-.261-.874c-.417-1.564-.637-3.353-.637-5.17 0-5.88 2.212-10.485 5.036-10.485 2.824 0 5.036 4.605 5.036 10.484 0 5.88-2.212 10.484-5.036 10.484"/><path fill="#FFF" d="M22.27 26.147l-.008-1 1-.007.008 1zm2.572-.019l-.007-1 1.048-.007.007 1zm2.619-.018l-.007-1 1-.008.007 1z"/></g></svg><svg viewBox="0 0 100 100" id="java" xmlns="http://www.w3.org/2000/svg"><defs><path id="bsa" d="M.192.992h14.849v17.906H.192z"/><path id="bsc" d="M0 .7h62.82v9.79H0z"/><path id="bse" d="M.17.78h54.563V9H.17z"/></defs><g fill="none" fill-rule="evenodd"><path fill="#FFF" d="M58.087 4c1.933 7.381 1.406 11.071-8.786 19.506-10.193 8.435-11.774 8.61-11.774 13.883 0 5.271 7.82 13.618 11.598 15.991 0 0-.615-1.494-2.02-3.778-1.407-2.285-5.712-6.151-4.92-12.038.79-5.886 13.222-13.399 16.43-19.066C61.82 12.83 61.074 8.042 58.086 4"/><path fill="#FFF" d="M69.334 22.627c-8.786 2.899-19.681 7.469-19.681 16.343 0 8.874 5.623 7.205 5.623 11.949 0 4.745-3.076 6.15-3.076 6.15s8.084-3.075 7.733-9.225c-.352-6.151-5.184-5.272-5.184-10.984 0-7.228 14.585-14.233 14.585-14.233"/><path fill="#FFF" d="M38.23 54.082c-8.786 0-14.849 3.251-14.849 5.097 0 1.844 10.807 3.602 22.494 2.811 11.685-.791 17.836-1.757 22.493-4.569 0 0-8.26 1.932-14.586 1.932-6.326 0-24.406 1.131-23.987-1.581.419-2.711 10.896-3.69 10.896-3.69H38.23zm-3.251 10.28c-4.657 1.67-5.887 3.34-3.163 5.097 2.724 1.757 8.083 2.284 15.464 2.284s17.661-2.549 17.661-2.549l-3.339-2.636s-4.569 1.67-13.268 1.67c-8.698 0-17.44.22-13.355-3.866m2.109 9.929c-4.57 1.582-5.536 3.69-1.494 5.623 4.042 1.933 11.774 2.284 17.485 1.494 5.71-.791 10.544-2.549 10.544-2.549s-3.12-1.185-4.57-2.635c0 0-6.677 1.405-13.004 1.405-6.326 0-11.421-.878-8.961-3.338"/><g transform="translate(68 52.054)"><mask id="bsb" fill="#fff"><use xlink:href="#bsa"/></mask><path fill="#FFF" d="M3.18 2.555s2.195-2.987 7.731-.703c5.536 2.284 5.36 8.435.351 12.125-5.008 3.69-11.07 4.921-11.07 4.921s11.246-4.92 10.983-10.984c-.264-6.062-5.448-5.886-7.996-5.359" mask="url(#bsb)"/></g><g transform="translate(16 80.054)"><mask id="bsd" fill="#fff"><use xlink:href="#bsc"/></mask><path fill="#FFF" d="M10.193 6.537c17.31 3.163 43.669-.087 48.324-1.23 4.658-1.142 2.953-3.62 2.953-3.62 1.138.804 1.644 1.69 1.178 2.655-2.55 5.27-26.8 6.149-33.916 6.149C21.614 10.49 0 10.054 0 6.186 0 2.366 10.198.006 14.005.884c-7.16 2.048-11.41 4.264-3.812 5.653" mask="url(#bsd)"/></g><g transform="translate(28 86.054)"><mask id="bsf" fill="#fff"><use xlink:href="#bse"/></mask><path fill="#FFF" d="M.17 6.183s6.128 4.68 36.639 1.977C49 7.171 54.074 4.14 54.733.78c0 0-5.601 3.162-12.521 4.48C35.294 6.58 23.893 8.621.17 6.183" mask="url(#bsf)"/></g></g></svg><svg viewBox="0 0 100 100" id="js" xmlns="http://www.w3.org/2000/svg"><path d="M50.181 21.757h-32.18l6.03 65.43 26.15 7.412 26.141-7.412 6.041-65.43H50.181zM32.932 35.116H67.03l1.79 12.827h-8.21l-.3-4.693H39.934l-.374 8.202h29.358l-2.266 24.594-16.47 4.677-16.47-4.677-1.163-12.532h8.134l.538 6.27 8.96 2.584 8.825-2.545.903-10.363H32.242l-.048.155.738-24.5zM43.918 4v8.105h-5.723v4.11h9.825V4zm18.251.062h-9.983V8.34c1.334 1.336 2.03 1.975 3.963 3.908l-3.963.003v3.903h9.983V12.25l-3.987-3.91h3.987V4.061z" fill="#FFF" fill-rule="evenodd"/></svg><svg viewBox="0 0 100 100" id="kafka" xmlns="http://www.w3.org/2000/svg"><defs><path id="bua" d="M0 0h51.263v81.245H0z"/></defs><g fill="none" fill-rule="evenodd" transform="translate(24 9)"><mask id="bub" fill="#fff"><use xlink:href="#bua"/></mask><path fill="#FFF" d="M15.78 15.746c3.347-1.433 4.13-6.014 1.454-8.516-3.306-3.09-8.677-.758-8.677 3.768 0 2.911 2.171 5.103 5.08 5.13.672.007 1.637-.165 2.142-.382m26.566 14.568c3.348-1.432 4.131-6.012 1.455-8.514-3.306-3.09-8.677-.76-8.677 3.766 0 2.911 2.171 5.104 5.08 5.13.673.007 1.637-.165 2.142-.382M17.002 48.225c1.888-.643 4.145-2.9 4.788-4.788 1.078-3.166.375-6.299-1.93-8.606-3.269-3.269-8.196-3.269-11.464 0-2.306 2.307-3.01 5.44-1.93 8.606.614 1.807 2.908 4.15 4.67 4.771 1.698.6 4.137.606 5.866.017M42.345 60.31c3.348-1.433 4.131-6.014 1.455-8.516-3.306-3.09-8.677-.759-8.677 3.767 0 2.912 2.171 5.104 5.08 5.13.673.007 1.637-.165 2.142-.38M15.78 74.876c3.348-1.433 4.13-6.013 1.455-8.515-3.306-3.09-8.677-.76-8.677 3.767 0 2.911 2.171 5.103 5.08 5.131.672.006 1.637-.166 2.142-.383m-5.708 5.877c-2.91-1.038-5.273-3.204-6.603-6.055-.956-2.05-1.184-5.48-.517-7.776.896-3.08 3.821-6.237 6.742-7.274l1.435-.509V54.52l-1.55-.488c-3.098-.976-6.339-3.72-8-6.773-2.104-3.865-2.104-9.53 0-13.393 1.661-3.054 4.902-5.798 8-6.773l1.55-.49v-4.618l-1.435-.509c-2.92-1.038-5.846-4.193-6.742-7.274-.673-2.315-.44-5.717.54-7.853.97-2.119 3.42-4.575 5.561-5.579C10.515.086 11.037 0 13.7 0c2.663 0 3.184.086 4.647.77 2.142 1.004 4.591 3.46 5.561 5.58.98 2.135 1.213 5.537.54 7.852-.897 3.085-3.82 6.236-6.752 7.277l-1.446.514.082 2.254.082 2.254 1.5.384c2.004.511 3.437 1.271 5.381 2.855l1.617 1.318 1.18-.655a58.772 58.772 0 0 0 2.13-1.248l.954-.595.046-2.997c.04-2.603.148-3.214.818-4.645.995-2.122 3.457-4.584 5.58-5.578 1.462-.686 1.983-.773 4.646-.773s3.184.087 4.647.773c2.122.994 4.584 3.456 5.58 5.578.684 1.463.771 1.984.771 4.647 0 2.662-.087 3.185-.772 4.647-.995 2.123-3.457 4.584-5.579 5.58-1.463.684-1.984.77-4.647.77-3.383 0-4.79-.46-7.037-2.3l-1.227-1.006-2.16 1.224-2.16 1.226.222 1.143c.288 1.481.286 5.984-.003 7.342l-.225 1.058 2.194 1.284 2.194 1.284 1.195-.979c2.216-1.816 3.635-2.277 7.007-2.277 2.663 0 3.184.087 4.647.772 2.122.995 4.584 3.457 5.58 5.58.684 1.462.771 1.983.771 4.646s-.087 3.184-.772 4.647c-.995 2.122-3.457 4.584-5.579 5.58-1.463.685-1.984.771-4.647.771-2.663 0-3.184-.086-4.647-.772-2.122-.995-4.584-3.457-5.579-5.579-.688-1.469-.772-1.98-.772-4.702V52.45l-2.036-1.159c-1.12-.637-2.119-1.158-2.219-1.158-.099 0-.89.578-1.758 1.285-1.905 1.552-3.348 2.313-5.342 2.823l-1.499.383-.082 2.254-.082 2.254 1.446.513c2.931 1.041 5.855 4.193 6.751 7.278.674 2.315.44 5.718-.539 7.852-.978 2.135-3.422 4.581-5.56 5.566-2.205 1.014-6.049 1.207-8.276.413" mask="url(#bub)"/></g></svg><svg viewBox="0 0 100 100" id="kotlin" xmlns="http://www.w3.org/2000/svg"><defs><path id="bva" d="M0 .582h66.418V67H0z"/></defs><g fill="none" fill-rule="evenodd"><path fill="#FFF" d="M17 83.418h66.418L50.32 50.098zM17 17v35.976L50.319 17z"/><g transform="translate(17 16.419)"><mask id="bvb" fill="#fff"><use xlink:href="#bva"/></mask><path fill="#FFF" d="M33.32.581L0 35.673V67l33.32-33.32L66.419.581z" mask="url(#bvb)" opacity=".7"/></g></g></svg><svg viewBox="0 0 50 50" id="media-advertising" xmlns="http://www.w3.org/2000/svg"><defs><path id="bwa" d="M0 36.427h24.6V0H0z"/></defs><g fill="none" fill-rule="evenodd" transform="translate(13 7)"><path fill="#FFF" d="M17.43 25.249H7.17l-.491-.49c0-1.377-.551-2.675-1.551-3.69a10.077 10.077 0 0 1-2.856-7.907c.403-4.9 4.408-8.85 9.315-9.188a9.986 9.986 0 0 1 7.578 2.68 10.1 10.1 0 0 1 3.198 7.358c0 1.629-.398 3.247-1.153 4.679l-.867-.457a9.09 9.09 0 0 0 1.04-4.222 9.115 9.115 0 0 0-2.887-6.641 9.007 9.007 0 0 0-6.842-2.42c-4.427.306-8.041 3.87-8.405 8.291a9.097 9.097 0 0 0 2.578 7.138c1.069 1.086 1.703 2.452 1.815 3.889h9.318c.114-1.458.732-2.815 1.734-3.81l.69.697c-.93.922-1.463 2.222-1.463 3.567l-.49.526z"/><mask id="bwb" fill="#fff"><use xlink:href="#bwa"/></mask><path fill="#FFF" d="M7.108 27.268h10.384v-.98H7.108zm5.787 7.027h-1.19a5.093 5.093 0 0 1-5.087-5.086v-.374l.49-.49h1.434v.98H7.6a4.111 4.111 0 0 0 4.105 3.99h1.19A4.111 4.111 0 0 0 17 29.325h-6.17v-.98h6.662l.49.49v.374a5.092 5.092 0 0 1-5.087 5.086M11.81 2.197h.98V0h-.98zm-4.014.968L7.045 1.1l.92-.335.752 2.064zM4.355 5.447L2.943 3.764l.751-.63 1.412 1.683zM1.902 8.768L0 7.67l.49-.85 1.903 1.1zm14.902-5.603l-.921-.336.751-2.064.921.335zm3.441 2.282l-.751-.63 1.412-1.683.75.63zm2.452 3.321l-.49-.849 1.903-1.098.49.849zM6.353 13.787h-.98a7.319 7.319 0 0 1 .775-3.29l.877.44a6.334 6.334 0 0 0-.672 2.85m1.194-3.715L6.75 9.5a7.376 7.376 0 0 1 5.974-3.066v.98a6.394 6.394 0 0 0-5.178 2.658m2.794 26.355h3.614v-.98H10.34z" mask="url(#bwb)"/></g></svg><svg viewBox="0 0 100 100" id="mem-sql" xmlns="http://www.w3.org/2000/svg"><defs><path id="bxa" d="M.645.667h.893v.458H.645z"/><path id="bxc" d="M.475.667h31.454v48.44H.475z"/></defs><g fill="none" fill-rule="evenodd"><path fill="#FFF" d="M29.702 27.066L.482 70.207a2.658 2.658 0 0 0-.409 2.143 2.781 2.781 0 0 0 4.207 1.48l25.856-17.057c.382-.257.815-.46 1.275-.588V25.916c-.707.165-1.316.56-1.71 1.15"/><g transform="translate(30.357 25.226)"><mask id="bxb" fill="#fff"><use xlink:href="#bxa"/></mask><path fill="#FFF" d="M1.053.667V.69c.026-.005.05-.018.076-.023h-.076z" mask="url(#bxb)"/></g><path fill="#FFF" d="M47.728 46.419l-13.31-19.353a2.73 2.73 0 0 0-1.784-1.173v30.19c.765 0 1.53.204 2.193.585l13.003 8.695c.485.308 1.02.51 1.632.535V47.541a2.632 2.632 0 0 1-1.734-1.122m17.824-19.353L52.268 46.42a3.046 3.046 0 0 1-1.785 1.172v18.36a5.138 5.138 0 0 0 1.708-.537l12.978-8.694a4.406 4.406 0 0 1 2.193-.587v-30.24h-.026a2.73 2.73 0 0 0-1.784 1.173"/><g transform="translate(67.857 25.226)"><mask id="bxd" fill="#fff"><use xlink:href="#bxc"/></mask><path fill="#FFF" d="M31.913 46.028a2.377 2.377 0 0 0-.434-1.046L2.259 1.84C1.851 1.228 1.214.82.475.666V31.01c.458.101.917.305 1.274.586l25.88 17.058a2.78 2.78 0 0 0 4.284-2.626" mask="url(#bxd)"/></g></g></svg><svg viewBox="0 0 100 100" id="microsoft-net" xmlns="http://www.w3.org/2000/svg"><defs><path id="bya" d="M0 .129h97.225V39H0z"/><path id="byc" d="M.69.128h33.53v37.345H.69z"/><path id="bye" d="M0 .678h25.394V38H0z"/></defs><g fill="none" fill-rule="evenodd"><g transform="translate(1 30)"><mask id="byb" fill="#fff"><use xlink:href="#bya"/></mask><path fill="#FFF" d="M78.94 38.608l.28-.015c0-.55.01-1.097-.002-1.646-.008-.39-.038-.77.529-.794.071-.003.137-.153.257-.295h-1.912c.075.12.106.216.14.219.655.035.645.477.622.945-.017.325-.014.65 0 .975.01.204.057.407.087.61zm-12.469-.826c-.265-.31-.49-.564-.705-.828-.518-.634-.848-.683-1.54-.22-.613.41-.586.778.085 1.107.706.346 1.4.213 2.16-.06zM31.301 1.296c.383.727.89 1.05 1.57 1.113.639.06 2.264-.583 2.79-1.113H31.3zm51.468 35.709l.184.037c0 .42-.013.841.01 1.26.007.105.137.202.21.302.07-.102.197-.204.198-.306.01-.753.007-1.506-.03-2.258-.003-.068-.282-.198-.392-.165-.113.033-.19.224-.256.36-.242.498-.473 1.002-.766 1.626-.138-.247-.214-.37-.276-.497-.207-.43-.387-.877-.628-1.289-.074-.126-.309-.16-.47-.237-.044.137-.123.272-.126.41-.013.65-.018 1.3.005 1.95.005.13.143.257.22.385.058-.126.16-.249.166-.376.02-.428.008-.858.008-1.288l.156-.022c.211.44.416.882.639 1.315.064.124.178.223.27.333.113-.113.266-.206.334-.341.2-.391.366-.798.544-1.2zm-26.259.807c.122.084.171.144.23.153 1.219.193 2.418.118 3.571-.335.154-.06.3-.295.332-.47.104-.55-.366-.795-.724-1.015-.185-.114-.569-.056-.79.061-.64.336-1.245.737-1.861 1.117-.241.148-.476.307-.758.49zm6.096-6.389c-.162.23-.266.359-.348.501-.36.622-.714 1.25-1.07 1.875-.356.622-.31.99.167 1.535.995 1.138.773 1.216 1.983.138.45-.4.603-.82.387-1.376-.336-.856-.71-1.698-1.12-2.673zM25.472 1.718l-.123-.256c-.35.033-.725.005-1.05.114-.568.19-1.099.49-1.661.7-1.458.542-2.766 1.33-3.977 2.286-2.172 1.71-3.927 3.805-5.63 5.947-4.15 5.22-7.257 11.02-9.673 17.187-.966 2.464-1.795 4.983-2.642 7.492-.305.903-.525 1.84-.696 2.777-.103.568.198.88.78.924.864.064 1.73.121 2.596.11 1.156-.016 1.666-.532 1.853-1.668.266-1.619.485-3.253.876-4.844.598-2.437 1.243-4.869 2.016-7.256 1.356-4.193 3.16-8.202 5.472-11.974 2.284-3.727 5.11-6.985 8.693-9.56.689-.497 1.484-.848 2.216-1.289.335-.202.635-.459.95-.69zm18.26-.16c.246.121.39.208.544.267 2.662 1.01 4.479 2.891 5.754 5.362 1.85 3.583 2.962 7.424 4.152 11.242.713 2.282 1.407 4.573 2.234 6.817.78 2.114 1.717 4.172 2.6 6.248.09.212.25.422.432.565.24.188.494.232.642-.16.121-.319.281-.627.462-.917.862-1.38 1.233-2.784.751-4.437-.694-2.378-1.15-4.822-1.806-7.213-.745-2.719-1.57-5.418-2.414-8.11-.578-1.844-1.191-3.68-2.27-5.323-1.347-2.05-3.191-3.405-5.595-4.062-1.655-.452-3.33-.402-5.01-.392-.125 0-.25.058-.476.114zM33.883 3.32c.584.691 1.07 1.246 1.536 1.818 3.6 4.437 5.824 9.553 7.486 14.932.977 3.16 2.041 6.28 3.623 9.2 1.322 2.443 2.924 4.69 4.94 6.627 1.02.979 2.18 1.635 3.683 1.371 1-.176 1.772-.738 2.469-1.425.864-.853.935-1.342.298-2.352-2.328-3.68-3.894-7.69-5.202-11.807-.983-3.095-1.885-6.216-2.93-9.29-1.028-3.028-2.457-5.87-4.503-8.38-1.363-1.67-3.067-2.618-5.293-2.544-1.442.047-2.803.43-4.127.946-.65.254-1.273.578-1.98.904zm16.684 34.61l.031-.225c-.128-.08-.25-.175-.385-.239-2.383-1.123-4.158-2.881-5.405-5.15-1.756-3.195-2.944-6.626-4.135-10.047-1.106-3.177-2.05-6.41-3.15-9.59-.927-2.678-2.25-5.179-3.845-7.53-.708-1.043-1.394-1.162-2.462-.454-1.565 1.04-2.911 2.325-4.132 3.732-3.24 3.732-5.62 7.995-7.704 12.424-1.16 2.462-2.199 4.978-3.299 7.468-.082.186-.217.349-.327.523l-.158-.049c0-.242-.042-.492.007-.724.152-.72.315-1.438.516-2.146 1.057-3.725 2.462-7.324 4.124-10.823 1.31-2.76 3.005-5.27 5.174-7.455 1.59-1.601 3.387-2.925 5.364-4.022.76-.422.76-.848.058-1.335-1.228-.852-2.54-.869-3.847-.28-2.927 1.32-5.297 3.365-7.341 5.773-2.698 3.178-4.787 6.738-6.55 10.492-1.16 2.467-2.153 4.997-2.905 7.613-.575 2.005-1.14 4.014-1.606 6.044-.449 1.95-.76 3.93-1.138 5.894-.142.736.12 1.071.886 1.075 2.067.01 4.076-.34 6.012-1.04 3.395-1.225 5.993-3.35 7.358-6.716.641-1.581 1.09-3.238 1.612-4.864 1.31-4.067 3.012-7.962 5.244-11.623 1.265-2.076 2.64-4.062 4.545-5.634.148-.123.32-.217.51-.345.07.146.119.217.14.296.42 1.55.844 3.1 1.254 4.655.584 2.215 1.152 4.434 1.738 6.65.52 1.966 1.001 3.944 1.6 5.887.557 1.81 1.091 3.652 1.91 5.35 1.496 3.106 3.7 5.559 7.34 6.241.965.181 1.975.122 2.966.173zM86.13 1.41c-2.525 1.06-4.377 2.792-5.737 5.03a49.58 49.58 0 0 0-2.056 3.794c-1.541 3.123-2.562 6.448-3.75 9.707-1.096 3.007-2.336 5.95-3.892 8.76a41.21 41.21 0 0 1-3.832 5.73c-.249.312-.497.644-.292 1.074.716 1.511 2.224 2.64 4.143 2.001.762-.253 1.496-.628 2.19-1.036 2.47-1.453 4.383-3.501 6.075-5.755 4.151-5.531 7.749-11.413 11.226-17.37 2.038-3.492 4.047-7.002 6.06-10.51.314-.547.572-1.125.873-1.68.213-.393.006-.516-.337-.589-1.938-.41-3.412.035-4.484 1.905-1.065 1.856-2 3.785-3.063 5.643a417.274 417.274 0 0 1-5.31 9.05c-1.252 2.064-2.605 4.071-3.917 6.101-.092.141-.224.256-.337.382l-.123-.08c.05-.154.081-.315.151-.458 1.945-3.966 3.892-7.93 5.843-11.893 1.506-3.056 3.018-6.109 4.524-9.165.213-.432.404-.873.67-1.453-.8.075-1.432.137-2.065.19-.18.015-.451.08-.53-.009-.545-.614-1.273-.69-1.997-.637-1.153.085-2.296.297-3.449.39-2.103.171-4.159.522-6.105 1.358-3.374 1.448-5.745 3.837-6.84 7.336-.803 2.56-1.456 5.166-2.267 7.724-.884 2.785-1.785 5.57-2.842 8.293-.918 2.363-1.103 4.63.068 6.933.415.817.677.844 1.228.095.03-.041.06-.084.084-.129.84-1.533 1.72-3.043 2.509-4.602 2.067-4.09 3.484-8.432 5.02-12.73 1.112-3.116 2.485-6.113 4.384-8.857 1.665-2.406 3.803-4.143 6.73-4.815.482-.11.985-.247 1.447.272z" mask="url(#byb)"/></g><g transform="translate(64 30)"><mask id="byd" fill="#fff"><use xlink:href="#byc"/></mask><path fill="#FFF" d="M23.054 1.403c-.465-.517-.971-.38-1.458-.27-2.945.668-5.096 2.395-6.772 4.786-1.912 2.73-3.293 5.709-4.414 8.808-1.544 4.272-2.97 8.59-5.051 12.656-.793 1.549-1.68 3.052-2.525 4.575a1.001 1.001 0 0 1-.085.128c-.556.745-.818.718-1.236-.095-1.179-2.29-.993-4.544-.069-6.892 1.064-2.708 1.971-5.476 2.86-8.245.818-2.543 1.475-5.134 2.281-7.68 1.103-3.48 3.49-5.853 6.886-7.294C15.43 1.05 17.5.7 19.616.53c1.16-.093 2.311-.305 3.47-.39.73-.052 1.462.024 2.012.634.079.089.351.025.533.01.637-.052 1.273-.114 2.078-.189-.268.576-.461 1.015-.674 1.443-1.516 3.04-3.038 6.074-4.553 9.113a7646.27 7646.27 0 0 0-5.881 11.825c-.072.142-.103.303-.152.456l.123.08c.114-.126.247-.24.338-.38 1.322-2.02 2.684-4.014 3.944-6.068a415.546 415.546 0 0 0 5.345-8.996c1.069-1.847 2.01-3.766 3.082-5.612C30.361.6 31.843.157 33.794.564c.346.073.554.195.34.586-.305.551-.563 1.126-.879 1.67-2.027 3.487-4.048 6.977-6.1 10.45-3.5 5.921-7.12 11.77-11.299 17.269-1.703 2.242-3.627 4.278-6.114 5.722-.698.406-1.437.778-2.204 1.03-1.932.636-3.449-.487-4.171-1.99-.205-.427.044-.757.295-1.066a41.017 41.017 0 0 0 3.857-5.699c1.565-2.792 2.814-5.72 3.918-8.709 1.194-3.24 2.222-6.546 3.773-9.65a48.708 48.708 0 0 1 2.07-3.773c1.368-2.226 3.233-3.948 5.774-5.001" mask="url(#byd)"/></g><path fill="#FFF" d="M51.969 69.012c-.986-.052-1.992.008-2.953-.176-3.625-.696-5.82-3.194-7.31-6.359-.814-1.73-1.346-3.608-1.901-5.451-.596-1.98-1.076-3.995-1.594-5.999-.583-2.257-1.148-4.518-1.73-6.775-.408-1.583-.83-3.162-1.25-4.742-.02-.08-.068-.152-.138-.301-.19.13-.36.226-.508.35-1.897 1.602-3.267 3.626-4.526 5.74-2.222 3.731-3.918 7.7-5.222 11.843-.52 1.657-.967 3.344-1.605 4.955-1.358 3.43-3.946 5.595-7.326 6.843A16.893 16.893 0 0 1 9.919 70c-.762-.004-1.023-.345-.883-1.095.377-2.001.688-4.018 1.133-6.004.464-2.07 1.027-4.117 1.6-6.158.75-2.667 1.738-5.245 2.892-7.758 1.757-3.824 3.837-7.452 6.523-10.69 2.036-2.453 4.396-4.536 7.31-5.881 1.301-.6 2.608-.583 3.832.285.698.496.698.932-.059 1.36-1.97 1.118-3.76 2.467-5.342 4.098-2.16 2.228-3.847 4.784-5.152 7.596-1.654 3.565-3.054 7.232-4.106 11.026a33.72 33.72 0 0 0-.514 2.186c-.048.237-.007.492-.007.739l.157.049c.11-.177.245-.343.327-.532 1.094-2.537 2.13-5.1 3.284-7.61 2.076-4.511 4.444-8.855 7.672-12.658 1.216-1.432 2.556-2.743 4.114-3.8 1.063-.723 1.746-.602 2.45.46 1.59 2.396 2.908 4.944 3.83 7.672 1.096 3.24 2.036 6.534 3.137 9.772 1.186 3.485 2.369 6.98 4.117 10.236 1.242 2.311 3.01 4.103 5.382 5.247.135.065.257.161.384.243l-.031.229"/><path fill="#FFF" d="M35 33.861c.695-.327 1.304-.653 1.943-.907 1.3-.518 2.634-.902 4.05-.95 2.184-.074 3.857.877 5.194 2.555 2.008 2.518 3.41 5.372 4.42 8.411 1.024 3.086 1.91 6.22 2.874 9.326 1.284 4.133 2.82 8.159 5.104 11.855.626 1.013.556 1.504-.292 2.36-.684.69-1.44 1.254-2.423 1.43-1.475.265-2.613-.393-3.613-1.376-1.979-1.945-3.55-4.2-4.848-6.651-1.553-2.934-2.597-6.066-3.555-9.237-1.631-5.4-3.814-10.536-7.347-14.99-.456-.574-.934-1.132-1.507-1.826"/><path fill="#FFF" d="M45 32.122c.229-.056.355-.114.482-.115 1.7-.01 3.395-.06 5.07.395 2.433.662 4.3 2.027 5.663 4.094 1.092 1.655 1.713 3.506 2.298 5.364.853 2.713 1.689 5.434 2.443 8.174.663 2.41 1.126 4.872 1.828 7.269.488 1.665.113 3.08-.76 4.47a5.34 5.34 0 0 0-.467.924c-.151.396-.407.352-.65.162a1.492 1.492 0 0 1-.438-.569c-.893-2.092-1.842-4.166-2.632-6.297-.836-2.26-1.539-4.57-2.26-6.87-1.205-3.847-2.33-7.719-4.202-11.33-1.292-2.49-3.13-4.385-5.825-5.403-.156-.06-.3-.147-.55-.268"/><g transform="translate(1 31)"><mask id="byf" fill="#fff"><use xlink:href="#bye"/></mask><path fill="#FFF" d="M25.394.932c-.315.23-.614.486-.948.687-.73.438-1.522.788-2.21 1.28-3.57 2.562-6.388 5.8-8.665 9.506-2.305 3.75-4.103 7.737-5.455 11.905-.77 2.374-1.414 4.791-2.01 7.215-.39 1.582-.608 3.206-.873 4.816-.186 1.129-.695 1.642-1.848 1.658-.862.011-1.726-.045-2.587-.11-.58-.043-.881-.353-.778-.918.17-.931.39-1.863.694-2.76.844-2.496 1.67-5 2.634-7.45C5.757 20.63 8.852 14.863 12.99 9.673c1.698-2.13 3.448-4.212 5.613-5.913 1.208-.95 2.511-1.734 3.965-2.273.56-.209 1.09-.507 1.657-.696.323-.108.695-.08 1.046-.113.04.085.082.17.123.254" mask="url(#byf)"/></g><path fill="#FFF" d="M63.728 62c.429 1.013.819 1.887 1.17 2.777.227.577.067 1.013-.404 1.43-1.266 1.12-1.033 1.038-2.074-.144-.5-.568-.547-.949-.175-1.595.373-.649.742-1.301 1.12-1.948.085-.147.194-.281.363-.52M58 67.746c.272-.184.498-.344.73-.495.595-.383 1.178-.789 1.796-1.127.213-.118.584-.177.762-.063.345.224.798.47.698 1.027-.032.176-.172.412-.32.474-1.111.457-2.27.532-3.444.337-.056-.008-.104-.069-.222-.153m25.385-.48c-.181.435-.35.876-.55 1.3-.071.146-.225.248-.341.37-.093-.12-.208-.227-.273-.362-.226-.47-.434-.949-.648-1.426l-.158.025c0 .465.013.931-.008 1.396-.007.138-.11.271-.168.407-.077-.138-.218-.275-.223-.417a41.405 41.405 0 0 1-.005-2.116c.003-.148.083-.295.127-.443.164.083.402.12.477.257.244.447.426.93.636 1.398.063.139.14.27.28.54.297-.678.53-1.225.777-1.764.066-.148.145-.355.26-.391.11-.036.394.106.397.18.036.815.04 1.631.03 2.448 0 .111-.13.221-.2.332-.075-.108-.207-.214-.213-.327-.024-.455-.01-.912-.01-1.368l-.187-.04M32 32h4c-.482.475-1.973 1.05-2.56.997-.624-.057-1.088-.345-1.44-.997m36 36.671c-.85.336-1.625.5-2.413.072-.75-.406-.78-.858-.096-1.364.774-.57 1.142-.51 1.72.27.24.326.493.64.789 1.022M79.888 69c-.031-.222-.081-.443-.09-.666-.016-.354-.018-.71-.001-1.064.024-.51.035-.993-.65-1.03-.036-.003-.068-.109-.147-.24h2c-.126.156-.194.32-.269.322-.593.026-.561.44-.553.867.012.598.003 1.196.003 1.795l-.293.016"/></g></svg><svg viewBox="0 0 100 100" id="objectice-c" xmlns="http://www.w3.org/2000/svg"><defs><path id="bza" d="M.12.03h17v19h-17z"/></defs><g fill="none" fill-rule="evenodd"><g transform="translate(50 9)"><mask id="bzb" fill="#fff"><use xlink:href="#bza"/></mask><path fill="#FFF" d="M12.722 13.219c2.881-3.526 4.854-8.32 4.306-13.188C12.858.21 7.64 2.854 4.636 6.3 1.979 9.339-.396 14.318.217 19c4.686.342 9.497-2.313 12.505-5.782" mask="url(#bzb)"/></g><path fill="#FFF" d="M72.795 53.126c-.095-10.49 8.647-15.592 9.045-15.829-4.949-7.17-12.622-8.15-15.319-8.228-6.443-.673-12.694 3.83-15.977 3.83-3.348 0-8.403-3.764-13.851-3.653-7.01.106-13.57 4.139-17.167 10.4-7.424 12.767-1.888 31.528 5.225 41.849 3.559 5.058 7.715 10.699 13.158 10.5 5.323-.215 7.312-3.368 13.736-3.368 6.366 0 8.233 3.368 13.783 3.24 5.713-.087 9.31-5.076 12.743-10.176C82.284 75.9 83.933 70.193 84 69.9c-.13-.047-11.093-4.205-11.205-16.775"/></g></svg><svg viewBox="0 0 100 100" id="php" xmlns="http://www.w3.org/2000/svg"><defs><path id="caa" d="M0 .904h99.792V51H0z"/></defs><g fill="none" fill-rule="evenodd"><path fill="#FFF" d="M74.538 43h-4.231L68 54h3.757c2.49 0 4.345-.435 5.564-1.305 1.219-.87 2.042-2.32 2.468-4.356.41-1.953.223-3.331-.559-4.134-.78-.803-2.345-1.205-4.692-1.205"/><g transform="translate(0 24)"><mask id="cab" fill="#fff"><use xlink:href="#caa"/></mask><path fill="#FFF" d="M86.078 24.19a12.044 12.044 0 0 1-1.318 3.63 12.087 12.087 0 0 1-2.427 3.012c-1.19 1.103-2.513 1.89-3.97 2.36-1.454.468-3.308.703-5.562.703h-5.107l-1.414 7.208h-5.964l5.32-27.114h11.467c3.45 0 5.966.897 7.548 2.69 1.581 1.793 2.057 4.297 1.427 7.511zm-32.88 9.705l2.353-11.998c.267-1.364.17-2.296-.295-2.792-.467-.495-1.456-.745-2.97-.745H47.56l-3.05 15.535h-5.916l5.32-27.116h5.917l-1.415 7.21h5.27c3.316 0 5.603.573 6.863 1.718 1.258 1.147 1.635 3.003 1.132 5.57l-2.475 12.618h-6.01zM35.79 30.832c-1.19 1.103-2.512 1.89-3.968 2.36-1.455.468-3.31.703-5.563.703h-5.107l-1.415 7.208h-5.962l5.32-27.114h11.466c3.45 0 5.966.897 7.547 2.69 1.582 1.793 2.059 4.297 1.427 7.511a12.07 12.07 0 0 1-1.317 3.63 12.114 12.114 0 0 1-2.428 3.012zM49.896.904C22.34.904 0 12.118 0 25.952 0 39.785 22.34 51 49.896 51c27.557 0 49.896-11.215 49.896-25.048 0-13.834-22.34-25.048-49.896-25.048z" mask="url(#cab)"/></g><path fill="#FFF" d="M28.538 43h-4.231L22 54h3.758c2.489 0 4.344-.435 5.563-1.305 1.219-.87 2.042-2.32 2.468-4.356.41-1.953.223-3.331-.558-4.134C32.45 43.402 30.885 43 28.538 43"/></g></svg><svg viewBox="0 0 36 31" id="play-sm" xmlns="http://www.w3.org/2000/svg"><g fill="none" fill-rule="evenodd" stroke="#FFF"><path d="M3.732 13l4.536-7.856a6 6 0 0 1 5.196-3h9.072a6 6 0 0 1 5.196 3L32.268 13a6 6 0 0 1 0 6l-4.536 7.856a6 6 0 0 1-5.196 3h-9.072a6 6 0 0 1-5.196-3L3.732 19a6 6 0 0 1 0-6z"/><path fill="#FFF" stroke-width="1.5" d="M23 16l-7.5 4.33v-8.66z"/></g></svg><svg viewBox="0 0 100 100" id="python" xmlns="http://www.w3.org/2000/svg"><defs><path id="cca" d="M0 .052h60.004v60.589H0z"/></defs><g fill="none" fill-rule="evenodd"><g transform="translate(9 8.948)"><mask id="ccb" fill="#fff"><use xlink:href="#cca"/></mask><path fill="#FFF" d="M29.471 6.045c2.02 0 3.668 1.677 3.668 3.737 0 2.054-1.648 3.714-3.668 3.714-2.027 0-3.668-1.66-3.668-3.714 0-2.06 1.641-3.737 3.668-3.737M40.044.053c-3.343.015-6.534.301-9.343.798-8.272 1.462-9.775 4.52-9.775 10.162v7.451h19.55v2.483H13.59c-5.68 0-10.657 3.415-12.213 9.912-1.795 7.447-1.875 12.093 0 19.87 1.39 5.788 4.708 9.912 10.39 9.912h6.722v-8.933c0-6.453 5.583-12.144 12.213-12.144H50.23c5.435 0 9.775-4.476 9.775-9.935V11.013c0-5.298-4.47-9.279-9.775-10.162A60.832 60.832 0 0 0 40.044.053" mask="url(#ccb)"/></g><path fill="#FFF" d="M60.46 77.038c2.026 0 3.667 1.66 3.667 3.715 0 2.06-1.641 3.736-3.667 3.736-2.02 0-3.669-1.677-3.669-3.737 0-2.053 1.649-3.713 3.669-3.713zm10.98-47.143v8.681c0 6.731-5.706 12.395-12.212 12.395H39.701c-5.349 0-9.775 4.578-9.775 9.935v18.616c0 5.298 4.607 8.414 9.775 9.934 6.188 1.82 12.123 2.15 19.528 0 4.922-1.424 9.775-4.293 9.775-9.934V72.07H49.476v-2.482h29.302c5.682 0 7.8-3.964 9.776-9.912 2.041-6.124 1.954-12.014 0-19.869-1.404-5.657-4.085-9.913-9.776-9.913h-7.337z"/></g></svg><svg viewBox="0 0 100 100" id="react" xmlns="http://www.w3.org/2000/svg"><defs><path id="cda" d="M0 .9h82.085V74H0z"/></defs><g fill="none" fill-rule="evenodd"><g transform="translate(9 12.1)"><mask id="cdb" fill="#fff"><use xlink:href="#cda"/></mask><path fill="#FFF" d="M68.6 45.925c-1.44.619-3.012 1.17-4.635 1.689-.954-3.28-2.209-6.692-3.765-10.19 1.54-3.48 2.777-6.876 3.714-10.14a53.643 53.643 0 0 1 4.703 1.708c5.921 2.527 9.754 5.84 9.754 8.466-.017 2.627-3.849 5.957-9.771 8.467m-8.885 23.842c-.503.302-1.155.435-1.925.435-3.462 0-8.6-2.76-14.053-7.797a78.917 78.917 0 0 0 6.91-8.35c3.78-.401 7.361-1.02 10.64-1.84.386 1.69.687 3.314.87 4.87.788 6.39-.183 11.36-2.442 12.682m-18.639-9.972a68.592 68.592 0 0 1-4.651-5.354c1.506.067 3.044.117 4.6.117 1.574 0 3.13-.033 4.653-.117a65.288 65.288 0 0 1-4.601 5.354m-16.715 10.49c-.753-.016-1.39-.167-1.891-.451-2.276-1.305-3.264-6.274-2.494-12.666.184-1.572.485-3.23.854-4.92 3.28.804 6.86 1.423 10.625 1.825 2.259 3.095 4.6 5.907 6.96 8.366-5.454 5.069-10.574 7.847-14.054 7.847M18.154 47.63a50.9 50.9 0 0 1-4.684-1.706c-5.925-2.526-9.755-5.84-9.755-8.467 0-2.626 3.83-5.956 9.755-8.466 1.438-.62 3.01-1.171 4.633-1.69.954 3.28 2.208 6.693 3.765 10.19-1.54 3.48-2.777 6.876-3.714 10.139M22.37 5.15c.502-.301 1.154-.435 1.924-.435v-.017c3.463 0 8.6 2.76 14.055 7.797a79.019 79.019 0 0 0-6.91 8.349c-3.782.4-7.363 1.02-10.642 1.84a50.445 50.445 0 0 1-.87-4.852c-.785-6.391.184-11.36 2.444-12.682m23.273 15.326a103.465 103.465 0 0 0-4.602-.117c-1.573 0-3.129.034-4.65.117a65.429 65.429 0 0 1 4.6-5.354 69.171 69.171 0 0 1 4.652 5.354m10.206 8.416a90.667 90.667 0 0 0-2.41-3.915c2.377.35 4.669.786 6.86 1.322a75.229 75.229 0 0 1-2.258 6.608 79.553 79.553 0 0 0-2.193-4.015m.018 17.083a95.25 95.25 0 0 0 2.175-4.032 71.624 71.624 0 0 1 2.308 6.659 75.487 75.487 0 0 1-6.892 1.339 92.206 92.206 0 0 0 2.409-3.966m-29.882-8.466a87.107 87.107 0 0 1 3.463-6.676 89.29 89.29 0 0 1 4.032-6.391 86.893 86.893 0 0 1 7.563-.335c2.526 0 5.053.117 7.529.318a92.07 92.07 0 0 1 4.048 6.357 87.028 87.028 0 0 1 3.48 6.66 93.394 93.394 0 0 1-3.462 6.675c-1.305 2.259-2.643 4.4-4.033 6.392a86.835 86.835 0 0 1-7.563.335c-2.526 0-5.053-.117-7.529-.318a92.096 92.096 0 0 1-4.048-6.358 86.654 86.654 0 0 1-3.48-6.66m-4.267-11.21a81.036 81.036 0 0 1 6.892-1.321 91.988 91.988 0 0 0-2.409 3.966 94.019 94.019 0 0 0-2.175 4.015 71.624 71.624 0 0 1-2.308-6.66m4.5 19.728a111.772 111.772 0 0 0 2.41 3.915 75.516 75.516 0 0 1-6.86-1.323 75.341 75.341 0 0 1 2.258-6.608 79.942 79.942 0 0 0 2.192 4.016M57.706 4.632v.016c.77 0 1.39.15 1.908.435 2.277 1.305 3.264 6.275 2.494 12.666-.184 1.572-.485 3.229-.853 4.919-3.28-.804-6.86-1.423-10.626-1.824-2.258-3.095-4.6-5.906-6.96-8.365 5.447-5.063 10.559-7.838 14.038-7.847m24.378 32.826c0-5.437-6.81-10.591-17.25-13.786 2.41-10.642 1.339-19.107-3.38-21.818-1.084-.633-2.35-.934-3.73-.936V.9C53.123.9 47.099 4.18 41.01 9.868 34.919 4.213 28.896.967 24.295.967v.017c-1.407 0-2.678.3-3.782.937-4.702 2.71-5.756 11.16-3.33 21.768C6.777 26.9 0 32.037 0 37.458c0 5.439 6.81 10.592 17.25 13.787-2.41 10.642-1.338 19.108 3.38 21.819 1.088.635 2.36.936 3.765.936 4.6 0 10.624-3.28 16.714-8.968 6.09 5.656 12.114 8.902 16.715 8.902 1.406 0 2.678-.302 3.782-.938 4.702-2.711 5.756-11.16 3.328-21.767 10.374-3.196 17.15-8.35 17.15-13.771" mask="url(#cdb)"/></g><path fill="#FFF" d="M50.026 57.205a7.646 7.646 0 1 0 0-15.292 7.646 7.646 0 1 0 0 15.292"/></g></svg><svg viewBox="0 0 50 50" id="real-estate" xmlns="http://www.w3.org/2000/svg"><g fill="#FFF" fill-rule="evenodd"><path d="M15.555 14.528l-.5.5v23.994l.5.5h16.32l.499-.5V15.028l-.5-.5H15.555zm.5 23.994h15.32V15.528h-15.32v22.994zm17.936-20.554v1h5.146v19.554h-5.058v1h5.558l.5-.5V18.468l-.5-.5zM9.5 22.643l-.5.5v15.878l.5.5h3.783v-1H10V23.645h3.438v-1z"/><path d="M20.613 14.764h1V10h-1zm5.292.087h1V12.47h-1zm-8.454 6.587h4.102v-1h-4.102zm0 3.969h4.102v-1h-4.102zm0 3.971h4.102v-1h-4.102zm0 3.968h4.102v-1h-4.102zm7.983-11.908h1.941v-1h-1.94zm0 3.969h1.941v-1h-1.94zm0 3.971h1.941v-1h-1.94zm0 3.968h1.941v-1h-1.94zm11.821-9.614h1.941v-1h-1.94zm0 3.969h1.941v-1h-1.94zm0 3.97h1.941v-1h-1.94zm0 3.969h1.941v-1h-1.94zm-14.261 3.293h1v-3.088h-1z"/></g></svg><svg viewBox="0 0 16 47" id="slider-left" xmlns="http://www.w3.org/2000/svg"><path fill="none" stroke="#FFF" stroke-width="2" d="M14.337 46L2 24.264 14.337 1"/></svg><svg viewBox="0 0 15 47" id="slider-right" xmlns="http://www.w3.org/2000/svg"><path fill="none" stroke="#FFF" stroke-width="2" d="M1 46l12.337-21.736L1 1"/></svg><svg viewBox="0 0 100 100" id="spark" xmlns="http://www.w3.org/2000/svg"><defs><path id="cha" d="M.918.54h36.779v31.614H.917z"/><path id="chc" d="M.605.148h21.49V25H.605z"/></defs><g fill="none" fill-rule="evenodd"><g transform="translate(62 23)"><mask id="chb" fill="#fff"><use xlink:href="#cha"/></mask><path fill="#FFF" d="M29.22 27.201c-.085-.187-.124-.281-.17-.373-1.247-2.42-2.49-4.842-3.747-7.256-.127-.241-.111-.387.062-.594 1.982-2.365 3.953-4.74 5.927-7.112a.654.654 0 0 0 .158-.32c-.577.154-1.154.306-1.73.463-2.395.648-4.79 1.294-7.183 1.95-.223.063-.324-.004-.435-.194-1.36-2.32-2.726-4.635-4.092-6.952a.944.944 0 0 0-.297-.338c-.11.617-.222 1.236-.33 1.855l-1.139 6.55c-.041.236-.098.47-.117.708-.02.226-.132.309-.332.373-2.822.905-5.642 1.819-8.46 2.731a.949.949 0 0 0-.379.215l6.955 2.825c-.085.069-.14.122-.203.163-1.441.954-2.886 1.903-4.324 2.861-.172.115-.31.131-.503.042-1.721-.792-3.45-1.57-5.176-2.357-.774-.354-1.47-.823-2.014-1.5-1.226-1.533-.984-3.277.651-4.343.535-.347 1.142-.61 1.747-.811 2.765-.92 5.539-1.807 8.312-2.697.232-.074.34-.18.383-.438a952.5 952.5 0 0 1 1.138-6.551c.206-1.167.316-2.365.872-3.433.214-.411.47-.814.773-1.16 1.101-1.247 2.637-1.296 3.801-.106.392.4.73.874 1.023 1.36A586.035 586.035 0 0 1 24.19 9.2c.148.255.281.306.557.23 3.091-.847 6.187-1.68 9.282-2.515.639-.173 1.285-.237 1.94-.112 1.426.274 2.05 1.383 1.567 2.79-.22.642-.598 1.185-1.025 1.696-2.16 2.595-4.316 5.193-6.483 7.781-.177.212-.18.365-.058.601 1.293 2.49 2.575 4.985 3.86 7.479.309.597.543 1.216.55 1.901a3.044 3.044 0 0 1-2.616 3.061c-.849.127-1.638-.058-2.433-.31a777.17 777.17 0 0 0-5.825-1.81c-.18-.056-.249-.128-.28-.326-.224-1.396-.467-2.791-.704-4.186-.007-.039.005-.08.01-.165l6.69 1.885" mask="url(#chb)"/></g><path fill="#FFF" d="M88 71c-1.736-.004-3.474-.012-5.211-.005-.23.001-.359-.067-.487-.265-2.057-3.188-4.123-6.368-6.187-9.55-.066-.1-.135-.2-.252-.369-.445 3.437-.88 6.797-1.314 10.165H70c.053-.45.1-.886.156-1.32l1.335-10.353c.426-3.297.85-6.593 1.283-9.89a.436.436 0 0 1 .155-.275 1078.17 1078.17 0 0 1 4.707-3.097c.022-.016.055-.018.136-.041l-1.418 11.002.056.04 7.445-8.398c.074.428.136.794.197 1.16.178 1.048.347 2.096.535 3.142.04.211-.016.342-.154.489-1.593 1.697-3.18 3.399-4.77 5.1-.069.074-.136.151-.215.24.05.082.094.162.145.235 2.74 3.914 5.481 7.827 8.225 11.737.049.072.12.127.182.19V71"/><g transform="translate(16 51)"><mask id="chd" fill="#fff"><use xlink:href="#chc"/></mask><path fill="#FFF" d="M5.659 17.935c-.137 1.03-.268 2.002-.396 2.973a837.546 837.546 0 0 0-.5 3.876c-.018.15-.063.217-.225.216-1.27-.005-2.538-.003-3.807-.005-.029 0-.057-.017-.126-.036.076-.61.151-1.221.23-1.833.28-2.142.56-4.284.844-6.426.325-2.45.583-4.91.998-7.344.737-4.308 4.38-8.022 8.655-8.947 2.48-.536 4.851-.287 7.015 1.113 2.158 1.395 3.396 3.419 3.678 5.967.399 3.602-.923 6.591-3.472 9.064-1.674 1.625-3.677 2.657-5.988 3.005-2.38.36-4.619-.038-6.627-1.445-.074-.052-.153-.097-.28-.178M17.87 9.034c-.071-.36-.12-.891-.28-1.387-.774-2.394-3.224-3.708-5.759-3.115-2.78.648-4.767 2.842-5.054 5.69-.213 2.105.917 4.133 3.018 4.895 1.693.614 3.324.356 4.837-.553 2.006-1.208 3.094-3.001 3.238-5.53" mask="url(#chd)"/></g><path fill="#FFF" d="M20 48.946l-4.19 3.07c-.222-.346-.422-.69-.655-1.011-.6-.826-1.346-1.444-2.43-1.519-.902-.061-1.672.23-2.286.886-.549.584-.62 1.417-.107 2.077a29.653 29.653 0 0 0 1.813 2.091c1.047 1.117 2.14 2.19 3.179 3.312.946 1.021 1.7 2.167 1.932 3.563.278 1.66-.059 3.24-.856 4.7-1.476 2.7-3.8 4.265-6.868 4.755-1.356.217-2.707.173-4.029-.21-1.755-.508-2.976-1.641-3.762-3.239-.277-.565-.489-1.162-.741-1.767l4.542-2.394c.053.125.09.229.14.325.258.509.469 1.049.789 1.518.948 1.387 2.48 1.81 4.034 1.124a4.475 4.475 0 0 0 1.112-.711c1-.876 1.188-2.094.447-3.194-.425-.633-.958-1.2-1.477-1.767-1.24-1.355-2.53-2.667-3.74-4.046-.834-.95-1.4-2.059-1.58-3.332a5.64 5.64 0 0 1 .821-3.873c1.826-2.908 4.482-4.423 7.994-4.297 2.002.071 3.596.994 4.834 2.524.365.453.709.924 1.084 1.415M53.28 64.48c-.225 1.823-.436 3.554-.657 5.284-.012.088-.077.207-.146.243-3.337 1.637-7.73 1.41-10.47-1.89-1.472-1.773-2.09-3.877-1.998-6.218.213-5.418 4.45-10.15 9.517-10.81 2.96-.385 5.556.462 7.56 2.901 1.366 1.66 1.998 3.644 1.905 5.833-.061 1.446-.275 2.885-.445 4.325-.24 2.039-.503 4.075-.758 6.112-.008.072-.022.144-.038.235h-3.99c.053-.468.101-.926.158-1.383.289-2.353.606-4.702.859-7.059.158-1.468.058-2.925-.574-4.283-.673-1.446-1.802-2.211-3.287-2.378-3.074-.344-5.997 1.92-6.653 5.128-.434 2.117.249 4.146 1.84 5.268 1.549 1.093 3.209 1.097 4.897.389.856-.36 1.586-.929 2.28-1.697M70 52.017l-.577 4.384c-.894 0-1.77-.005-2.645.002-.71.006-1.358.464-1.571 1.128-.084.258-.114.536-.15.81-.444 3.365-.885 6.732-1.327 10.099L63.4 71H59c.083-.647.16-1.274.242-1.9.286-2.181.572-4.362.862-6.544.25-1.888.473-3.779.768-5.66.395-2.52 2.901-4.76 5.443-4.87 1.213-.052 2.43-.01 3.685-.01m19.913 17.251V71h-.315v-1.733H89V69h1.51v.267h-.597zM92.684 71v-1.67h-.009L92.05 71h-.2l-.625-1.67h-.01V71h-.314v-2h.486l.57 1.519.561-1.519H93v2h-.316zM26.649 46.934h-1.802L24.275 48H23l2.813-5h1.23L28 48h-1.182l-.17-1.066zm-1.253-1.007h1.083l-.256-1.56-.827 1.56zM30.902 43h1.64c.857 0 1.458.5 1.458 1.36 0 1.08-.782 1.808-1.894 1.808h-.707L31.067 48H30l.902-5m1.511 1.007h-.623l-.211 1.154h.624c.377 0 .677-.242.677-.699 0-.3-.188-.455-.467-.455m6.235 2.927h-1.8L36.274 48H35l2.813-5h1.229L40 48h-1.183l-.17-1.066zm-1.252-1.007h1.082l-.256-1.56-.826 1.56zm8.909 1.823c-.355.157-.746.25-1.14.25-1.33 0-2.165-.961-2.165-2.165C43 44.295 44.345 43 45.942 43c.4 0 .762.093 1.058.25l-.148 1.16c-.222-.236-.577-.398-1.02-.398-.917 0-1.73.797-1.73 1.724 0 .704.458 1.252 1.183 1.252a1.92 1.92 0 0 0 1.16-.39l-.14 1.153m6.166-1.766h-2.114L50.014 48H49l.858-5h1.013l-.342 1.977h2.114L52.985 43H54l-.857 5H52.13zM56 48l.965-5H60l-.193 1.007h-1.892l-.192.97h1.737l-.193 1.008h-1.739l-.193 1.007h1.893L59.034 48z"/></g></svg><svg viewBox="0 0 100 100" id="swift" xmlns="http://www.w3.org/2000/svg"><defs><path id="cia" d="M0 0h75.468v66.79H0z"/></defs><g fill="none" fill-rule="evenodd" transform="translate(12 17)"><mask id="cib" fill="#fff"><use xlink:href="#cia"/></mask><path fill="#FFF" d="M75.429 64.7a42.741 42.741 0 0 1-1.404 1.742c-1.527-2.45-3.923-4.874-7.515-5.3-7.654-.908-10.573 4.229-18.627 5.236C16.47 70.404 0 43.52 0 43.52c13.302 10.177 31.529 12.523 43.274 5.022l-.125-.086c-15.273-10.77-31.32-32.149-35.04-37.248-.523-.717-.803-1.113-.803-1.113.33.294.662.587.994.88 14.057 12.38 29.816 22.277 29.816 22.277C26.028 21.164 16.616 6.302 16.47 6.07c16.11 17.62 37.05 30.203 37.05 30.203C60.224 15.963 46.447.197 46.273 0c.192.105 16.344 9.191 22.25 26.808 2.792 8.33 2.069 15.57.519 20.904v.002c5.357 5.92 6.685 12.758 6.387 16.987" mask="url(#cib)"/></g></svg><svg viewBox="0 0 50 50" id="telecom" xmlns="http://www.w3.org/2000/svg"><defs><path id="cja" d="M0 32h20.238V.019H0z"/></defs><g fill="none" fill-rule="evenodd"><path fill="#FFF" d="M20.71 38.052l-.97-.238 4.252-17.327.485-.381h1.374v1h-.982z"/><path fill="#FFF" d="M25.944 23.082l4.27 17.4H19.477v.999h11.375l.485-.62-4.422-18.017z"/><g transform="translate(15 9.48)"><path fill="#FFF" d="M10.165 6.396c-.643 0-1.167.523-1.167 1.166a1.167 1.167 0 1 0 1.167-1.166m0 3.333a2.169 2.169 0 0 1-2.167-2.167 2.17 2.17 0 0 1 2.167-2.166c1.195 0 2.166.972 2.166 2.166a2.169 2.169 0 0 1-2.166 2.167m-3.427 1.318A4.764 4.764 0 0 1 5.15 7.5a4.72 4.72 0 0 1 1.44-3.408l.697.717A3.725 3.725 0 0 0 6.151 7.5a3.76 3.76 0 0 0 1.254 2.801l-.667.746z"/><path fill="#FFF" d="M5.021 13.198a7.493 7.493 0 0 1-.116-11.264l.668.744a6.49 6.49 0 0 0 .101 9.762l-.652.758z"/><path fill="#FFF" d="M3.538 15.106A9.905 9.905 0 0 1 3.426.024l.655.756a8.906 8.906 0 0 0 .1 13.56l-.643.766zm10.11-4.074l-.697-.716a3.726 3.726 0 0 0 1.136-2.691 3.76 3.76 0 0 0-1.254-2.801l.666-.746a4.76 4.76 0 0 1 1.588 3.547 4.72 4.72 0 0 1-1.439 3.407"/><path fill="#FFF" d="M15.334 13.192l-.668-.745a6.492 6.492 0 0 0-.101-9.762l.651-.758a7.49 7.49 0 0 1 2.61 5.683c0 2.126-.909 4.16-2.492 5.582"/><path fill="#FFF" d="M16.812 15.101l-.655-.756a8.907 8.907 0 0 0-.101-13.56l.643-.766a9.906 9.906 0 0 1 .113 15.082"/><mask id="cjb" fill="#fff"><use xlink:href="#cja"/></mask><path fill="#FFF" d="M9.17 18.416h1.989v-1h-1.99zm-.777 4.418h3.543v-1H8.393zm-.77 4.416h5.083v-1H7.623z" mask="url(#cjb)"/></g></g></svg><svg viewBox="0 0 100 100" id="unity" xmlns="http://www.w3.org/2000/svg"><path fill="#FFF" fill-rule="evenodd" d="M82.185 8l-33.563 8.966-4.969 8.735-10.083-.072L9 50.122l24.57 24.486 10.079-.075 4.977 8.736 33.562 8.967 8.994-33.453-5.107-8.664 5.107-8.662h.001L82.189 8h-.004zm-37.72 19.109l25.673-6.581-14.74 25.455H25.914l18.551-18.874zm18.118 23.01l14.741-25.455 7.123 25.455-7.123 25.449-14.741-25.449zM44.466 73.127L25.915 54.252h29.484-.001l14.743 25.451-25.675-6.576z"/></svg><svg viewBox="0 0 80 74" id="up-button-hexagon" xmlns="http://www.w3.org/2000/svg"><path fill="none" stroke="#FFF" d="M2.178 32l14.58-25.255a10 10 0 0 1 8.66-5h29.163a10 10 0 0 1 8.66 5L77.822 32a10 10 0 0 1 0 10l-14.58 25.255a10 10 0 0 1-8.66 5H25.418a10 10 0 0 1-8.66-5L2.178 42a10 10 0 0 1 0-10z"/></svg><svg viewBox="0 0 100 100" id="vertica" xmlns="http://www.w3.org/2000/svg"><defs><path id="cma" d="M.037.106h79.497v12.825H.037z"/></defs><g fill="none" fill-rule="evenodd"><g transform="translate(10.345 53.206)"><mask id="cmb" fill="#fff"><use xlink:href="#cma"/></mask><path fill="#FFF" d="M.196 12.906c-.24-.09-.194-3.017.044-3.017h37.737c20.644 0 37.765-.045 38.02-.09l.476-.09.03-4.808.045-4.795h2.986v12.771l-39.602.045c-21.764.014-39.662.014-39.736-.016" mask="url(#cmb)"/></g><path fill="#FFF" d="M10.271 59.182c-.074-.104-1.492-2.613-3.134-5.57-1.627-2.958-3.926-7.08-5.09-9.172-1.164-2.076-2.09-3.882-2.045-4.002.075-.164.432-.194 1.76-.164l1.673.045.731 1.27c.404.701 1.971 3.509 3.493 6.242 1.523 2.719 2.806 4.96 2.866 4.96.09 0 .896-1.39 4.762-8.29l2.344-4.182h13.135v2.987l-5.568.075-5.567.074-.373.672-4.016 7.17c-4.284 7.69-4.433 7.945-4.642 8.02-.09.03-.239-.03-.329-.135"/><path fill="#FFF" d="M73.31 58.36c-5.793-1.224-8.808-7.81-6.091-13.322 1.09-2.21 3.344-4.017 5.792-4.645 2.135-.552 4.881-.298 6.673.613.94.478 2.507 1.762 2.507 2.06 0 .269-1.239 2.48-1.478 2.615-.074.059-.537-.255-1.015-.658a10.373 10.373 0 0 0-1.836-1.239c-.88-.434-1.09-.478-2.388-.478-1.284 0-1.508.044-2.434.478-2.507 1.195-4.03 3.972-3.567 6.497a6.33 6.33 0 0 0 5.075 5.078c1.747.328 3.792-.344 5.105-1.658.643-.658 1.568-2.15 6.628-10.843 1.866-3.182 2.015-3.406 2.254-3.241.09.06 1.866 3.062 3.955 6.676 2.076 3.614 4.479 7.78 5.33 9.245.85 1.478 1.522 2.763 1.477 2.882-.06.15-.477.195-1.701.195-1.358 0-1.657-.045-1.866-.254-.119-.15-1.82-3.018-3.777-6.377-2.85-4.885-3.582-6.05-3.701-5.855-.09.119-1.27 2.12-2.628 4.435-2.94 5.018-3.716 5.945-5.822 6.975-.7.344-1.671.732-2.164.852-1.104.283-2.955.269-4.329-.03m-11.045.075c-.046-.105-.06-4.227-.046-9.155l.046-8.963h2.985V58.54l-1.463.045c-1.075.03-1.477-.015-1.522-.15m-10.151 0c-.045-.104-.09-3.524-.12-7.587l-.03-7.393-2.12-.045-2.104-.045-.463-.806a9.728 9.728 0 0 0-1.015-1.434c-.343-.374-.492-.642-.388-.746.09-.09 3-.12 7.748-.105l7.597.044v2.988l-3.015.044-3.03.03-.03 7.588-.045 7.572-1.463.045c-1.075.03-1.477-.015-1.522-.15m-9.524-10.962c.762-.3 1.12-1.001 1.045-2.061-.045-.762-.12-.941-.522-1.3-.732-.657-1.344-.747-4.911-.702l-3.255.045-.044 1.792c-.06 2.718-.359 2.45 2.85 2.495 3.195.06 4.18 0 4.837-.27M31.812 58.437c-.045-.105-.06-4.227-.045-9.155l.045-8.963 4.926-.044c3.12-.03 5.284.014 5.896.12 1.985.343 3.449 1.523 3.956 3.195.283.942.283 3.107 0 4.063-.254.85-1.015 1.822-1.837 2.316-.298.179-.567.343-.596.357-.016.015.776 1.509 1.776 3.301 2.269 4.092 2.552 4.66 2.448 4.839-.06.09-.822.15-1.717.15h-1.642l-.343-.553c-.195-.313-1.12-1.942-2.045-3.63-.925-1.687-1.776-3.18-1.91-3.314-.195-.24-.538-.27-2.941-.27H35.05l-.09 1.389c-.06.747-.089 2.42-.06 3.69.015 1.268-.014 2.404-.074 2.509-.09.12-.567.179-1.537.179-.986 0-1.433-.06-1.478-.18m-13.883 0c-.045-.104-.06-2.509-.045-5.346l.045-5.153h12.837v2.987l-4.88.045-4.896.03v4.48l4.895.03 4.881.045v2.987l-6.388.045c-5.045.03-6.404 0-6.449-.15"/><path fill="#FFF" d="M9.122 45.59c-.044-.104-.06-2.987-.044-6.392l.044-6.197h79.264v2.986l-38.095.045-38.108.03-.03 4.824-.045 4.81-1.463.044c-1.074.03-1.478-.015-1.523-.15"/></g></svg><svg viewBox="0 0 100 100" id="vue" xmlns="http://www.w3.org/2000/svg"><path fill="#FFF" fill-rule="evenodd" d="M76 13L53.916 51.249 76 13H60.315l-9.816 17-9.814-17H8l42.499 73.611L92.999 13H76zM52.232 31l9.237-16h11.066L50.499 53.167 28.464 15H39.53l9.238 16 1.731 3 1.733-3z"/></svg></svg>