<?xml version="1.0" encoding="UTF-8"?>
<svg width="160px" height="50px" viewBox="0 0 160 50" version="1.1" xmlns="http://www.w3.org/2000/svg">
    <title>clients-logo-danads-left-black</title>
    <g id="partners-and-products-page" stroke="none" stroke-width="1" fill="none" fill-rule="evenodd">
        <g id="partners-and-products-page/logos" transform="translate(-50.000000, -50.000000)">
            <g id="clients-logo-danads-left-black" transform="translate(50.000000, 50.000000)">
                <rect id="bounding_box" x="0" y="0" width="160" height="50"></rect>
                <g id="DanAds" transform="translate(0.000000, 8.000000)" fill="#000000">
                    <path d="M38,24.7461975 L38,8.88941837 C38,8.38377179 38.1643223,7.93530909 38.5102061,7.58476402 C38.8384839,7.21502709 39.2577258,7.03955872 39.7316196,7.03955872 L44.5068696,7.03955872 C47.0399272,7.03955872 48.9355023,7.76023239 50.1752553,9.20197141 C51.4326143,10.7208695 52.0521241,12.9420328 52.0521241,15.9026699 C52.0521241,17.4807102 51.8338835,18.9024741 51.3959353,20.1691364 C50.8677564,21.4741824 50.1928613,22.4678504 49.3730837,23.149357 C48.6925208,23.7119216 47.9200475,24.1346495 47.0949458,24.3960441 C46.3298201,24.6302631 45.1634252,24.7465892 43.5777884,24.7465892 L38,24.7465892 L38,24.7461975 L38,24.7461975 Z M41.3168896,21.5513415 L44.0689213,21.5513415 C45.6362186,21.5513415 46.8026135,21.1036621 47.5321605,20.2267119 C48.2426344,19.3889288 48.5896185,17.9475814 48.5896185,15.9022782 C48.5896185,13.896142 48.2609739,12.454403 47.5868123,11.5190939 C46.9485963,10.5845682 45.9102114,10.1361055 44.5068696,10.1361055 L41.3172564,10.1361055 L41.3172564,21.5513415 L41.3168896,21.5513415 L41.3168896,21.5513415 Z M61.5112932,17.8504472 C61.055739,18.0846661 60.4175229,18.3181017 59.6157181,18.5127619 C58.8869047,18.687447 58.5223146,18.7849729 58.5223146,18.7849729 C57.9391171,18.9600496 57.5198752,19.1742934 57.2649556,19.4476794 C57.0463482,19.8174163 56.9183382,20.2067367 56.9183382,20.577257 C56.9183382,21.1036621 57.0639542,21.5125661 57.3559197,21.8243358 C57.6475184,22.0965468 58.0667604,22.2332398 58.6129119,22.2332398 C59.5067812,22.2332398 60.2168883,21.9602454 60.7278279,21.3954566 C61.238034,20.8498597 61.5112932,20.0900189 61.5112932,19.1359097 L61.5112932,17.8504472 Z M62.2771525,24.1814087 C61.6045513,24.5487851 60.8763665,24.7861426 60.1262909,24.8824989 C59.379138,24.9604413 58.7049764,24.9996083 58.1214122,24.9996083 C56.9729901,24.9996083 55.9705507,24.6682551 55.0961213,24.006332 C54.2209583,23.3440172 53.8020832,22.2336314 53.8020832,20.6751746 C53.8020832,19.2334356 54.1842793,18.2205758 54.9684781,17.597428 C55.7699161,16.9742803 56.773089,16.564593 57.993769,16.3695411 C58.1393849,16.3695411 58.3400195,16.3311574 58.5586269,16.2724068 C58.8136691,16.2309273 59.0690904,16.19215 59.324853,16.1560807 C60.7461675,15.9410536 61.4570081,15.5121744 61.4570081,14.8118676 C61.4570081,14.3046544 61.2013549,13.9733011 60.7094884,13.8181996 C60.2172551,13.6627064 59.7437281,13.5839807 59.324853,13.5839807 C58.8872715,13.5839807 58.4863691,13.6423396 58.121779,13.7786409 C57.7755284,13.9153339 57.520242,14.1883282 57.3566533,14.5580651 L54.1307278,14.5580651 C54.2587378,13.4864547 54.7139252,12.6098962 55.4794177,11.9287813 C56.3545807,11.149357 57.5936002,10.7400614 59.1972097,10.7400614 C60.9838479,10.7400614 62.3321711,11.0714146 63.2432796,11.732946 C64.1727276,12.415236 64.6286486,13.3701286 64.6286486,14.6168157 L64.6286486,19.2914028 C64.6286486,20.6548078 64.4100412,21.7460017 63.9357807,22.5058424 C63.4615201,23.2856583 62.9142682,23.8500555 62.2771525,24.1814087 L62.2771525,24.1814087 Z M77.6405538,24.7461975 L75.9456133,24.7461975 C75.4720863,24.7461975 75.0711839,24.5907044 74.7792184,24.2597428 C74.4692802,23.9279979 74.3056914,23.5190939 74.3056914,22.9934722 L74.3056914,16.0001958 C74.3056914,15.1823879 74.0863505,14.578432 73.6128235,14.2083034 C73.1698303,13.8247292 72.6154612,13.6180791 72.0451595,13.6239311 C71.4803016,13.6239311 70.951756,13.818983 70.5145413,14.2083034 C70.058987,14.578432 69.8396461,15.1823879 69.8396461,16.0001958 L69.8396461,24.7465892 L66.4681047,24.7465892 L66.4681047,16.7212612 C66.4681047,14.3837718 67.0336961,12.8249233 68.1817515,12.0270905 C69.3118341,11.2476663 70.5695599,10.8187871 71.9545621,10.7412364 C73.3762434,10.7412364 74.669548,11.150532 75.8542824,11.9299563 C77.0390168,12.7273973 77.6405538,14.3250212 77.6405538,16.7212612 L77.6405538,24.7461975 L77.6405538,24.7461975 Z M86.6441687,7.03955872 L89.3415486,7.03955872 L95.3554513,24.7461975 L91.7473297,24.7461975 L90.6352199,21.1040538 L84.1833689,21.1040538 L83.1266445,24.7461975 L79.5174226,24.7461975 L85.0031464,8.22749527 C85.2954788,7.44767935 85.8427307,7.03955872 86.6441687,7.03955872 Z M87.4096612,10.5845682 L85.0948442,18.103858 L89.7244782,18.103858 L87.4096612,10.5845682 Z M104.724023,7 L106.364312,7 C106.820233,7 107.202796,7.17586004 107.512734,7.52601345 C107.841378,7.89653372 108.005334,8.30504602 108.005334,8.73353352 L108.005334,18.7853646 C108.005334,21.2207716 107.348778,22.8571708 106.036767,23.7137542 C104.706417,24.5711208 103.284736,24.9996083 101.735411,24.9996083 C100.915634,24.9996083 100.094389,24.8629153 99.2933178,24.5711208 C98.4907794,24.278543 97.8349574,23.8116718 97.3610636,23.1489653 C96.4319824,21.8826947 95.9577218,20.1491612 95.9577218,17.9475814 C95.9577218,15.7851687 96.4319824,14.0520269 97.3610636,12.7661727 C98.3268239,11.421568 99.566577,10.740453 101.060883,10.740453 C101.863421,10.740453 102.573528,10.9155297 103.193405,11.2664665 C103.830521,11.6757621 104.341093,12.2009922 104.724023,12.863307 L104.724023,7 L104.724023,7 Z M99.2382992,17.7924799 C99.2382992,19.174685 99.475246,20.2271036 99.9491398,20.9477773 C100.441373,21.6688426 101.133874,22.0193877 102.027377,22.0193877 C102.901806,22.0193877 103.576334,21.6684509 104.050595,20.9477773 C104.505416,20.2271036 104.72439,19.1750767 104.72439,17.7924799 C104.72439,16.564593 104.48781,15.5909002 104.013549,14.8702265 C103.484637,14.1887199 102.810842,13.8377831 101.936413,13.8377831 C101.097929,13.8377831 100.441373,14.2075201 99.9491398,14.9281937 C99.4756128,15.610092 99.2382992,16.564593 99.2382992,17.7924799 Z M109.645256,20.2271036 L112.925466,20.2271036 C112.944173,20.9090019 113.180753,21.4158235 113.636674,21.7659769 C114.12854,22.0973301 114.766023,22.2724068 115.568561,22.2724068 C116.151759,22.2724068 116.643992,22.1560807 117.0625,21.9218617 C117.44543,21.6880345 117.627358,21.3570729 117.627358,20.9477773 C117.627358,20.3246295 116.953197,19.8573667 115.60414,19.545597 C115.039282,19.4484627 114.602067,19.3509367 114.310835,19.2338273 C112.615895,18.8053398 111.467106,18.2597428 110.884275,17.6557869 C110.246793,17.0322475 109.936488,16.2144396 109.936488,15.1823879 C109.936488,13.8765585 110.392042,12.7861479 111.32149,11.9295646 C112.28725,11.1501403 113.545343,10.7408447 115.075961,10.7408447 C116.752562,10.7408447 118.082912,11.1501403 119.085352,11.9295646 C120.0148,12.7861479 120.506666,13.8965337 120.580024,15.2795222 L118.502154,15.2795222 C117.900617,15.2795222 117.42709,14.987336 117.099179,14.402572 L116.715883,13.9944513 C116.33332,13.6818983 115.805141,13.5267968 115.130613,13.5267968 C114.492397,13.5267968 114.00053,13.6239311 113.690959,13.8385665 C113.398993,14.032835 113.253744,14.3446047 113.253744,14.7738756 C113.253744,15.3186892 114.091494,15.7863438 115.750856,16.156864 C115.950757,16.2344148 116.114713,16.2731902 116.261429,16.3119655 C116.406678,16.3515243 116.534321,16.3699328 116.680671,16.3699328 C118.302253,16.7988119 119.450675,17.3248254 120.088525,17.9095894 C120.708034,18.5135453 121,19.3513284 121,20.3837718 C121,21.8830864 120.489427,23.0522227 119.468648,23.8700307 C118.502521,24.6298714 117.0625,25 115.13098,25 C113.308029,25 111.941733,24.6106795 111.048231,23.8312553 C110.100443,23.0326392 109.645256,21.8830864 109.645256,20.3837718 L109.645256,20.2271036 L109.645256,20.2271036 Z" id="Shape"></path>
                    <path d="M0,9.83551757 C0,8.85717248 0.234752589,8.02483275 1.33620011,7.40840617 L13.1123493,0.597857322 C13.8166071,0.181323353 14.4129368,0 14.9907335,0 C15.5863364,0 16.1826661,0.181323353 16.8872873,0.597857322 L28.6634365,7.40840617 C29.7470777,8.02483275 30,8.85717248 30,9.83551757 L30,24.1640676 C30,25.1416845 29.7470777,25.9747524 28.6634365,26.5900867 L16.8872873,33.4192048 C16.1830295,33.8175336 15.5863364,34.0170621 14.9907335,33.998857 C14.4129368,34.0170621 13.8166071,33.8175336 13.1123493,33.4192048 L1.33620011,26.5900867 C0.234752589,25.9747524 0,25.1413204 0,24.1640676 L0,9.83551757 Z M14.9907335,4.6918328 C11.6133487,4.6918328 8.54303192,6.06814259 6.32160378,8.29681778 C4.01431602,10.6059627 2.72064709,13.7412245 2.7268867,17.0087131 C2.7268867,20.3956003 4.09981225,23.4751845 6.32160378,25.7034956 C8.54303192,27.9307144 11.6133487,29.3077688 14.9907335,29.3077688 C18.2499322,29.3130892 21.3766719,28.0158422 23.6780328,25.7034956 C25.9001878,23.4751845 27.2723639,20.3956003 27.2723639,17.0087131 C27.2723639,13.7299645 25.9903095,10.7414061 23.9127854,8.5316643 L23.9127854,17.0087131 C23.9127854,19.4718707 22.9196293,21.6994536 21.2938041,23.3299074 C19.6868754,24.942156 17.4650839,25.9383421 14.9907335,25.9383421 C12.5345527,25.9383421 10.3127612,24.942156 8.68729938,23.3299074 C7.07964387,21.6998177 6.0861244,19.4722348 6.0861244,17.0087131 C6.0861244,14.5273504 7.08000727,12.2994034 8.68729938,10.6871548 C10.3127612,9.0574292 12.5345527,8.06087896 14.9907335,8.06087896 C17.1038701,8.06087896 19.0185937,8.78580827 20.5535703,9.99936397 L20.5535703,6.01389122 C18.8735994,5.16261813 16.9955787,4.6918328 14.9907335,4.6918328 L14.9907335,4.6918328 Z M14.9907335,11.429561 C13.4731997,11.429561 12.0824905,12.0634646 11.0711647,13.0600148 C10.0780086,14.074042 9.44606626,15.468921 9.44606626,17.0087131 C9.44606626,18.5488693 10.078372,19.924815 11.0711647,20.9395704 C12.1092116,21.9837271 13.5198283,22.5702504 14.9907335,22.5692971 C15.5507238,22.5692971 16.092181,22.4789984 16.5976622,22.3348136 L16.5976622,18.494618 C16.5802192,18.5113667 16.5620495,18.529936 16.5438798,18.5485052 C16.1466901,18.946834 15.6045061,19.2002498 14.9907335,19.2002498 C14.3944037,19.2002498 13.8525831,18.946834 13.4553934,18.5485052 C13.0578402,18.1498123 12.8049179,17.6065704 12.8049179,17.0087131 C12.8049179,16.3926506 13.0578402,15.8497729 13.4553934,15.45108 C13.8621277,15.0427912 14.4149931,14.8145269 14.9907335,14.8171764 C15.6045061,14.8171764 16.1466901,15.0527512 16.5438798,15.45108 C16.9410696,15.8494088 17.1758222,16.3926506 17.1758222,17.0087131 L17.1758222,22.1163517 C17.8444673,21.845459 18.4226273,21.428925 18.9281085,20.9395704 C19.9212646,19.924815 20.553207,18.5485052 20.553207,17.0087131 C20.553207,15.468921 19.9212646,14.074042 18.9281085,13.0600148 C17.9171461,12.0634646 16.5257101,11.429561 14.9907335,11.429561 L14.9907335,11.429561 Z" id="Shape"></path>
                    <path d="M127.285156,13 L127.285156,9.44628906 L128.591797,9.44628906 L128.591797,8.734375 L125.117188,8.734375 L125.117188,9.44628906 L126.40625,9.44628906 L126.40625,13 L127.285156,13 Z M130.57168,13 L130.57168,11.8339844 L130.483789,9.82421875 L131.632227,13 L132.235742,13 L133.387109,9.82128906 L133.299219,11.8339844 L133.299219,13 L134.181055,13 L134.181055,8.734375 L133.026758,8.734375 L131.936914,11.828125 L130.841211,8.734375 L129.692773,8.734375 L129.692773,13 L130.57168,13 Z" id="TM" fill-rule="nonzero"></path>
                </g>
            </g>
        </g>
    </g>
</svg>