<?xml version="1.0" encoding="UTF-8"?>
<svg width="160px" height="50px" viewBox="0 0 160 50" version="1.1" xmlns="http://www.w3.org/2000/svg" xmlns:xlink="http://www.w3.org/1999/xlink">
    <title>сlients-left-black-сollective</title>
    <g id="Symbols" stroke="none" stroke-width="1" fill="none" fill-rule="evenodd">
        <g id="сlients-left-black-сollective">
            <rect id="bounding_box" x="0" y="0" width="160" height="50"></rect>
            <g id="Collective" transform="translate(0.000000, 7.000000)" fill="#000000" fill-rule="nonzero">
                <path d="M18,29.08125 C18.140625,31.33125 18.309375,33.553125 18.45,35.803125 C18.1125,35.803125 17.803125,35.803125 17.465625,35.803125 C17.60625,33.553125 17.775,31.303125 17.915625,29.08125 C17.94375,29.08125 17.971875,29.08125 18,29.08125 Z M17.94375,6.946875 C17.971875,6.946875 18,6.946875 18.028125,6.946875 C18.16875,4.696875 18.3375,2.475 18.478125,0.196875 C18.140625,0.196875 17.83125,0.196875 17.49375,0.196875 C17.634375,2.446875 17.775,4.696875 17.94375,6.946875 Z M16.059375,7.03125 C15.80625,4.809375 15.58125,2.559375 15.328125,0.28125 C14.990625,0.3375 14.68125,0.39375 14.34375,0.421875 C14.90625,2.64375 15.440625,4.8375 15.975,7.03125 C16.003125,7.059375 16.03125,7.059375 16.059375,7.03125 Z M0.3375,15.384375 C2.615625,15.6375 4.865625,15.8625 7.0875,16.115625 C7.0875,16.0875 7.0875,16.059375 7.0875,16.03125 C4.89375,15.496875 2.728125,14.9625 0.478125,14.4 C0.45,14.7375 0.39375,15.046875 0.3375,15.384375 Z M19.9125,7.03125 C20.446875,4.8375 20.98125,2.64375 21.54375,0.45 C21.178125,0.39375 20.896875,0.3375 20.559375,0.28125 C20.30625,2.559375 20.08125,4.78125 19.85625,7.03125 C19.85625,7.03125 19.884375,7.03125 19.9125,7.03125 Z M15.975,28.884375 C15.440625,31.078125 14.90625,33.24375 14.34375,35.465625 C14.68125,35.521875 14.990625,35.578125 15.328125,35.634375 C15.58125,33.35625 15.80625,31.10625 16.03125,28.884375 C16.03125,28.884375 16.003125,28.884375 15.975,28.884375 Z M7.0875,19.996875 C7.0875,19.96875 7.0875,19.940625 7.0875,19.9125 C4.8375,20.165625 2.615625,20.390625 0.3375,20.64375 C0.39375,20.98125 0.421875,21.290625 0.478125,21.628125 C2.728125,21.065625 4.89375,20.53125 7.0875,19.996875 Z M19.85625,28.940625 C20.109375,31.1625 20.334375,33.384375 20.5875,35.634375 C20.925,35.578125 21.234375,35.521875 21.571875,35.465625 C21.009375,33.24375 20.475,31.078125 19.940625,28.940625 C19.884375,28.9125 19.884375,28.9125 19.85625,28.940625 Z M7.565625,21.740625 C5.4,22.359375 3.234375,23.00625 1.0125,23.653125 C1.153125,23.990625 1.265625,24.271875 1.378125,24.58125 C3.4875,23.653125 5.540625,22.725 7.59375,21.825 C7.59375,21.796875 7.59375,21.76875 7.565625,21.740625 Z M14.203125,28.321875 C13.275,30.403125 12.375,32.45625 11.446875,34.565625 C11.75625,34.678125 12.0375,34.790625 12.375,34.93125 C13.021875,32.709375 13.640625,30.515625 14.2875,28.35 C14.23125,28.321875 14.23125,28.321875 14.203125,28.321875 Z M12.43125,8.465625 C11.41875,6.4125 10.434375,4.3875 9.39375,2.30625 C9.084375,2.503125 8.83125,2.671875 8.578125,2.840625 C9.871875,4.753125 11.109375,6.609375 12.375,8.49375 C12.403125,8.49375 12.43125,8.465625 12.43125,8.465625 Z M7.509375,14.2875 C7.509375,14.259375 7.5375,14.23125 7.5375,14.203125 C5.484375,13.303125 3.459375,12.403125 1.35,11.475 C1.2375,11.75625 1.125,12.0375 0.984375,12.403125 C3.20625,13.021875 5.34375,13.640625 7.509375,14.2875 Z M6.890625,17.94375 C4.640625,17.803125 2.41875,17.634375 0.140625,17.49375 C0.140625,17.83125 0.140625,18.140625 0.140625,18.478125 C2.41875,18.3375 4.640625,18.16875 6.890625,18.028125 C6.890625,18 6.890625,17.971875 6.890625,17.94375 Z M21.76875,7.59375 C22.66875,5.540625 23.596875,3.459375 24.525,1.378125 C24.1875,1.265625 23.90625,1.153125 23.596875,1.040625 C22.95,3.234375 22.33125,5.4 21.7125,7.565625 C21.740625,7.565625 21.740625,7.565625 21.76875,7.59375 Z M14.11875,7.621875 C14.146875,7.621875 14.175,7.59375 14.203125,7.59375 C13.584375,5.428125 12.9375,3.2625 12.290625,1.06875 C11.953125,1.209375 11.671875,1.321875 11.390625,1.434375 C12.290625,3.515625 13.21875,5.56875 14.11875,7.621875 Z M21.796875,28.378125 C21.76875,28.378125 21.740625,28.40625 21.740625,28.40625 C22.359375,30.571875 23.00625,32.7375 23.653125,34.93125 C23.9625,34.81875 24.271875,34.70625 24.58125,34.59375 C23.625,32.484375 22.725,30.43125 21.796875,28.378125 Z M8.409375,23.56875 C8.409375,23.540625 8.38125,23.540625 8.38125,23.5125 C6.35625,24.525 4.33125,25.509375 2.25,26.521875 C2.446875,26.83125 2.5875,27.084375 2.75625,27.365625 C4.696875,26.071875 6.553125,24.834375 8.409375,23.56875 Z M23.484375,27.50625 C23.45625,27.50625 23.45625,27.534375 23.428125,27.534375 C24.440625,29.559375 25.425,31.6125 26.465625,33.69375 C26.775,33.496875 27.028125,33.35625 27.309375,33.159375 C25.9875,31.246875 24.721875,29.3625 23.484375,27.50625 Z M10.9125,9.50625 C9.5625,7.678125 8.2125,5.821875 6.8625,3.99375 C6.58125,4.21875 6.35625,4.44375 6.13125,4.640625 C7.734375,6.3 9.309375,7.93125 10.85625,9.5625 C10.884375,9.50625 10.9125,9.50625 10.9125,9.50625 Z M8.353125,12.43125 C8.353125,12.403125 8.38125,12.403125 8.38125,12.375 C6.496875,11.109375 4.6125,9.84375 2.728125,8.578125 C2.559375,8.859375 2.390625,9.1125 2.221875,9.421875 C4.303125,10.434375 6.328125,11.446875 8.353125,12.43125 Z M23.540625,8.49375 C24.80625,6.609375 26.071875,4.725 27.365625,2.8125 C27.084375,2.64375 26.83125,2.475 26.521875,2.278125 C25.509375,4.359375 24.496875,6.384375 23.5125,8.4375 C23.5125,8.465625 23.540625,8.49375 23.540625,8.49375 Z M12.403125,27.50625 C11.1375,29.390625 9.871875,31.303125 8.578125,33.215625 C8.859375,33.384375 9.1125,33.553125 9.421875,33.721875 C10.434375,31.640625 11.446875,29.5875 12.43125,27.534375 C12.43125,27.534375 12.403125,27.50625 12.403125,27.50625 Z M25.03125,26.49375 C26.38125,28.321875 27.73125,30.178125 29.08125,32.034375 C29.334375,31.78125 29.559375,31.584375 29.8125,31.3875 C28.209375,29.728125 26.634375,28.096875 25.059375,26.465625 C25.059375,26.465625 25.03125,26.465625 25.03125,26.49375 Z M26.353125,25.115625 C28.0125,26.690625 29.64375,28.265625 31.303125,29.86875 C31.528125,29.615625 31.725,29.390625 31.95,29.1375 C30.065625,27.7875 28.2375,26.4375 26.38125,25.0875 C26.38125,25.0875 26.353125,25.115625 26.353125,25.115625 Z M10.8,26.409375 C9.225,28.040625 7.65,29.671875 6.046875,31.33125 C6.3,31.55625 6.525,31.753125 6.80625,31.978125 C8.15625,30.121875 9.50625,28.265625 10.828125,26.4375 C10.828125,26.4375 10.8,26.4375 10.8,26.409375 Z M9.50625,25.003125 C7.678125,26.353125 5.821875,27.675 3.965625,29.053125 C4.190625,29.30625 4.3875,29.53125 4.6125,29.784375 C6.271875,28.209375 7.903125,26.60625 9.534375,25.03125 C9.534375,25.03125 9.50625,25.03125 9.50625,25.003125 Z M25.0875,9.50625 C25.115625,9.50625 25.115625,9.534375 25.14375,9.534375 C26.71875,7.903125 28.265625,6.3 29.86875,4.640625 C29.5875,4.415625 29.3625,4.21875 29.109375,3.99375 C27.759375,5.85 26.409375,7.678125 25.0875,9.50625 Z M9.534375,10.85625 C7.903125,9.309375 6.271875,7.734375 4.640625,6.159375 C4.415625,6.4125 4.21875,6.665625 3.99375,6.91875 C5.85,8.26875 7.678125,9.590625 9.478125,10.940625 C9.50625,10.884375 9.50625,10.884375 9.534375,10.85625 Z M26.4375,10.85625 C26.4375,10.884375 26.465625,10.884375 26.465625,10.9125 C28.29375,9.590625 30.121875,8.240625 31.978125,6.890625 C31.725,6.609375 31.528125,6.384375 31.33125,6.159375 C29.671875,7.734375 28.06875,9.309375 26.4375,10.85625 Z M16.790625,24.384375 C16.396875,25.70625 16.003125,27.028125 15.609375,28.378125 C15.975,28.434375 16.25625,28.490625 16.621875,28.575 C16.70625,27.140625 16.790625,25.7625 16.875,24.384375 C16.846875,24.384375 16.81875,24.384375 16.790625,24.384375 Z M19.096875,11.503125 C19.490625,10.18125 19.884375,8.8875 20.278125,7.509375 C19.9125,7.453125 19.603125,7.396875 19.265625,7.340625 C19.18125,8.746875 19.096875,10.125 19.0125,11.475 C19.040625,11.503125 19.06875,11.503125 19.096875,11.503125 Z M20.19375,11.896875 C20.8125,10.659375 21.43125,9.421875 22.078125,8.128125 C21.76875,8.015625 21.4875,7.903125 21.121875,7.7625 C20.784375,9.16875 20.446875,10.51875 20.1375,11.86875 C20.165625,11.896875 20.165625,11.896875 20.19375,11.896875 Z M19.096875,24.46875 C19.06875,24.46875 19.040625,24.496875 19.0125,24.496875 C19.096875,25.846875 19.18125,27.225 19.29375,28.63125 C19.63125,28.575 19.940625,28.51875 20.30625,28.4625 C19.884375,27.05625 19.490625,25.7625 19.096875,24.46875 Z M17.915625,11.446875 C17.94375,11.446875 17.971875,11.446875 18,11.446875 C18.140625,10.06875 18.309375,8.71875 18.478125,7.3125 C18.1125,7.3125 17.83125,7.3125 17.465625,7.3125 C17.60625,8.746875 17.775,10.096875 17.915625,11.446875 Z M15.75,11.86875 C15.4125,10.51875 15.103125,9.16875 14.765625,7.790625 C14.428125,7.93125 14.146875,8.04375 13.809375,8.15625 C14.45625,9.421875 15.075,10.659375 15.665625,11.896875 C15.69375,11.896875 15.721875,11.86875 15.75,11.86875 Z M18.45,28.63125 C18.28125,27.253125 18.140625,25.903125 18,24.553125 C17.971875,24.553125 17.94375,24.553125 17.915625,24.553125 C17.775,25.875 17.60625,27.225 17.465625,28.63125 C17.775,28.63125 18.084375,28.63125 18.45,28.63125 Z M11.53125,19.209375 C11.53125,19.18125 11.53125,19.153125 11.503125,19.125 C10.125,19.209375 8.775,19.29375 7.340625,19.378125 C7.396875,19.74375 7.48125,20.053125 7.5375,20.390625 C8.94375,19.96875 10.2375,19.603125 11.53125,19.209375 Z M20.25,24.13125 C20.221875,24.13125 20.19375,24.159375 20.19375,24.159375 C20.53125,25.48125 20.840625,26.83125 21.178125,28.209375 C21.515625,28.096875 21.796875,27.984375 22.134375,27.84375 C21.4875,26.578125 20.86875,25.340625 20.25,24.13125 Z M11.503125,16.790625 C10.209375,16.396875 8.8875,16.03125 7.5375,15.609375 C7.48125,15.946875 7.425,16.25625 7.340625,16.59375 C8.746875,16.678125 10.125,16.7625 11.475,16.846875 C11.503125,16.846875 11.503125,16.81875 11.503125,16.790625 Z M7.284375,18.478125 C8.6625,18.3375 10.040625,18.16875 11.390625,18.028125 C11.390625,18 11.390625,17.971875 11.390625,17.94375 C10.040625,17.803125 8.6625,17.634375 7.284375,17.49375 C7.284375,17.83125 7.284375,18.140625 7.284375,18.478125 Z M11.86875,20.25 C11.86875,20.221875 11.840625,20.19375 11.840625,20.19375 C10.490625,20.53125 9.16875,20.840625 7.7625,21.178125 C7.903125,21.515625 8.015625,21.825 8.128125,22.10625 C9.421875,21.4875 10.63125,20.86875 11.86875,20.25 Z M16.846875,11.503125 C16.7625,10.125 16.678125,8.746875 16.565625,7.340625 C16.228125,7.396875 15.91875,7.453125 15.58125,7.509375 C16.003125,8.8875 16.36875,10.209375 16.7625,11.53125 C16.790625,11.53125 16.81875,11.503125 16.846875,11.503125 Z M7.734375,14.85 C9.1125,15.1875 10.434375,15.496875 11.75625,15.834375 C11.75625,15.80625 11.784375,15.778125 11.784375,15.75 C10.575,15.159375 9.365625,14.540625 8.071875,13.921875 C7.959375,14.23125 7.846875,14.5125 7.734375,14.85 Z M8.915625,23.7375 C10.06875,22.89375 11.165625,22.078125 12.290625,21.234375 C12.290625,21.20625 12.2625,21.20625 12.2625,21.178125 C10.996875,21.740625 9.703125,22.303125 8.38125,22.865625 C8.60625,23.23125 8.746875,23.484375 8.915625,23.7375 Z M14.79375,12.31875 C14.23125,11.053125 13.66875,9.7875 13.10625,8.49375 C12.796875,8.690625 12.515625,8.859375 12.2625,9.028125 C13.10625,10.18125 13.921875,11.278125 14.7375,12.375 C14.7375,12.346875 14.765625,12.346875 14.79375,12.31875 Z M15.665625,24.103125 C15.046875,25.340625 14.428125,26.578125 13.809375,27.84375 C14.11875,27.95625 14.4,28.06875 14.7375,28.209375 C15.075,26.83125 15.4125,25.48125 15.721875,24.13125 C15.69375,24.13125 15.69375,24.13125 15.665625,24.103125 Z M12.2625,14.709375 C12.2625,14.68125 12.290625,14.68125 12.290625,14.653125 C11.19375,13.8375 10.06875,13.021875 8.94375,12.178125 C8.775,12.459375 8.60625,12.7125 8.4375,13.05 C9.73125,13.6125 10.996875,14.146875 12.2625,14.709375 Z M21.15,23.625 C21.7125,24.890625 22.275,26.15625 22.8375,27.478125 C23.146875,27.28125 23.4,27.1125 23.68125,26.94375 C22.8375,25.790625 22.021875,24.69375 21.20625,23.596875 C21.178125,23.596875 21.178125,23.596875 21.15,23.625 Z M22.95,22.1625 C22.89375,22.21875 22.865625,22.246875 22.809375,22.303125 C23.85,23.23125 24.890625,24.159375 25.93125,25.059375 C25.903125,25.115625 25.846875,25.171875 25.81875,25.228125 C26.015625,25.003125 26.2125,24.75 26.4375,24.496875 C25.284375,23.709375 24.13125,22.95 22.95,22.1625 Z M22.190625,23.00625 C22.1625,23.034375 22.1625,23.034375 22.134375,23.0625 C22.89375,24.215625 23.68125,25.36875 24.46875,26.55 C24.721875,26.325 24.975,26.128125 25.228125,25.875 C24.1875,24.890625 23.175,23.934375 22.190625,23.00625 Z M14.653125,23.596875 C13.8375,24.69375 13.021875,25.81875 12.15,26.971875 C12.43125,27.140625 12.684375,27.309375 12.99375,27.50625 C13.55625,26.184375 14.11875,24.91875 14.68125,23.653125 C14.709375,23.625 14.68125,23.625 14.653125,23.596875 Z M13.809375,22.921875 C12.796875,23.878125 11.784375,24.8625 10.74375,25.81875 C11.025,26.04375 11.25,26.240625 11.53125,26.465625 C12.31875,25.284375 13.078125,24.103125 13.865625,22.95 C13.809375,22.95 13.809375,22.921875 13.809375,22.921875 Z M12.965625,13.809375 C12.965625,13.78125 12.99375,13.78125 12.99375,13.753125 C12.0375,12.740625 11.08125,11.75625 10.096875,10.715625 C9.871875,10.96875 9.675,11.19375 9.45,11.475 C10.63125,12.290625 11.8125,13.05 12.965625,13.809375 Z M21.20625,12.43125 C22.021875,11.30625 22.865625,10.209375 23.709375,9.05625 C23.428125,8.8875 23.146875,8.71875 22.8375,8.55 C22.275,9.871875 21.7125,11.1375 21.15,12.403125 C21.178125,12.403125 21.178125,12.403125 21.20625,12.43125 Z M13.809375,12.965625 C13.05,11.8125 12.2625,10.659375 11.475,9.478125 C11.19375,9.703125 10.96875,9.9 10.715625,10.125 C11.75625,11.109375 12.740625,12.065625 13.753125,13.021875 C13.78125,12.99375 13.78125,12.965625 13.809375,12.965625 Z M12.99375,22.10625 C11.840625,22.89375 10.659375,23.653125 9.478125,24.440625 C9.703125,24.721875 9.9,24.946875 10.125,25.2 C11.109375,24.159375 12.065625,23.175 13.021875,22.1625 C13.021875,22.134375 13.021875,22.10625 12.99375,22.10625 Z M22.190625,13.021875 C23.203125,12.065625 24.1875,11.109375 25.228125,10.153125 C24.946875,9.928125 24.721875,9.73125 24.46875,9.50625 C23.68125,10.6875 22.921875,11.840625 22.1625,12.99375 C22.1625,12.99375 22.190625,12.99375 22.190625,13.021875 Z M23.034375,13.809375 C24.1875,13.05 25.340625,12.2625 26.49375,11.503125 C26.240625,11.221875 26.04375,10.996875 25.846875,10.74375 C24.8625,11.784375 23.934375,12.76875 22.978125,13.78125 C23.00625,13.78125 23.00625,13.78125 23.034375,13.809375 Z M41.653125,20.925 L41.653125,22.978125 C41.175,23.146875 40.66875,23.2875 40.190625,23.371875 C39.684375,23.45625 39.20625,23.5125 38.728125,23.5125 C37.096875,23.5125 35.71875,23.00625 34.65,22.021875 C33.58125,21.0375 33.046875,19.771875 33.046875,18.225 C33.046875,16.734375 33.58125,15.46875 34.621875,14.45625 C35.690625,13.44375 37.0125,12.9375 38.615625,12.9375 C39.121875,12.9375 39.628125,12.99375 40.078125,13.078125 C40.55625,13.190625 41.00625,13.33125 41.45625,13.55625 L41.45625,15.721875 C41.00625,15.440625 40.528125,15.215625 40.05,15.103125 C39.825,15.046875 39.6,14.990625 39.375,14.9625 C39.15,14.934375 38.896875,14.90625 38.671875,14.90625 C37.63125,14.90625 36.7875,15.215625 36.140625,15.834375 C35.49375,16.453125 35.15625,17.240625 35.15625,18.225 C35.15625,19.209375 35.49375,20.025 36.16875,20.64375 C36.84375,21.2625 37.715625,21.6 38.784375,21.6 C39.2625,21.6 39.740625,21.54375 40.21875,21.43125 C40.696875,21.346875 41.175,21.178125 41.653125,20.925 Z M42.946875,18.253125 C42.946875,16.790625 43.48125,15.525 44.521875,14.5125 C45.5625,13.5 46.85625,12.965625 48.346875,12.965625 C49.05,12.965625 49.725,13.10625 50.371875,13.359375 C51.01875,13.640625 51.609375,14.034375 52.115625,14.540625 C52.621875,15.046875 53.015625,15.6375 53.296875,16.25625 C53.578125,16.903125 53.690625,17.55 53.690625,18.253125 C53.690625,18.95625 53.55,19.63125 53.26875,20.278125 C53.128125,20.615625 52.959375,20.925 52.7625,21.20625 C52.565625,21.4875 52.340625,21.76875 52.0875,22.021875 C51.58125,22.528125 51.01875,22.89375 50.371875,23.146875 C49.725,23.4 49.021875,23.540625 48.31875,23.540625 C46.8,23.540625 45.534375,23.034375 44.49375,21.99375 C43.48125,20.953125 42.946875,19.715625 42.946875,18.253125 Z M45.084375,18.253125 C45.084375,19.18125 45.39375,19.996875 46.040625,20.671875 C46.6875,21.346875 47.446875,21.684375 48.346875,21.684375 C49.246875,21.684375 50.00625,21.346875 50.653125,20.671875 C51.3,19.996875 51.609375,19.209375 51.609375,18.253125 C51.609375,17.325 51.3,16.5375 50.653125,15.8625 C50.00625,15.1875 49.246875,14.85 48.346875,14.85 C47.446875,14.85 46.6875,15.1875 46.040625,15.834375 C45.39375,16.509375 45.084375,17.296875 45.084375,18.253125 Z M55.715625,23.315625 L55.715625,7.959375 L57.740625,7.959375 L57.740625,23.315625 L55.715625,23.315625 Z M60.46875,23.315625 L60.46875,7.959375 L62.49375,7.959375 L62.49375,23.315625 L60.46875,23.315625 Z M73.603125,22.246875 C72.95625,22.66875 72.253125,22.978125 71.521875,23.203125 C70.790625,23.428125 70.059375,23.540625 69.3,23.540625 C67.696875,23.540625 66.43125,23.034375 65.475,22.05 C64.51875,21.065625 64.040625,19.74375 64.040625,18.084375 C64.040625,16.565625 64.490625,15.328125 65.41875,14.4 C66.346875,13.471875 67.528125,12.99375 69.01875,12.99375 C70.48125,12.99375 71.634375,13.471875 72.50625,14.428125 C73.378125,15.384375 73.8,16.678125 73.8,18.309375 L73.8,18.61875 L66.20625,18.61875 C66.20625,19.06875 66.290625,19.490625 66.459375,19.884375 C66.628125,20.25 66.853125,20.5875 67.1625,20.86875 C67.753125,21.403125 68.5125,21.684375 69.46875,21.684375 C70.115625,21.684375 70.790625,21.571875 71.49375,21.31875 C72.196875,21.09375 72.9,20.728125 73.659375,20.25 L73.659375,22.246875 L73.603125,22.246875 Z M66.178125,17.15625 L71.55,17.15625 C71.49375,16.425 71.2125,15.8625 70.734375,15.4125 C70.25625,14.9625 69.665625,14.7375 68.990625,14.7375 C68.23125,14.7375 67.6125,14.934375 67.134375,15.35625 C66.65625,15.75 66.31875,16.340625 66.178125,17.15625 Z M83.615625,20.925 L83.615625,22.978125 C83.1375,23.146875 82.63125,23.2875 82.153125,23.371875 C81.646875,23.45625 81.16875,23.5125 80.690625,23.5125 C79.059375,23.5125 77.68125,23.00625 76.6125,22.021875 C75.54375,21.0375 75.009375,19.771875 75.009375,18.225 C75.009375,16.734375 75.54375,15.46875 76.584375,14.45625 C77.653125,13.44375 78.975,12.9375 80.578125,12.9375 C81.084375,12.9375 81.590625,12.99375 82.040625,13.078125 C82.51875,13.190625 82.96875,13.33125 83.41875,13.55625 L83.41875,15.721875 C82.96875,15.440625 82.490625,15.215625 82.0125,15.103125 C81.7875,15.046875 81.5625,14.990625 81.3375,14.9625 C81.1125,14.934375 80.859375,14.90625 80.634375,14.90625 C79.59375,14.90625 78.75,15.215625 78.103125,15.834375 C77.45625,16.453125 77.11875,17.240625 77.11875,18.225 C77.11875,19.209375 77.45625,20.025 78.13125,20.64375 C78.80625,21.2625 79.678125,21.6 80.746875,21.6 C81.225,21.6 81.73125,21.54375 82.18125,21.43125 C82.659375,21.346875 83.1375,21.178125 83.615625,20.925 Z M91.63125,23.00625 C91.35,23.175 91.0125,23.2875 90.646875,23.371875 C90.28125,23.45625 89.8875,23.5125 89.4375,23.5125 C88.284375,23.5125 87.496875,23.23125 87.01875,22.696875 C86.540625,22.1625 86.315625,21.178125 86.315625,19.74375 L86.315625,14.934375 L84.6,14.934375 L84.6,14.7375 L88.14375,10.828125 L88.36875,10.828125 L88.36875,13.190625 L91.546875,13.190625 L91.546875,14.934375 L88.36875,14.934375 L88.36875,19.603125 C88.36875,20.446875 88.48125,20.98125 88.678125,21.234375 C88.903125,21.4875 89.26875,21.6 89.859375,21.6 C90.196875,21.6 90.50625,21.571875 90.7875,21.4875 C91.06875,21.403125 91.35,21.290625 91.63125,21.121875 L91.63125,23.00625 Z M93.628125,10.18125 C93.628125,9.871875 93.740625,9.61875 93.965625,9.365625 C94.190625,9.140625 94.44375,9.028125 94.78125,9.028125 C95.090625,9.028125 95.34375,9.140625 95.596875,9.365625 C95.821875,9.590625 95.934375,9.84375 95.934375,10.18125 C95.934375,10.490625 95.821875,10.74375 95.596875,10.996875 C95.371875,11.221875 95.11875,11.334375 94.78125,11.334375 C94.471875,11.334375 94.21875,11.221875 93.965625,10.996875 C93.76875,10.771875 93.628125,10.51875 93.628125,10.18125 Z M93.76875,23.315625 L93.76875,13.1625 L95.79375,13.1625 L95.79375,23.315625 L93.76875,23.315625 Z M102.178125,23.540625 L97.3125,13.190625 L99.5625,13.190625 L102.684375,19.9125 L105.609375,13.1625 L107.83125,13.1625 L103.1625,23.5125 L102.178125,23.5125 L102.178125,23.540625 Z M117.7875,22.246875 C117.140625,22.66875 116.4375,22.978125 115.70625,23.203125 C114.975,23.428125 114.24375,23.540625 113.484375,23.540625 C111.88125,23.540625 110.615625,23.034375 109.659375,22.05 C108.703125,21.065625 108.225,19.74375 108.225,18.084375 C108.225,16.565625 108.675,15.328125 109.603125,14.4 C110.53125,13.471875 111.7125,12.99375 113.203125,12.99375 C114.665625,12.99375 115.81875,13.471875 116.690625,14.428125 C117.5625,15.384375 117.984375,16.678125 117.984375,18.309375 L117.984375,18.61875 L110.390625,18.61875 C110.390625,19.06875 110.475,19.490625 110.64375,19.884375 C110.8125,20.25 111.0375,20.5875 111.346875,20.86875 C111.9375,21.403125 112.696875,21.684375 113.653125,21.684375 C114.3,21.684375 114.975,21.571875 115.678125,21.31875 C116.38125,21.09375 117.084375,20.728125 117.84375,20.25 L117.84375,22.246875 L117.7875,22.246875 Z M110.3625,17.15625 L115.734375,17.15625 C115.678125,16.425 115.396875,15.8625 114.91875,15.4125 C114.440625,14.9625 113.85,14.7375 113.175,14.7375 C112.415625,14.7375 111.796875,14.934375 111.31875,15.35625 C110.840625,15.75 110.53125,16.340625 110.3625,17.15625 Z" id="Shape"></path>
            </g>
        </g>
    </g>
</svg>