<?xml version="1.0" encoding="UTF-8"?>
<svg width="160px" height="50px" viewBox="0 0 160 50" version="1.1" xmlns="http://www.w3.org/2000/svg" xmlns:xlink="http://www.w3.org/1999/xlink">
    <title>сlients-center-black-infobric</title>
    <g id="Symbols" stroke="none" stroke-width="1" fill="none" fill-rule="evenodd">
        <g id="сlients-center-black-infobric">
            <rect id="bounding_box" x="0" y="0" width="160" height="50"></rect>
            <g id="Infobric" transform="translate(29.000000, 13.000000)" fill="#000000" fill-rule="nonzero">
                <g id="Sign-In_Splash" transform="translate(0.000000, 0.464286)">
                    <polygon id="Path" points="12.6980473 15.6159184 8.7299075 15.6159184 8.7299075 20.1287755 8.44131552 20.1287755 6.49331963 20.1287755 6.20472765 20.1287755 6.20472765 15.6159184 2.23658787 15.6159184 2.23658787 20.1287755 0 20.1287755 0 23.8536735 6.42117163 23.8536735 8.36916752 23.8536735 14.7903392 23.8536735 14.7903392 20.1287755 12.6980473 20.1287755"></polygon>
                    <polygon id="Path" points="2.38088386 14.6130612 6.27687564 14.6130612 6.27687564 6.44693878 0.144295992 6.44693878 0.144295992 10.1718367 2.38088386 10.1718367"></polygon>
                    <rect id="Rectangle" x="2.30873587" y="0.644693878" width="3.96813977" height="4.22632653"></rect>
                    <path d="M26.7669065,14.6130612 L30.6628983,14.6130612 L30.6628983,10.1718367 L32.4665982,10.1718367 C31.6008222,11.5328571 31.1679342,13.0371429 31.0957862,14.6130612 L34.91963,14.6130612 C35.208222,11.9626531 37.4448099,9.88530612 40.1142857,9.81367347 C42.7837616,9.88530612 45.0203494,11.9626531 45.1646454,14.6130612 L49.0606372,14.6130612 C48.9163412,9.67040816 44.8039054,5.8022449 39.8256937,5.9455102 C37.0840699,6.01714286 34.486742,7.37816327 32.8273381,9.59877551 L32.8273381,6.44693878 L30.5907503,6.44693878 C30.4464543,4.65612245 31.3122302,3.58163265 33.3323741,3.58163265 L33.3323741,0 C29.0034943,0 26.6947585,2.07734694 26.6947585,6.44693878 L24.5303186,6.44693878 L24.5303186,10.1718367 L26.7669065,10.1718367 L26.7669065,14.6130612 Z" id="Path"></path>
                    <path d="M49.5656732,14.6130612 L53.389517,14.6130612 C53.6059609,11.7477551 56.1311408,9.59877551 59.0170606,9.88530612 C61.5422405,10.1002041 63.5623844,12.1059184 63.7788284,14.6130612 L67.6748201,14.6130612 C67.6026721,13.0371429 67.0254882,11.4612245 66.1597122,10.1718367 L68.1077081,10.1718367 L68.1077081,14.6130612 L72.0758479,14.6130612 C72.0758479,13.4669388 72.6530319,12.392449 73.5188078,11.6044898 C74.4567318,10.744898 75.6832477,10.315102 76.9097636,10.3867347 L78.2084275,10.3867347 L78.2084275,14.6846939 L86.0004111,14.6846939 C86.1447071,12.0342857 88.381295,9.95693878 91.0507708,9.95693878 C92.7823227,9.95693878 94.3695786,10.8881633 95.3075026,12.2491837 L98.9870504,12.2491837 L98.9870504,6.44693878 L95.5960946,6.44693878 L95.5960946,8.0944898 C94.3695786,6.73346939 92.5658787,5.9455102 90.6900308,5.9455102 C86.0004111,5.9455102 82.3930113,9.95693878 82.0322713,14.4697959 L82.0322713,6.51857143 L76.8376156,6.51857143 C74.6010277,6.59020408 72.6530319,7.44979592 71.7151079,9.4555102 L71.7151079,6.51857143 L65.8711202,6.51857143 L65.8711202,9.74204082 C64.2117163,7.52142857 61.6143885,6.23204082 58.8727646,6.23204082 C56.7083248,6.16040816 54.6881809,7.23489796 53.5338129,9.02571429 L53.5338129,0.644693878 L47.4012333,0.644693878 L47.4012333,4.36959184 L49.6378212,4.36959184 L49.6378212,14.6130612 L49.5656732,14.6130612 Z" id="Path"></path>
                    <rect id="Rectangle" x="78.2805755" y="0.644693878" width="3.89599178" height="4.22632653"></rect>
                    <path d="M19.6242549,11.3895918 C20.2014388,12.3208163 20.4178828,13.4669388 20.2735868,14.5414286 L20.2735868,14.6846939 L24.2417266,14.6846939 L24.2417266,13.3953061 C24.2417266,11.4612245 24.1695786,9.95693878 22.7987667,8.30938776 C21.5001028,6.94836735 19.6964029,6.16040816 17.820555,6.23204082 C15.7282631,6.16040816 13.7802672,7.23489796 12.7701953,9.09734694 L12.7701953,6.51857143 L6.85405961,6.51857143 L6.85405961,10.2434694 L8.8020555,10.2434694 L8.8020555,14.6130612 L12.6980473,14.6130612 C12.6980473,13.6102041 12.7701953,12.3208163 13.4195272,11.4612245 C14.1410072,10.4583673 15.2953751,9.88530612 16.5218911,9.95693878 C17.820555,9.88530612 18.9027749,10.4583673 19.6242549,11.3895918 Z" id="Path"></path>
                    <path d="M95.4517986,17.9797959 C94.6581706,19.4840816 93.0709147,20.4153061 91.3393628,20.4153061 C88.597739,20.4869388 86.2890031,18.3379592 86.1447071,15.6159184 L78.3527235,15.6159184 L78.3527235,20.0571429 L76.0439877,20.0571429 L76.0439877,23.7820408 L84.4131552,23.7820408 L84.4131552,21.2032653 C86.1447071,23.1373469 88.6698869,24.2834694 91.2672148,24.355102 C95.3075026,24.4983673 98.8427544,21.9195918 99.8528263,18.0514286 L95.4517986,17.9797959 Z M82.1044193,20.0571429 L82.1044193,15.8308163 C82.2487153,17.335102 82.7537513,18.7677551 83.5473792,20.0571429 L82.1044193,20.0571429 Z" id="Shape"></path>
                    <path d="M72.2922919,15.7591837 L72.1479959,15.7591837 L72.1479959,15.6159184 L68.1798561,15.6159184 L68.1798561,20.1287755 L66.3040082,20.1287755 C67.1697842,18.7677551 67.6748201,17.1918367 67.7469681,15.6159184 L63.8509764,15.6159184 C63.6345324,18.2663265 61.4700925,20.3436735 58.8006166,20.4153061 C56.0589928,20.4869388 53.6781089,18.3379592 53.5338129,15.6159184 L49.7821172,15.6159184 L49.7821172,20.1287755 L47.8341213,20.1287755 C48.6998972,18.7677551 49.2770812,17.2634694 49.3492292,15.6159184 L45.4532374,15.6159184 C45.2367934,18.4095918 42.7837616,20.5585714 39.9699897,20.4153061 C37.3726619,20.2720408 35.352518,18.1946939 35.136074,15.6159184 L31.3122302,15.6159184 C31.3843782,17.1918367 31.8894142,18.7677551 32.7551901,20.1287755 L30.8793422,20.1287755 L30.8793422,15.6159184 L26.9112025,15.6159184 L26.9112025,20.1287755 L24.4581706,20.1287755 L24.4581706,15.6159184 L20.4900308,15.6159184 L20.4900308,20.1287755 L18.397739,20.1287755 L18.397739,23.8536735 L33.1880781,23.8536735 L33.1880781,20.7018367 C34.847482,22.9940816 37.5891059,24.355102 40.4028777,24.355102 C43.2887975,24.2834694 45.9582734,22.922449 47.6176773,20.6302041 L47.6176773,23.8536735 L53.7502569,23.8536735 L53.7502569,21.2032653 C55.1210689,22.9940816 57.2133607,24.0685714 59.5220966,24.0685714 C61.9029805,23.9969388 64.1395683,22.9940816 65.6546763,21.2032653 C65.8711202,20.9883673 66.0154162,20.7734694 66.1597122,20.5585714 L66.1597122,23.7820408 L74.5288798,23.7820408 L74.5288798,20.0571429 L72.2922919,20.0571429 L72.2922919,15.7591837 Z" id="Path"></path>
                </g>
                <path d="M104,22.2449875 C104,23.5482456 102.95936,24.6071429 101.678571,24.6071429 C100.397783,24.6071429 99.3571429,23.5482456 99.3571429,22.2449875 C99.3571429,20.9417293 100.397783,19.9642857 101.678571,19.9642857 C102.95936,19.9642857 104,20.9417293 104,22.2449875 Z M99.9174877,22.2449875 C99.9174877,23.3038847 100.637931,24.1184211 101.678571,24.1184211 C102.639163,24.1184211 103.439655,23.3038847 103.439655,22.3264411 C103.439655,21.2675439 102.719212,20.4530075 101.678571,20.4530075 C100.637931,20.4530075 99.9174877,21.2675439 99.9174877,22.2449875 Z M101.278325,23.466792 L100.71798,23.466792 L100.71798,21.1860902 C100.958128,21.1046366 101.198276,21.1046366 101.598522,21.1046366 C101.998768,21.1046366 102.238916,21.1860902 102.399015,21.2675439 C102.559113,21.3489975 102.639163,21.5119048 102.639163,21.7562657 C102.639163,22.0006266 102.479064,22.2449875 102.158867,22.3264411 L102.158867,22.3264411 C102.399015,22.4078947 102.479064,22.570802 102.559113,22.8966165 C102.639163,23.2224311 102.639163,23.3853383 102.719212,23.466792 L102.158867,23.466792 C102.078818,23.3853383 102.078818,23.1409774 101.998768,22.8966165 C101.918719,22.6522556 101.83867,22.570802 101.518473,22.570802 L101.278325,22.570802 L101.278325,23.466792 L101.278325,23.466792 Z M101.278325,22.1635338 L101.518473,22.1635338 C101.83867,22.1635338 102.078818,22.0820802 102.078818,21.8377193 C102.078818,21.5933584 101.918719,21.5119048 101.598522,21.5119048 C101.438424,21.5119048 101.358374,21.5119048 101.278325,21.5119048 L101.278325,22.1635338 Z" id="Shape"></path>
            </g>
        </g>
    </g>
</svg>