<?xml version="1.0" encoding="UTF-8"?>
<svg width="160px" height="50px" viewBox="0 0 160 50" version="1.1" xmlns="http://www.w3.org/2000/svg" xmlns:xlink="http://www.w3.org/1999/xlink">
    <title>сlients-left-black-aol</title>
    <g id="Symbols" stroke="none" stroke-width="1" fill="none" fill-rule="evenodd">
        <g id="сlients-left-black-aol">
            <rect id="bounding_box" x="0" y="0" width="160" height="50"></rect>
            <g id="Aol" transform="translate(0.000000, 12.000000)" fill="#000000" fill-rule="nonzero">
                <path d="M37.0082576,7 C31.3104872,7 27,11.4666667 27,17 C27,22.8333333 31.4921552,27 37.0082576,27 C42.52436,27 47,22.8333333 47,17 C47,11.4666667 42.7060281,7 37.0082576,7 Z M37.0082576,12.2833333 C39.4690339,12.2666667 41.4838976,14.3833333 41.4838976,17 C41.4838976,19.6 39.4690339,21.7166667 37.0082576,21.7166667 C34.5474814,21.7166667 32.5326177,19.6 32.5326177,17 C32.5326177,14.3833333 34.5474814,12.2833333 37.0082576,12.2833333 Z" id="Shape"></path>
                <path d="M68,23 C68,25.2095238 66.2095238,27 64,27 C61.7904762,27 60,25.2095238 60,23 C60,20.7904762 61.7904762,19 64,19 C66.2095238,19 68,20.7904762 68,23 Z" id="Path"></path>
                <polygon id="Path" points="58 26 50 26 50 0 58 0"></polygon>
                <path d="M15.7733333,0 L26,26 L18.72,26 L17.5066667,22.3355705 L8.49333333,22.3355705 L7.28,26 L0,26 L10.4,0 L15.7733333,0 Z M13.0866667,8.20134228 L10.4,16.9261745 L15.7733333,16.9261745 L13.0866667,8.20134228 Z" id="Shape"></path>
            </g>
        </g>
    </g>
</svg>