<?xml version="1.0" encoding="UTF-8"?>
<svg width="160px" height="50px" viewBox="0 0 160 50" version="1.1" xmlns="http://www.w3.org/2000/svg" xmlns:xlink="http://www.w3.org/1999/xlink">
    <title>сlients-center-black-mindvalley</title>
    <g id="Symbols" stroke="none" stroke-width="1" fill="none" fill-rule="evenodd">
        <g id="сlients-center-black-mindvalley">
            <rect id="bounding_box" x="0" y="0" width="160" height="50"></rect>
            <g id="Mindvalley" transform="translate(4.000000, 18.000000)" fill="#000000" fill-rule="nonzero">
                <path d="M15.1108504,3.18709677 C13.9073314,4.56891496 13.6398827,11.0099707 13.6398827,11.255132 L13.6398827,11.255132 L13.6398827,11.255132 C13.6398827,11.255132 14.3753666,11.6340176 18.8328446,7.68914956 C21.4404692,5.39354839 23.8252199,2.85278592 25.9648094,0.11143695 C25.9648094,0.11143695 17.1390029,0.846920821 15.1108504,3.18709677" id="Path"></path>
                <path d="M10.8539589,3.18709677 C12.057478,4.56891496 12.3249267,11.0099707 12.3249267,11.255132 L12.3249267,11.255132 L12.3249267,11.255132 C12.3249267,11.255132 11.5894428,11.6340176 7.13196481,7.68914956 C4.52434018,5.39354839 2.13958944,2.85278592 0,0.11143695 C0,0.11143695 8.84809384,0.846920821 10.8539589,3.18709677" id="Path"></path>
                <path d="M47.1378299,10.2521994 L47.1378299,17.6961877 L43.9730205,17.6961877 L43.9730205,10.4750733 C43.9730205,9.02639296 43.2375367,8.17947214 41.944868,8.17947214 C40.5184751,8.17947214 39.6938416,9.1601173 39.6938416,10.9208211 L39.6938416,17.7184751 L36.5290323,17.7184751 L36.5290323,10.4750733 C36.5290323,9.02639296 35.8158358,8.17947214 34.5231672,8.17947214 C33.141349,8.17947214 32.2721408,9.1601173 32.2721408,10.9208211 L32.2721408,17.7184751 L29.085044,17.7184751 L29.085044,5.23753666 L32.2498534,5.23753666 L32.2498534,6.88680352 C32.9407625,5.79472141 34.0774194,5.25982405 35.6152493,5.25982405 C37.086217,5.25982405 38.2005865,5.83929619 38.913783,6.99824047 C39.716129,5.83929619 40.9419355,5.25982405 42.5466276,5.25982405 C45.3325513,5.25982405 47.1378299,7.22111437 47.1378299,10.2521994" id="Path"></path>
                <path d="M50.2134897,5.23753666 L53.3782991,5.23753666 L53.3782991,17.7184751 L50.2134897,17.7184751 L50.2134897,5.23753666 Z M50.0351906,2.16187683 C50.0351906,1.18123167 50.8152493,0.401173021 51.7958944,0.37888563 C52.7765396,0.37888563 53.5565982,1.15894428 53.5788856,2.13958944 C53.5788856,3.1202346 52.798827,3.90029326 51.8181818,3.92258065 C51.8181818,3.92258065 51.7958944,3.92258065 51.7958944,3.92258065 C50.8375367,3.90029326 50.057478,3.1202346 50.0351906,2.16187683" id="Shape"></path>
                <path d="M66.7730205,6.59706745 C67.6422287,7.48856305 68.0879765,8.7143695 68.0879765,10.2967742 L68.0879765,17.7184751 L65.0123167,17.7184751 L65.0123167,10.6756598 C65.0123167,9.04868035 64.0316716,8.17947214 62.5607038,8.17947214 C60.9337243,8.17947214 59.8416422,9.18240469 59.8416422,11.1882698 L59.8416422,17.7184751 L56.7659824,17.7184751 L56.7659824,5.23753666 L59.8416422,5.23753666 L59.8416422,6.95366569 C60.6439883,5.8170088 61.8252199,5.25982405 63.4744868,5.25982405 C64.8117302,5.23753666 65.9260997,5.68328446 66.7730205,6.59706745" id="Path"></path>
                <polygon id="Path" points="94.0304985 5.23753666 97.485044 5.23753666 92.8715543 17.6961877 89.3055718 17.6961877 84.6920821 5.23753666 88.1243402 5.23753666 91.0662757 14.0856305"></polygon>
                <path d="M104.550147,15.088563 C105.441642,15.1108504 106.31085,14.7765396 106.957185,14.1524927 C107.603519,13.5061584 107.960117,12.5923754 107.93783,11.6785924 C107.982405,10.7648094 107.625806,9.87331378 106.957185,9.22697947 C105.619941,7.93431085 103.480352,7.93431085 102.143109,9.22697947 C101.496774,9.87331378 101.162463,10.7648094 101.207038,11.6785924 C101.184751,12.5923754 101.519062,13.483871 102.143109,14.1524927 C102.767155,14.7765396 103.636364,15.1108504 104.550147,15.088563 M107.893255,5.25982405 L111.058065,5.25982405 L111.058065,17.7184751 L107.893255,17.7184751 L107.893255,16.3143695 C107.00176,17.4956012 105.664516,18.0973607 103.948387,18.0973607 C102.365982,18.1196481 100.828152,17.4510264 99.7806452,16.2475073 C97.485044,13.6398827 97.485044,9.73958944 99.7806452,7.13196481 C100.939589,5.88387097 102.29912,5.25982405 103.948387,5.25982405 C105.642229,5.25982405 107.00176,5.83929619 107.893255,7.04281525 L107.893255,5.25982405 Z" id="Shape"></path>
                <path d="M135.551906,10.5642229 C135.195308,8.87038123 133.969501,8.11260997 132.543109,8.11260997 C130.871554,8.11260997 129.734897,8.98181818 129.356012,10.5642229 L135.551906,10.5642229 Z M129.400587,12.9489736 C129.80176,14.5313783 130.960704,15.2445748 132.832845,15.2445748 C134.014076,15.2445748 134.950147,14.8434018 135.551906,14.0410557 L138.070381,15.4897361 C136.88915,17.2058651 135.106158,18.0973607 132.765982,18.0973607 C130.760117,18.0973607 129.155425,17.4956012 127.929619,16.2697947 C126.703812,15.0439883 126.102053,13.5284457 126.102053,11.6785924 C126.057478,9.98475073 126.703812,8.33548387 127.907331,7.10967742 C129.088563,5.88387097 130.64868,5.25982405 132.520821,5.25982405 C134.303812,5.25982405 135.77478,5.86158358 136.911437,7.10967742 C138.070381,8.33548387 138.716716,9.98475073 138.649853,11.6785924 C138.649853,12.1243402 138.627566,12.570088 138.560704,12.9935484 L129.400587,12.9489736 Z" id="Shape"></path>
                <path d="M148.478592,5.28211144 L151.821701,5.28211144 L147.431085,17.428739 C146.160704,20.9278592 144.110264,22.4434018 141.034604,22.28739 L141.034604,19.3677419 C142.728446,19.3900293 143.619941,18.6991202 144.199413,17.027566 L139.207038,5.28211144 L142.639296,5.28211144 L145.781818,13.4392962 L148.478592,5.28211144 Z" id="Path"></path>
                <path d="M117.409971,0.02228739 L117.409971,0.02228739 C114.222874,0.423460411 114.334311,2.83049853 114.334311,2.83049853 L114.334311,17.6961877 L117.409971,17.6961877 L117.409971,0.02228739 Z" id="Path"></path>
                <path d="M78.9196481,14.0410557 C78.2733138,14.68739 77.4041056,15.0217009 76.51261,14.9994135 C75.598827,15.0217009 74.7296188,14.68739 74.0832845,14.0633431 C73.4369501,13.3947214 73.1026393,12.5032258 73.1472141,11.5894428 C73.1026393,10.6756598 73.4592375,9.78416422 74.0832845,9.13782991 C74.7296188,8.4914956 75.598827,8.13489736 76.51261,8.17947214 C77.426393,8.15718475 78.2956012,8.4914956 78.9196481,9.13782991 C79.5659824,9.78416422 79.9002933,10.6756598 79.8557185,11.5894428 C79.8780059,12.5032258 79.543695,13.3947214 78.9196481,14.0410557 M82.8645161,0.0445747801 L82.8645161,0 C79.6997067,0.423460411 79.7888563,2.83049853 79.7888563,2.83049853 L79.7888563,6.9313783 C78.7859238,5.75014663 77.5824047,5.1483871 75.888563,5.1483871 C74.2615836,5.1483871 72.8797654,5.77243402 71.6985337,7.02052786 C69.4029326,9.62815249 69.4029326,13.5284457 71.7208211,16.1360704 C72.7683284,17.3173021 74.3061584,18.0082111 75.888563,17.9859238 C77.5824047,17.9859238 78.8082111,17.4064516 79.7888563,16.2029326 L79.7888563,17.6961877 L82.8645161,17.6961877 L82.8645161,0.0445747801 L82.8645161,0.0445747801 Z" id="Shape"></path>
                <path d="M123.851026,0.02228739 L123.851026,0.02228739 C120.686217,0.445747801 120.775367,2.85278592 120.775367,2.85278592 L120.775367,17.7184751 L123.851026,17.7184751 L123.851026,0.02228739 Z" id="Path"></path>
            </g>
        </g>
    </g>
</svg>