<svg xmlns="http://www.w3.org/2000/svg" width="40" height="40" viewBox="0 0 40 40">
    <g fill="none" fill-rule="evenodd">
        <g fill="#E30613">
            <path d="M20 0c2.843 0 5.252 5.852 6.07 13.93l.524.056 1.027.124c7.097.932 12.14 3.126 12.37 5.705L40 20l-.008.184c-.247 2.763-6.019 5.085-13.921 5.886-.802 7.903-3.124 13.675-5.886 13.922L20 40l-.185-.008c-2.637-.236-4.872-5.507-5.766-12.858l-.119-1.064-.524-.055-1.027-.125C5.283 24.958.239 22.763.009 20.185L0 20l.008-.185c.236-2.637 5.506-4.872 12.858-5.766l1.064-.119.056-.523.124-1.028C15.065 5.114 17.342 0 20 0z" transform="translate(-39 -3076) translate(24 2706) translate(0 355) translate(15 15)"/>
        </g>
    </g>
</svg>
