<svg xmlns="http://www.w3.org/2000/svg" version="1.0" width="1915.000000pt" height="903.000000pt" viewBox="0 0 1915.000000 903.000000" preserveAspectRatio="xMidYMid meet">

<g transform="translate(0.000000,903.000000) scale(0.100000,-0.100000)" fill="#fe4365" stroke="none">
<path d="M8810 8971 l0 -51 51 0 50 0 -3 48 -3 47 -47 3 -48 3 0 -50z" fill="#fe4365"/>
<path d="M9470 8971 l0 -51 51 0 50 0 -3 48 -3 47 -47 3 -48 3 0 -50z" fill="#fe4365"/>
<path d="M10130 8971 l0 -51 51 0 50 0 -3 48 -3 47 -47 3 -48 3 0 -50z" fill="#fe4365"/>
<path d="M12147 9013 c-4 -3 -7 -26 -7 -50 l0 -43 50 0 50 0 0 50 0 50 -43 0 c-24 0 -47 -3 -50 -7z" fill="#fe4365"/>
<path d="M12810 8970 l0 -50 45 0 45 0 0 50 0 50 -45 0 -45 0 0 -50z" fill="#fe4365"/>
<path d="M13470 8970 l0 -50 45 0 45 0 0 50 0 50 -45 0 -45 0 0 -50z" fill="#fe4365"/>
<path d="M14130 8970 l0 -50 45 0 45 0 0 50 0 50 -45 0 -45 0 0 -50z" fill="#fe4365"/>
<path d="M14790 8970 l0 -50 45 0 45 0 0 50 0 50 -45 0 -45 0 0 -50z" fill="#fe4365"/>
<path d="M15450 8970 l0 -50 45 0 45 0 0 50 0 50 -45 0 -45 0 0 -50z" fill="#fe4365"/>
<path d="M8150 8340 l0 -50 45 0 45 0 0 50 0 50 -45 0 -45 0 0 -50z" fill="#fe4365"/>
<path d="M8810 8340 l0 -50 50 0 50 0 0 50 0 50 -50 0 -50 0 0 -50z" fill="#fe4365"/>
<path d="M9470 8340 l0 -50 50 0 50 0 0 50 0 50 -50 0 -50 0 0 -50z" fill="#fe4365"/>
<path d="M11480 8340 l0 -50 50 0 50 0 0 50 0 50 -50 0 -50 0 0 -50z" fill="#fe4365"/>
<path d="M12140 8340 l0 -50 50 0 50 0 0 50 0 50 -50 0 -50 0 0 -50z" fill="#fe4365"/>
<path d="M12810 8340 l0 -50 45 0 45 0 0 50 0 50 -45 0 -45 0 0 -50z" fill="#fe4365"/>
<path d="M13470 8340 l0 -50 45 0 45 0 0 50 0 50 -45 0 -45 0 0 -50z" fill="#fe4365"/>
<path d="M14130 8340 l0 -50 45 0 45 0 0 50 0 50 -45 0 -45 0 0 -50z" fill="#fe4365"/>
<path d="M14790 8340 l0 -50 45 0 45 0 0 50 0 50 -45 0 -45 0 0 -50z" fill="#fe4365"/>
<path d="M8810 7709 l0 -50 48 3 47 3 3 48 3 47 -50 0 -51 0 0 -51z" fill="#fe4365"/>
<path d="M9470 7709 l0 -50 48 3 47 3 3 48 3 47 -50 0 -51 0 0 -51z" fill="#fe4365"/>
<path d="M10130 7709 l0 -50 48 3 47 3 3 48 3 47 -50 0 -51 0 0 -51z" fill="#fe4365"/>
<path d="M12142 7713 l3 -48 48 -3 47 -3 0 50 0 51 -51 0 -50 0 3 -47z" fill="#fe4365"/>
<path d="M12810 7710 l0 -50 45 0 45 0 0 50 0 50 -45 0 -45 0 0 -50z" fill="#fe4365"/>
<path d="M13470 7710 l0 -50 45 0 45 0 0 50 0 50 -45 0 -45 0 0 -50z" fill="#fe4365"/>
<path d="M14130 7710 l0 -50 45 0 45 0 0 50 0 50 -45 0 -45 0 0 -50z" fill="#fe4365"/>
<path d="M14790 7710 l0 -50 45 0 45 0 0 50 0 50 -45 0 -45 0 0 -50z" fill="#fe4365"/>
<path d="M15450 7710 l0 -50 45 0 45 0 0 50 0 50 -45 0 -45 0 0 -50z" fill="#fe4365"/>
<path d="M10790 7121 l0 -51 51 0 50 0 -3 48 -3 47 -47 3 -48 3 0 -50z" fill="#fe4365"/>
<path d="M11487 7163 c-4 -3 -7 -26 -7 -50 l0 -43 50 0 50 0 0 50 0 50 -43 0 c-24 0 -47 -3 -50 -7z" fill="#fe4365"/>
<path d="M12147 7163 c-4 -3 -7 -26 -7 -50 l0 -43 50 0 50 0 0 50 0 50 -43 0 c-24 0 -47 -3 -50 -7z" fill="#fe4365"/>
<path d="M12810 7120 l0 -50 45 0 45 0 0 50 0 50 -45 0 -45 0 0 -50z" fill="#fe4365"/>
<path d="M14130 7120 l0 -50 45 0 45 0 0 50 0 50 -45 0 -45 0 0 -50z" fill="#fe4365"/>
<path d="M12140 6490 l0 -50 50 0 50 0 0 50 0 50 -50 0 -50 0 0 -50z" fill="#fe4365"/>
<path d="M12810 6490 l0 -50 45 0 45 0 0 50 0 50 -45 0 -45 0 0 -50z" fill="#fe4365"/>
<path d="M13470 6490 l0 -50 45 0 45 0 0 50 0 50 -45 0 -45 0 0 -50z" fill="#fe4365"/>
<path d="M14130 6490 l0 -50 45 0 45 0 0 50 0 50 -45 0 -45 0 0 -50z" fill="#fe4365"/>
<path d="M14790 6490 l0 -50 45 0 45 0 0 50 0 50 -45 0 -45 0 0 -50z" fill="#fe4365"/>
<path d="M15450 6490 l0 -50 45 0 45 0 0 50 0 50 -45 0 -45 0 0 -50z" fill="#fe4365"/>
<path d="M10790 5895 l0 -45 50 0 50 0 0 45 0 45 -50 0 -50 0 0 -45z" fill="#fe4365"/>
<path d="M11480 5895 l0 -45 50 0 50 0 0 45 0 45 -50 0 -50 0 0 -45z" fill="#fe4365"/>
<path d="M12140 5895 l0 -45 50 0 50 0 0 45 0 45 -50 0 -50 0 0 -45z" fill="#fe4365"/>
<path d="M12810 5895 l0 -45 45 0 45 0 0 45 0 45 -45 0 -45 0 0 -45z" fill="#fe4365"/>
<path d="M13470 5895 l0 -45 45 0 45 0 0 45 0 45 -45 0 -45 0 0 -45z" fill="#fe4365"/>
<path d="M14130 5895 l0 -45 45 0 45 0 0 45 0 45 -45 0 -45 0 0 -45z" fill="#fe4365"/>
<path d="M10827 5213 c-4 -3 -7 -26 -7 -50 l0 -43 50 0 50 0 0 50 0 50 -43 0 c-24 0 -47 -3 -50 -7z" fill="#fe4365"/>
<path d="M11487 5213 c-4 -3 -7 -26 -7 -50 l0 -43 50 0 50 0 0 50 0 50 -43 0 c-24 0 -47 -3 -50 -7z" fill="#fe4365"/>
<path d="M12147 5213 c-4 -3 -7 -26 -7 -50 l0 -43 50 0 50 0 0 50 0 50 -43 0 c-24 0 -47 -3 -50 -7z" fill="#fe4365"/>
<path d="M10160 4540 l0 -50 50 0 50 0 0 50 0 50 -50 0 -50 0 0 -50z" fill="#fe4365"/>
<path d="M10822 4543 l3 -48 48 -3 47 -3 0 50 0 51 -51 0 -50 0 3 -47z" fill="#fe4365"/>
<path d="M11482 4543 l3 -48 48 -3 47 -3 0 50 0 51 -51 0 -50 0 3 -47z" fill="#fe4365"/>
<path d="M10820 3915 l0 -45 50 0 50 0 0 45 0 45 -50 0 -50 0 0 -45z" fill="#fe4365"/>
<path d="M11480 3915 l0 -45 50 0 50 0 0 45 0 45 -50 0 -50 0 0 -45z" fill="#fe4365"/>
<path d="M12140 3915 l0 -45 50 0 50 0 0 45 0 45 -50 0 -50 0 0 -45z" fill="#fe4365"/>
<path d="M6930 3715 l0 -45 45 0 45 0 0 45 0 45 -45 0 -45 0 0 -45z" fill="#fe4365"/>
<path d="M7590 3715 l0 -45 45 0 45 0 0 45 0 45 -45 0 -45 0 0 -45z" fill="#fe4365"/>
<path d="M8250 3715 l0 -45 45 0 45 0 0 45 0 45 -45 0 -45 0 0 -45z" fill="#fe4365"/>
<path d="M8910 3715 l0 -45 45 0 45 0 0 45 0 45 -45 0 -45 0 0 -45z" fill="#fe4365"/>
<path d="M9570 3715 l0 -45 45 0 45 0 0 45 0 45 -45 0 -45 0 0 -45z" fill="#fe4365"/>
<path d="M10230 3715 l0 -45 50 0 50 0 0 45 0 45 -50 0 -50 0 0 -45z" fill="#fe4365"/>
<path d="M3660 3120 l0 -50 45 0 45 0 0 50 0 50 -45 0 -45 0 0 -50z" fill="#fe4365"/>
<path d="M4320 3120 l0 -50 45 0 45 0 0 50 0 50 -45 0 -45 0 0 -50z" fill="#fe4365"/>
<path d="M4980 3120 l0 -50 45 0 45 0 0 50 0 50 -45 0 -45 0 0 -50z" fill="#fe4365"/>
<path d="M5640 3120 l0 -50 45 0 45 0 0 50 0 50 -45 0 -45 0 0 -50z" fill="#fe4365"/>
<path d="M6300 3120 l0 -50 45 0 45 0 0 50 0 50 -45 0 -45 0 0 -50z" fill="#fe4365"/>
<path d="M6930 3120 l0 -50 45 0 45 0 0 50 0 50 -45 0 -45 0 0 -50z" fill="#fe4365"/>
<path d="M7590 3090 l0 -50 45 0 45 0 0 50 0 50 -45 0 -45 0 0 -50z" fill="#fe4365"/>
<path d="M8250 3090 l0 -50 45 0 45 0 0 50 0 50 -45 0 -45 0 0 -50z" fill="#fe4365"/>
<path d="M8910 3090 l0 -50 45 0 45 0 0 50 0 50 -45 0 -45 0 0 -50z" fill="#fe4365"/>
<path d="M9570 3090 l0 -50 45 0 45 0 0 50 0 50 -45 0 -45 0 0 -50z" fill="#fe4365"/>
<path d="M10230 3091 l0 -51 51 0 50 0 -3 48 -3 47 -47 3 -48 3 0 -50z" fill="#fe4365"/>
<path d="M10890 3091 l0 -51 51 0 50 0 -3 48 -3 47 -47 3 -48 3 0 -50z" fill="#fe4365"/>
<path d="M3660 2490 l0 -50 45 0 45 0 0 50 0 50 -45 0 -45 0 0 -50z" fill="#fe4365"/>
<path d="M4320 2490 l0 -50 45 0 45 0 0 50 0 50 -45 0 -45 0 0 -50z" fill="#fe4365"/>
<path d="M4980 2490 l0 -50 45 0 45 0 0 50 0 50 -45 0 -45 0 0 -50z" fill="#fe4365"/>
<path d="M5640 2490 l0 -50 45 0 45 0 0 50 0 50 -45 0 -45 0 0 -50z" fill="#fe4365"/>
<path d="M6300 2490 l0 -50 45 0 45 0 0 50 0 50 -45 0 -45 0 0 -50z" fill="#fe4365"/>
<path d="M6930 2490 l0 -50 45 0 45 0 0 50 0 50 -45 0 -45 0 0 -50z" fill="#fe4365"/>
<path d="M7590 2490 l0 -50 45 0 45 0 0 50 0 50 -45 0 -45 0 0 -50z" fill="#fe4365"/>
<path d="M8250 2490 l0 -50 45 0 45 0 0 50 0 50 -45 0 -45 0 0 -50z" fill="#fe4365"/>
<path d="M8910 2490 l0 -50 45 0 45 0 0 50 0 50 -45 0 -45 0 0 -50z" fill="#fe4365"/>
<path d="M9570 2490 l0 -50 45 0 45 0 0 50 0 50 -45 0 -45 0 0 -50z" fill="#fe4365"/>
<path d="M10230 2489 l0 -50 48 3 47 3 3 48 3 47 -50 0 -51 0 0 -51z" fill="#fe4365"/>
<path d="M3660 1900 l0 -50 45 0 45 0 0 50 0 50 -45 0 -45 0 0 -50z" fill="#fe4365"/>
<path d="M4320 1900 l0 -50 45 0 45 0 0 50 0 50 -45 0 -45 0 0 -50z" fill="#fe4365"/>
<path d="M4980 1900 l0 -50 45 0 45 0 0 50 0 50 -45 0 -45 0 0 -50z" fill="#fe4365"/>
<path d="M5640 1900 l0 -50 45 0 45 0 0 50 0 50 -45 0 -45 0 0 -50z" fill="#fe4365"/>
<path d="M6300 1900 l0 -50 45 0 45 0 0 50 0 50 -45 0 -45 0 0 -50z" fill="#fe4365"/>
<path d="M6930 1900 l0 -50 45 0 45 0 0 50 0 50 -45 0 -45 0 0 -50z" fill="#fe4365"/>
<path d="M8250 1865 l0 -45 45 0 45 0 0 45 0 45 -45 0 -45 0 0 -45z" fill="#fe4365"/>
<path d="M9570 1865 l0 -45 45 0 45 0 0 45 0 45 -45 0 -45 0 0 -45z" fill="#fe4365"/>
<path d="M10230 1865 l0 -45 50 0 50 0 0 45 0 45 -50 0 -50 0 0 -45z" fill="#fe4365"/>
<path d="M10890 1865 l0 -45 50 0 50 0 0 45 0 45 -50 0 -50 0 0 -45z" fill="#fe4365"/>
<path d="M11550 1865 l0 -45 50 0 50 0 0 45 0 45 -50 0 -50 0 0 -45z" fill="#fe4365"/>
<path d="M3660 1270 l0 -50 45 0 45 0 0 50 0 50 -45 0 -45 0 0 -50z" fill="#fe4365"/>
<path d="M4320 1270 l0 -50 45 0 45 0 0 50 0 50 -45 0 -45 0 0 -50z" fill="#fe4365"/>
<path d="M5640 1270 l0 -50 45 0 45 0 0 50 0 50 -45 0 -45 0 0 -50z" fill="#fe4365"/>
<path d="M6930 1270 l0 -50 45 0 45 0 0 50 0 50 -45 0 -45 0 0 -50z" fill="#fe4365"/>
<path d="M7590 1270 l0 -50 45 0 45 0 0 50 0 50 -45 0 -45 0 0 -50z" fill="#fe4365"/>
<path d="M8250 1270 l0 -50 45 0 45 0 0 50 0 50 -45 0 -45 0 0 -50z" fill="#fe4365"/>
<path d="M8910 1270 l0 -50 45 0 45 0 0 50 0 50 -45 0 -45 0 0 -50z" fill="#fe4365"/>
<path d="M9570 1270 l0 -50 45 0 45 0 0 50 0 50 -45 0 -45 0 0 -50z" fill="#fe4365"/>
<path d="M10230 1269 l0 -50 48 3 47 3 3 48 3 47 -50 0 -51 0 0 -51z" fill="#fe4365"/>
<path d="M3660 645 l0 -45 45 0 45 0 0 45 0 45 -45 0 -45 0 0 -45z" fill="#fe4365"/>
<path d="M4320 645 l0 -45 45 0 45 0 0 45 0 45 -45 0 -45 0 0 -45z" fill="#fe4365"/>
<path d="M4980 645 l0 -45 45 0 45 0 0 45 0 45 -45 0 -45 0 0 -45z" fill="#fe4365"/>
<path d="M5640 645 l0 -45 45 0 45 0 0 45 0 45 -45 0 -45 0 0 -45z" fill="#fe4365"/>
<path d="M6300 645 l0 -45 45 0 45 0 0 45 0 45 -45 0 -45 0 0 -45z" fill="#fe4365"/>
<path d="M6930 645 l0 -45 45 0 45 0 0 45 0 45 -45 0 -45 0 0 -45z" fill="#fe4365"/>
<path d="M8250 645 l0 -45 45 0 45 0 0 45 0 45 -45 0 -45 0 0 -45z" fill="#fe4365"/>
<path d="M8910 645 l0 -45 45 0 45 0 0 45 0 45 -45 0 -45 0 0 -45z" fill="#fe4365"/>
<path d="M9570 645 l0 -45 45 0 45 0 0 45 0 45 -45 0 -45 0 0 -45z" fill="#fe4365"/>
<path d="M10230 645 l0 -45 50 0 50 0 0 45 0 45 -50 0 -50 0 0 -45z" fill="#fe4365"/>
<path d="M10890 645 l0 -45 50 0 50 0 0 45 0 45 -50 0 -50 0 0 -45z" fill="#fe4365"/>
<path d="M11550 645 l0 -45 50 0 50 0 0 45 0 45 -50 0 -50 0 0 -45z" fill="#fe4365"/>
<path d="M3660 50 l0 -50 45 0 45 0 0 50 0 50 -45 0 -45 0 0 -50z" fill="#fe4365"/>
<path d="M4320 50 l0 -50 45 0 45 0 0 50 0 50 -45 0 -45 0 0 -50z" fill="#fe4365"/>
<path d="M4980 50 l0 -50 45 0 45 0 0 50 0 50 -45 0 -45 0 0 -50z" fill="#fe4365"/>
<path d="M5640 50 l0 -50 45 0 45 0 0 50 0 50 -45 0 -45 0 0 -50z" fill="#fe4365"/>
</g>
</svg>