<svg id="Layer_1" data-name="Layer 1" xmlns="http://www.w3.org/2000/svg" xmlns:xlink="http://www.w3.org/1999/xlink" viewBox="0 0 660 751.03"><defs><style>.cls-1{fill:url(#linear-gradient);}</style><linearGradient id="linear-gradient" x1="330" y1="0.52" x2="330" y2="750.52" gradientUnits="userSpaceOnUse"><stop offset="0" stop-color="#e21e26" stop-opacity="0"/><stop offset="0.51" stop-color="#e21e26"/><stop offset="1" stop-color="#e21e26" stop-opacity="0"/></linearGradient></defs><title>hex-red-line-gradient</title><path class="cls-1" d="M330,3.52a57.06,57.06,0,0,1,28.69,7.75l270,157.27A57.19,57.19,0,0,1,657,217.79V533.25a57.19,57.19,0,0,1-28.31,49.25l-270,157.27a57,57,0,0,1-57.38,0L31.31,582.5A57.19,57.19,0,0,1,3,533.25V217.79a57.19,57.19,0,0,1,28.31-49.25l270-157.27A57.06,57.06,0,0,1,330,3.52m0-3a60,60,0,0,0-30.2,8.15L29.8,165.94A60,60,0,0,0,0,217.79V533.25a60,60,0,0,0,29.8,51.85l270,157.27a60,60,0,0,0,60.4,0l270-157.27A60,60,0,0,0,660,533.25V217.79a60,60,0,0,0-29.8-51.85L360.2,8.67A60,60,0,0,0,330,.52Z"/></svg>