<svg id="Layer_1" data-name="Layer 1" xmlns="http://www.w3.org/2000/svg" viewBox="0 0 53 52.59"><defs><style>.cls-1,.cls-3{fill:#fff;}.cls-1,.cls-2{opacity:0.08;}</style></defs><title>hex-point-disable</title><path class="cls-1" d="M51.45,17.48,35.23,1.27A4.34,4.34,0,0,0,31.07.14L9.23,5.84a4.34,4.34,0,0,0-3.1,3.1L.42,30.79A4.34,4.34,0,0,0,1.55,35L17.77,51.17a4.34,4.34,0,0,0,4.17,1.13l21.84-5.7a4.34,4.34,0,0,0,3.1-3.1l5.7-21.84A4.34,4.34,0,0,0,51.45,17.48Z"/><g class="cls-2"><path class="cls-3" d="M42.5,33.92V18.52A2.92,2.92,0,0,0,41.06,16L28,8.34a2.92,2.92,0,0,0-2.95,0L11.94,16a2.92,2.92,0,0,0-1.44,2.52v15.4a2.92,2.92,0,0,0,1.44,2.52L25,44.1a2.92,2.92,0,0,0,2.95,0l13.08-7.66A2.92,2.92,0,0,0,42.5,33.92Z"/></g><g class="cls-2"><path class="cls-3" d="M34.63,23.37l-5.29-5.29A1.42,1.42,0,0,0,28,17.72l-7.12,1.86a1.42,1.42,0,0,0-1,1L18,27.71a1.42,1.42,0,0,0,.37,1.36l5.29,5.29a1.42,1.42,0,0,0,1.36.37l7.12-1.86a1.42,1.42,0,0,0,1-1L35,24.73A1.42,1.42,0,0,0,34.63,23.37Z"/></g></svg>