<?xml version="1.0" encoding="utf-8"?>
<!-- Generator: Adobe Illustrator 21.1.0, SVG Export Plug-In . SVG Version: 6.00 Build 0)  -->
<svg version="1.1" id="Layer_1" xmlns="http://www.w3.org/2000/svg" xmlns:xlink="http://www.w3.org/1999/xlink" x="0px" y="0px"
	 viewBox="0 0 440 500" style="enable-background:new 0 0 440 500;" xml:space="preserve">
<style type="text/css">
	.st0{opacity:0.16;}
	.st1{fill:#FFFFFF;}
</style>
<title>hex-light</title>
<g class="st0">
	<path class="st1" d="M440,355.1V144.9c0-14.2-7.6-27.4-19.9-34.6L240.1,5.4c-12.4-7.2-27.8-7.2-40.3,0l-180,104.9
		C7.6,117.5,0,130.6,0,144.9v210.3c0,14.2,7.6,27.4,19.9,34.6l180,104.9c12.4,7.2,27.8,7.2,40.3,0l180-104.9
		C432.4,382.5,440,369.4,440,355.1z"/>
</g>
<g class="st0">
	<path class="st1" d="M380.9,29.9l-27.2,27.2c-1.8,1.8-2.6,4.5-1.9,7l9.7,36.9c0.7,2.5,2.7,4.5,5.2,5.2l36.9,9.7
		c2.5,0.7,5.2-0.1,7-1.9l27.2-27.2c1.8-1.8,2.6-4.5,1.9-7L430,42.9c-0.7-2.5-2.7-4.5-5.2-5.2L388,28C385.4,27.3,382.8,28,380.9,29.9
		z"/>
</g>
</svg>
