<svg id="Layer_1" data-name="Layer 1" xmlns="http://www.w3.org/2000/svg" xmlns:xlink="http://www.w3.org/1999/xlink" viewBox="0 0 240 273.1"><defs><style>.cls-1{fill:none;}.cls-2{fill:#fff;}.cls-3{fill:url(#New_Pattern_Swatch_4);}</style><pattern id="New_Pattern_Swatch_4" data-name="New Pattern Swatch 4" width="20" height="30" patternTransform="translate(0 -57)" patternUnits="userSpaceOnUse" viewBox="0 0 20 30"><rect class="cls-1" width="20" height="30"/><circle class="cls-2" cx="20" cy="30" r="1"/><circle class="cls-2" cy="30" r="1"/><circle class="cls-2" cx="10" cy="15" r="1"/><circle class="cls-2" cx="20" r="1"/><circle class="cls-2" r="1"/></pattern></defs><title>hex-white-dotted</title><path class="cls-3" d="M240,193.93V79.07a21.83,21.83,0,0,0-10.83-18.86L131,3a21.83,21.83,0,0,0-22,0L10.83,60.21A21.83,21.83,0,0,0,0,79.07V193.93a21.83,21.83,0,0,0,10.83,18.86L109,270a21.83,21.83,0,0,0,22,0l98.17-57.24A21.83,21.83,0,0,0,240,193.93Z"/></svg>