<svg id="Layer_1" data-name="Layer 1" xmlns="http://www.w3.org/2000/svg" viewBox="0 0 60 60"><defs><style>.cls-1{fill:#fff;}</style></defs><title>ic-brief</title><path class="cls-1" d="M45.74,37.15c-1.61,1.61-4.13,2.77-6.32,1.25l-6.37-24.6s0,0,0-.07a1.14,1.14,0,0,0-.19-.33l0-.06,0,0a1,1,0,0,0-.22-.15l-.09,0a1,1,0,0,0-.35-.07h0l-18.19.35a1,1,0,0,0-.17,0,1,1,0,0,0-.2,0A1,1,0,0,0,13,14a1,1,0,0,0,0,.2,1,1,0,0,0,0,.17l-.35,18.19h0s0,.05,0,.08a.69.69,0,0,0,.11.38,1,1,0,0,0,.14.21l0,0,.06,0a1,1,0,0,0,.2.13l.13.06.07,0,24.63,6.38a7,7,0,0,1-.59,9.29h0a1,1,0,0,0-.22.33,1,1,0,0,0,0,.76l0,.05a1,1,0,0,0,.18.27l.09.06a.92.92,0,0,0,.22.15h0a1,1,0,0,0,.34.07,1,1,0,0,0,.27-.06l.11,0h0l0,0a1,1,0,0,0,.29-.19,9,9,0,0,0,2.65-6.4,9.2,9.2,0,0,0-.05-1l2,2a1,1,0,0,0,1.41-1.41L42,41.12a8.06,8.06,0,0,0,5.13-2.55,1,1,0,0,0-1.41-1.41Zm-16.11-22-6.81,6.81-6.55-6.55ZM14.86,16.78l6.55,6.55L14.6,30.14Zm.64,15.29,7.32-7.32L35.26,37.19Zm8.74-8.74L31.56,16l5.12,19.77Z"/></svg>