<svg id="Layer_1" data-name="Layer 1" xmlns="http://www.w3.org/2000/svg" viewBox="0 0 60 60"><defs><style>.cls-1{fill:#fff;}</style></defs><title>ic-design</title><path class="cls-1" d="M22,28.17a2.57,2.57,0,0,1-2-1l-1.08.88a4,4,0,0,0,3.23,1.44c2,0,3.12-1.08,3.12-2.54a2.16,2.16,0,0,0-1.71-2.18,2.13,2.13,0,0,0,1.4-2.07c0-1.43-1.15-2.28-2.78-2.28a4,4,0,0,0-3,1.35l1.05.85A2.45,2.45,0,0,1,22,21.76c.84,0,1.32.41,1.32,1.11s-.69,1.28-1.69,1.28h-.81v1.3h.83c1.09,0,2,.4,2,1.44C23.65,27.71,23,28.17,22,28.17Z"/><path class="cls-1" d="M30,29.5a2.83,2.83,0,0,0,3.06-2.92,2.75,2.75,0,0,0-2.82-3,3,3,0,0,0-1.94.74c.11-2,.84-2.61,1.75-2.61a1.75,1.75,0,0,1,1.53.8l1.12-.74A3.17,3.17,0,0,0,30,20.43c-2,0-3.24,1.43-3.24,4.74C26.75,28.23,28.05,29.5,30,29.5ZM30,24.92a1.44,1.44,0,0,1,1.54,1.63c0,1-.5,1.62-1.52,1.62s-1.62-.59-1.69-2.53A2.35,2.35,0,0,1,30,24.92Z"/><path class="cls-1" d="M37.58,29.5c2.22,0,3.28-1.93,3.28-4.53s-1.06-4.54-3.28-4.54S34.29,22.36,34.29,25,35.36,29.5,37.58,29.5Zm0-7.74c1.13,0,1.7,1.13,1.7,3.21s-.58,3.21-1.7,3.21S35.87,27,35.87,25,36.45,21.76,37.58,21.76Z"/><circle class="cls-1" cx="42.17" cy="19.65" r="0.95"/><path class="cls-1" d="M44.22,24.51a1,1,0,1,0-.49,1.94C49.07,27.79,51,29.52,51,30.59c0,2.13-7,5.37-19.77,5.67a1,1,0,0,0,0,2h0C41.71,38,53,35.52,53,30.59,53,27.38,48.21,25.51,44.22,24.51Z"/><path class="cls-1" d="M22.53,39.62A1,1,0,0,0,24,41l2.8-3a1,1,0,0,0,.09-1.24l-2.41-3.53a1,1,0,1,0-1.65,1.13L24,36.07C14.1,35.33,8,32.69,8,30.59c0-1.25,2.51-3.08,8.13-4.35a1,1,0,0,0-.44-2C9.41,25.7,6,27.94,6,30.59c0,4.56,9.5,6.85,18,7.48Z"/></svg>