<svg id="Layer_1" data-name="Layer 1" xmlns="http://www.w3.org/2000/svg" viewBox="0 0 60 60"><defs><style>.cls-1{fill:#fff;}</style></defs><title>ic-games</title><path class="cls-1" d="M26,30.17l8.66-12.79a1.1,1.1,0,0,0-.29-1.53,17.09,17.09,0,1,0-4.22,30.37,1.1,1.1,0,0,0,.7-1.39ZM24.77,44.89a14.89,14.89,0,1,1,7.42-27.8L23.86,29.38a1.1,1.1,0,0,0-.13,1l4.66,14.1A14.87,14.87,0,0,1,24.77,44.89Z"/><path class="cls-1" d="M37.59,27.72A4.42,4.42,0,1,0,42,32.14,4.42,4.42,0,0,0,37.59,27.72Zm0,6.64a2.22,2.22,0,1,1,2.22-2.22A2.22,2.22,0,0,1,37.59,34.36Z"/><path class="cls-1" d="M47.9,27.72a4.42,4.42,0,1,0,4.42,4.42A4.42,4.42,0,0,0,47.9,27.72Zm0,6.64a2.22,2.22,0,1,1,2.22-2.22A2.22,2.22,0,0,1,47.9,34.36Z"/><circle class="cls-1" cx="21.41" cy="21.47" r="1.86"/></svg>