<svg id="Layer_1" data-name="Layer 1" xmlns="http://www.w3.org/2000/svg" viewBox="0 0 36 26.59"><defs><style>.cls-1{fill:#e11f27;}</style></defs><title>ic-letter</title><path class="cls-1" d="M33.1.29H2.9A2.93,2.93,0,0,0,0,3.24v20.1a2.93,2.93,0,0,0,2.9,2.95H33.1A2.93,2.93,0,0,0,36,23.34V3.24A2.93,2.93,0,0,0,33.1.29Zm0,1.18a1.7,1.7,0,0,1,.83.22L19.37,14.59a2.15,2.15,0,0,1-2.74,0L2.07,1.7a1.69,1.69,0,0,1,.83-.22Zm1.74,21.87a1.75,1.75,0,0,1-1.74,1.77H2.9a1.75,1.75,0,0,1-1.74-1.77V3.24a1.78,1.78,0,0,1,.13-.67l14.58,12.9a3.3,3.3,0,0,0,4.26,0L34.71,2.57a1.78,1.78,0,0,1,.13.67Z"/></svg>