<svg id="Layer_1" data-name="Layer 1" xmlns="http://www.w3.org/2000/svg" viewBox="0 0 60 60"><defs><style>.cls-1{fill:#fff;}</style></defs><title>ic-navigation</title><path class="cls-1" d="M30.25,31.88a5,5,0,0,0,5-6,1,1,0,1,0-2,.37,3.05,3.05,0,1,1-3-2.48l.4,0a1,1,0,0,0,.26-2,5.25,5.25,0,0,0-.66,0,5,5,0,1,0,0,10.1Z"/><path class="cls-1" d="M35.71,18l-.06,0a22.36,22.36,0,0,0-7-.77c-12.44.66-20.54,11.54-20.88,12a1,1,0,0,0,0,1.17c.35.49,8.67,11.92,21.24,12.49l1,0c7.69,0,15.19-4.18,22.31-12.44a1,1,0,0,0,0-1.33C46.86,23.21,41.34,19.5,35.71,18ZM26,19.52a20.08,20.08,0,0,1,2.74-.36,20.35,20.35,0,0,1,6.36.69,8.48,8.48,0,1,1-9.1-.34Zm3.1,21.32c-10-.45-17.4-8.76-19.26-11.07a32.4,32.4,0,0,1,11.92-9,10.48,10.48,0,1,0,17.48.62,37.53,37.53,0,0,1,10.93,8.38C43.31,37.44,36.22,41.16,29.06,40.84Z"/></svg>