<svg id="Layer_1" data-name="Layer 1" xmlns="http://www.w3.org/2000/svg" viewBox="0 0 60 60"><defs><style>.cls-1{fill:#fff;}</style></defs><title>ic-repairs</title><path class="cls-1" d="M9,18.65l2.49.67a9.48,9.48,0,0,0,.58,5.28L9.82,25.91a1,1,0,0,0,1,1.73L13,26.36a9.47,9.47,0,0,0,4.14,3.4l-.66,2.45a1,1,0,1,0,1.93.52l.64-2.39a9.59,9.59,0,0,0,1.86.2,9.48,9.48,0,0,0,3.56-.7l1.2,2.08a1,1,0,1,0,1.73-1l-1.16-2a9.48,9.48,0,0,0,3.5-4.28l2.23.6a1,1,0,0,0,.52-1.93l-2.18-.59a9.48,9.48,0,0,0-.62-5.52l2-1.15a1,1,0,1,0-1-1.73l-2,1.14A9.48,9.48,0,0,0,24.4,12L25,9.73a1,1,0,1,0-1.93-.52l-.62,2.3a9.48,9.48,0,0,0-5.39.69L15.83,10a1,1,0,1,0-1.73,1l1.25,2.17a9.48,9.48,0,0,0-3.29,4.21l-2.52-.68A1,1,0,0,0,9,18.65Zm4.61.34a7.59,7.59,0,0,1,7.3-5.61,7.61,7.61,0,0,1,2,.26A7.58,7.58,0,1,1,13.62,19Z"/><path class="cls-1" d="M35.76,32.78l1.58.42a7.15,7.15,0,0,0,.39,3.52l-1.45.83a1,1,0,1,0,1,1.73l1.4-.81a7.17,7.17,0,0,0,2.76,2.25L41,42.29a1,1,0,0,0,1.93.52l.4-1.49A6.83,6.83,0,0,0,47,41l.76,1.32a1,1,0,1,0,1.73-1L48.74,40a7.16,7.16,0,0,0,2.33-2.87l1.39.38A1,1,0,0,0,53,35.62l-1.35-.36a7.16,7.16,0,0,0-.42-3.69l1.25-.72a1,1,0,1,0-1-1.73l-1.23.71a7.15,7.15,0,0,0-2.91-2.27l.39-1.45a1,1,0,1,0-1.93-.52L45.41,27a7.16,7.16,0,0,0-3.59.46L41,26.1a1,1,0,0,0-1.73,1l.79,1.37a7.15,7.15,0,0,0-2.19,2.8l-1.61-.43a1,1,0,1,0-.52,1.93Zm3.68.06a5.23,5.23,0,1,1,.52,4A5.19,5.19,0,0,1,39.44,32.83Z"/><path class="cls-1" d="M32.55,44.91l-.86-.23a5.78,5.78,0,0,0-.29-2.62l.81-.46a1,1,0,1,0-1-1.73l-.79.46a5.82,5.82,0,0,0-2.06-1.6l.25-.95a1,1,0,1,0-1.93-.52l-.25.94a5.81,5.81,0,0,0-2.53.32l-.52-.91a1,1,0,1,0-1.73,1l.52.91a5.82,5.82,0,0,0-1.55,2l-1.07-.29A1,1,0,0,0,19,43.13l1,.28a5.82,5.82,0,0,0,.27,2.48l-1,.55a1,1,0,0,0,1,1.73l.94-.54a5.78,5.78,0,0,0,1.93,1.6l-.28,1a1,1,0,1,0,1.93.52l.26-1a5.84,5.84,0,0,0,.74,0,5.78,5.78,0,0,0,1.82-.31l.5.87a1,1,0,1,0,1.73-1l-.47-.82a5.78,5.78,0,0,0,1.67-2l.9.24a1,1,0,0,0,.52-1.93Zm-3,.11a3.85,3.85,0,1,1-3.73-4.86,3.88,3.88,0,0,1,1,.13A3.85,3.85,0,0,1,29.6,45Z"/></svg>