<svg id="Layer_1" data-name="Layer 1" xmlns="http://www.w3.org/2000/svg" viewBox="0 0 60 60"><defs><style>.cls-1{fill:#fff;}</style></defs><title>ic-training</title><path class="cls-1" d="M54.85,20.42a4.21,4.21,0,0,0-3.49.17l-2.91,1.08a18.09,18.09,0,0,0-16.27-10A18.24,18.24,0,0,0,15.67,37.79c-8.56,2.37-9.94,1.29-10.15,1-.39-.6.93-2.68,2.32-4.06a1,1,0,0,0-1.41-1.42c-.69.69-4.08,4.24-2.6,6.56.49.77,1.44,1.43,3.75,1.43a35.8,35.8,0,0,0,9.06-1.66A18.26,18.26,0,0,0,50.47,30a15.54,15.54,0,0,0-.13-2.12l4.4-1.73a2.82,2.82,0,0,0,1.56-3.73A3,3,0,0,0,54.85,20.42ZM32.19,46.28A16.28,16.28,0,0,1,18.64,39c2.75-.84,6-1.94,9.89-3.38a1,1,0,1,0-.7-1.87c-4.12,1.53-7.47,2.65-10.21,3.47A16.25,16.25,0,0,1,32.19,13.72a15.89,15.89,0,0,1,14.38,8.65l-1,.38A4,4,0,0,1,43,22.8l-7.25-1.55a4.88,4.88,0,0,0-2-.18l-1.81.2a1.3,1.3,0,0,0-.74,2.24L35.4,27.4l-1.07.49a3.57,3.57,0,0,1-2.58.15l-2.51-.8a3.71,3.71,0,0,0-3.16.42l-.44.29A1.29,1.29,0,0,0,25.52,30l4.19,3.35a4.83,4.83,0,0,0,4.77.72l13.93-5.46c0,.43.06.86.06,1.36A16.3,16.3,0,0,1,32.19,46.28ZM54.48,23.83a.81.81,0,0,1-.46.46L33.75,32.24A2.82,2.82,0,0,1,31,31.82l-3.36-2.68a1.74,1.74,0,0,1,1,0l2.51.8a5.56,5.56,0,0,0,4-.24l2-.93a1.3,1.3,0,0,0,.35-2.13l-3.82-3.56.28,0a3.08,3.08,0,0,1,1.24.13l7.25,1.55a5.91,5.91,0,0,0,3.73-.11l4-1.46,1.89-.7c1.24-.48,1.72-.35,1.87-.27s.28.14.46.81a1,1,0,0,0,.06.17A.81.81,0,0,1,54.48,23.83Z"/></svg>