<svg id="Layer_1" data-name="Layer 1" xmlns="http://www.w3.org/2000/svg" viewBox="0 0 60 60"><defs><style>.cls-1{fill:#fff;}</style></defs><title>ic-travel</title><path class="cls-1" d="M32.57,17.37a3,3,0,1,0-3-3A3,3,0,0,0,32.57,17.37Zm0-4a1,1,0,1,1-1,1A1,1,0,0,1,32.57,13.35Z"/><path class="cls-1" d="M41.49,14.64a3,3,0,1,0-3-3A3,3,0,0,0,41.49,14.64Zm0-4a1,1,0,1,1-1,1A1,1,0,0,1,41.49,10.62Z"/><path class="cls-1" d="M11.38,51.38H48.62A3.85,3.85,0,0,0,52.15,46L52,45.65a3.84,3.84,0,0,0-3.23-2.3l-1.4-.11-.86-2.37a5.56,5.56,0,0,0-3.81-3.48,3.57,3.57,0,0,1-2.59-2.78L38,23.22a5.55,5.55,0,0,0-5.46-4.53H27.4c-2.84,0-5,2.13-5.65,5.56l-1.52,8.1a1,1,0,0,0-.12.45s0,.07,0,.11L19.92,34a3.56,3.56,0,0,1-2.32,2.69l-.5.17a5.52,5.52,0,0,0-3.16,2.82L12.34,43h-.66a3.85,3.85,0,0,0-3.53,2.3l-.3.68a3.85,3.85,0,0,0,3.53,5.4ZM23.72,24.62c.47-2.49,1.81-3.92,3.69-3.92h5.12A3.55,3.55,0,0,1,36,23.42a3,3,0,0,0-.38,0,3.07,3.07,0,0,0-3.07,3.06V33a1.07,1.07,0,0,1-2.13,0v-3.9a3.07,3.07,0,0,0-6.13,0v3.64a1.07,1.07,0,0,1-1.07,1.06,1.05,1.05,0,0,1-1-.89Zm-14,22.17.3-.68A1.85,1.85,0,0,1,11.68,45H16a1,1,0,1,0,0-2H14.56l1.19-2.45a3.53,3.53,0,0,1,2-1.8l.5-.17a5.55,5.55,0,0,0,3.31-3.18,3,3,0,0,0,1.61.47,3.07,3.07,0,0,0,3.07-3.06V29.15a1.07,1.07,0,0,1,2.13,0V33a3.07,3.07,0,0,0,6.13,0V26.43a1.06,1.06,0,0,1,1.91-.64L38.15,35a5.58,5.58,0,0,0,4,4.34,3.56,3.56,0,0,1,2.44,2.23l.57,1.57A6.71,6.71,0,0,0,43,44a1,1,0,0,0,1,1.73,4.11,4.11,0,0,1,1.55-.59l3.07.24a1.85,1.85,0,0,1,1.55,1.11l.15.34a1.85,1.85,0,0,1-1.7,2.59H11.38a1.85,1.85,0,0,1-1.69-2.59Z"/></svg>