<svg id="Layer_1" data-name="Layer 1" xmlns="http://www.w3.org/2000/svg" viewBox="0 0 152 43"><defs><style>.cls-1{fill:#fff;}</style></defs><title>logo-ssw-white</title><path class="cls-1" d="M51.19,42.3v-.72h.07a7.46,7.46,0,0,0,1.65.27h.27c.83,0,1.38-.31,1.38-1.14s-.37-.94-1-1.1l-.89-.24a1.74,1.74,0,0,1-1.45-1.76c0-1.07.82-1.79,2.13-1.79h.2a4.72,4.72,0,0,1,1.52.27v.7H55a5.67,5.67,0,0,0-1.45-.25h-.2c-.83,0-1.31.31-1.31,1.07s.44.87,1,1l.86.25a1.73,1.73,0,0,1,1.48,1.83c0,1.14-.82,1.86-2.2,1.86H52.9A7.22,7.22,0,0,1,51.19,42.3Z"/><path class="cls-1" d="M56.62,40c0-1.45.69-2.42,2.1-2.42s2.1,1,2.1,2.42-.69,2.55-2.1,2.55S56.62,41.6,56.62,40Zm3.44,0c0-1.07-.31-1.73-1.34-1.73S57.38,39,57.38,40s.31,1.86,1.34,1.86S60.06,41.09,60.06,40Z"/><path class="cls-1" d="M62.6,38.37h-.76v-.69h.76v-.2a1.45,1.45,0,0,1,1.59-1.59h.55v.69h-.55c-.62,0-.83.27-.83.9v.2H64.6v.69H63.35V42.5H62.6Z"/><path class="cls-1" d="M67.78,42.5a1.47,1.47,0,0,1-1.66-1.66V38.37h-.76v-.69h.76v-1.1h.76v1.1h1.38v.69H66.88v2.35c0,.89.27,1.1,1,1.1h.48v.69Z"/><path class="cls-1" d="M69.42,38.92V37.68h.76v1.24a5.17,5.17,0,0,0,.86,3,5.16,5.16,0,0,0,.86-3V37.68h.76v1.24a5.16,5.16,0,0,0,.86,3,5.23,5.23,0,0,0,.86-3V37.68h.76v1.24A5.7,5.7,0,0,1,74,42.5h-.82a4.9,4.9,0,0,1-.86-1.66,4.9,4.9,0,0,1-.86,1.66h-.82A5.7,5.7,0,0,1,69.42,38.92Z"/><path class="cls-1" d="M76.4,40.91v-.76a2.48,2.48,0,0,1,2.55-2.48h1.3V42.5h-.76v-.9l-.34.34a1.88,1.88,0,0,1-1.38.63C77,42.57,76.4,42.09,76.4,40.91Zm3.09-.07V38.37h-.55a1.69,1.69,0,0,0-1.79,1.79v.76c0,.76.34,1,.75,1a2.3,2.3,0,0,0,1.31-.76Z"/><path class="cls-1" d="M82.17,37.68h.76v1.07l.07-.11a1.71,1.71,0,0,1,1.41-1h.31v.83h-.34a1.32,1.32,0,0,0-.9.34l-.55.55v3.1h-.76Z"/><path class="cls-1" d="M85.64,40.64v-1a2,2,0,0,1,2.06-2.07c1,0,1.65.41,1.65,1.38a1.32,1.32,0,0,1-1.51,1.38H86.4v.27a1.14,1.14,0,0,0,1.3,1.24,3.38,3.38,0,0,0,1.3-.31h.07v.69a3.82,3.82,0,0,1-1.38.31A1.81,1.81,0,0,1,85.64,40.64Zm.76-.9h1.23c.76,0,1-.27,1-.75s-.35-.7-.9-.7c-.83,0-1.3.41-1.3,1.38Z"/><path class="cls-1" d="M50.73,30.45H64.12a5,5,0,0,0,5.17-4.86v-.91a5,5,0,0,0-5-4.86H55.16a1.38,1.38,0,0,1-1.42-1.34V17.6a1.38,1.38,0,0,1,1.42-1.34H68.28V12.74H55.16A5,5,0,0,0,50,17.6v.88a5,5,0,0,0,5.17,4.86h9a1.39,1.39,0,0,1,1.42,1.34v.91a1.38,1.38,0,0,1-1.42,1.34H50.73Z"/><path class="cls-1" d="M73.73,30.44h3.75V12.74H73.73Z"/><path class="cls-1" d="M126.16,30.44h3.75V17.6a5,5,0,0,0-5.17-4.86H106.06v17.7h3.73V16.27H116V30.44h3.74V16.27h5a1.38,1.38,0,0,1,1.42,1.34Z"/><path class="cls-1" d="M152,17.6a5,5,0,0,0-5.17-4.86h-11.9v3.52h11.9a1.38,1.38,0,0,1,1.42,1.34v2.21H138.8a5,5,0,0,0-5.17,4.86v.9a5,5,0,0,0,5.17,4.86H152Zm-3.76,9.32H138.8a1.38,1.38,0,0,1-1.42-1.34v-.9a1.39,1.39,0,0,1,1.42-1.34h9.45Z"/><path class="cls-1" d="M82.53,25.59a5,5,0,0,0,5.17,4.86h13.2V19.83H91v3.52h6.09v3.58H87.7a1.39,1.39,0,0,1-1.43-1.34v-8a1.39,1.39,0,0,1,1.43-1.34h13.17V12.74H87.7a5,5,0,0,0-5.17,4.86Z"/><path class="cls-1" d="M21.3,42.8c-3.19,0-5.85-5.67-6.82-14.48C5.67,27.35,0,24.69,0,21.5s5.67-5.85,14.48-6.82C15.45,5.87,18.11.2,21.3.2s5.8,5.59,6.79,14.23l0,.25h0c8.79,1,14.47,3.64,14.47,6.81s-5.67,5.85-14.48,6.82C27.15,37.13,24.49,42.8,21.3,42.8Zm0-41.44c-2.49,0-4.89,5.85-5.71,13.91l0,.47-.47,0C7,16.61,1.16,19,1.16,21.5S7,26.39,15.07,27.21l.47,0,0,.47c.82,8.06,3.22,13.91,5.71,13.91S26.19,35.79,27,27.73l0-.27.06,0,.05-.17.38,0c8.06-.82,13.91-3.22,13.91-5.71S35.79,16.7,28,15.84l-.45,0h-.49L27,15.27q0-.36-.08-.71C26,6.79,23.73,1.36,21.3,1.36Z"/></svg>