<?xml version="1.0" encoding="UTF-8"?>
<svg width="170px" height="85px" viewBox="0 0 170 85" version="1.1" xmlns="http://www.w3.org/2000/svg" xmlns:xlink="http://www.w3.org/1999/xlink">
    <title>mikz</title>
    <g id="Page-1" stroke="none" stroke-width="1" fill="none" fill-rule="evenodd">
        <g id="Artboard" transform="translate(-240.000000, -260.000000)">
            <g id="mikz" transform="translate(240.000000, 260.000000)">
                <rect id="bounding_box" x="0" y="0" width="170" height="85"></rect>
                <g id="icon" transform="translate(10.000000, 33.000000)" fill="#FEFEFE" fill-rule="nonzero">
                    <path d="M114.616667,7.1469697 C114.991563,7.14593145 115.365467,7.18555709 115.731818,7.26515152 C116.085998,7.33980123 116.431335,7.451528 116.762121,7.59848485 C117.073119,7.73580414 117.36661,7.90976247 117.636364,8.11666667 C117.827159,8.26174632 117.999716,8.42891624 118.150518,8.61448948 L118.293939,8.80606061 L117.418182,9.45757576 C117.310606,9.28939394 117.168182,9.12121212 116.987879,8.9530303 C116.807576,8.78636364 116.595455,8.63787879 116.35303,8.51060606 C116.110606,8.38030303 115.845455,8.27727273 115.557576,8.19848485 C115.271212,8.11969697 114.962121,8.08030303 114.631818,8.08030303 C113.43086,8.04821149 112.277381,8.54977213 111.481818,9.45 C111.110606,9.86969697 110.828788,10.3560606 110.633333,10.9090909 C110.439394,11.4621212 110.340909,12.0454545 110.340909,12.6575758 C110.33843,13.2534184 110.439953,13.8451227 110.640909,14.4060606 C110.830833,14.9421305 111.120817,15.4372631 111.495455,15.8651515 C112.288547,16.7608206 113.435787,17.2618376 114.631818,17.2348485 C115.216358,17.2367409 115.794156,17.110008 116.324242,16.8636364 C116.795427,16.6402095 117.204253,16.3065237 117.516963,15.8924093 L117.665152,15.6787879 L118.483333,16.2121212 C118.307576,16.480303 118.095455,16.730303 117.848485,16.9681818 C117.590143,17.2121495 117.300785,17.4210174 116.987879,17.5893939 C116.662121,17.7681818 116.301515,17.9090909 115.907576,18.0121212 C115.513636,18.1166667 115.083333,18.1681818 114.616667,18.1681818 C113.837879,18.1681818 113.119697,18.030303 112.457576,17.7530303 C111.795455,17.4772727 111.227273,17.0939394 110.75,16.6060606 C110.274242,16.1166667 109.901515,15.5363636 109.634848,14.8636364 C109.366667,14.1924242 109.233333,13.4575758 109.233333,12.6575758 C109.224887,11.9026114 109.363848,11.1532541 109.642424,10.4515152 C109.899944,9.80151303 110.284164,9.20921646 110.772727,8.70909091 C111.259762,8.21675148 111.840338,7.82678163 112.480303,7.56212121 C113.157307,7.28163418 113.883888,7.14044038 114.616667,7.1469697 Z M127.218182,7.41515152 L127.218182,8.36363636 L121.863636,8.36363636 L121.863636,11.9757576 L126.868182,11.9757576 L126.868182,12.9090909 L121.863636,12.9090909 L121.862121,16.9545455 L127.392424,16.9545455 L127.392424,17.9030303 L120.812121,17.9030303 L120.812121,7.41515152 L127.218182,7.41515152 Z M68.2,7.41363636 L68.2,16.9530303 L73.0136364,16.9530303 L73.0136364,17.9015152 L67.1484848,17.9015152 L67.1484848,7.41363636 L68.2,7.41363636 Z M76.1606061,7.41363636 L76.1606061,16.9530303 L80.9742424,16.9530303 L80.9742424,17.9015152 L75.1106061,17.9015152 L75.1106061,7.41363636 L76.1606061,7.41363636 Z M99.4333333,7.41363636 L105.443939,16.3454545 L105.472727,16.3454545 L105.472727,7.41363636 L106.524242,7.41363636 L106.524242,17.9015152 L105.210606,17.9015152 L99.2,8.88030303 L99.169697,8.88030303 L99.169697,17.9015152 L98.119697,17.9015152 L98.119697,7.41363636 L99.4333333,7.41363636 Z M91.6469697,7.41363636 L96.0818182,17.9015152 L94.9136364,17.9015152 L93.7772727,15.1454545 L88.4378788,15.1454545 L87.3136364,17.9015152 L86.1621212,17.9015152 L90.6257576,7.41363636 L91.6469697,7.41363636 Z M60.6757576,7.41363636 L65.1106061,17.9015152 L63.9424242,17.9015152 L62.8060606,15.1454545 L57.4666667,15.1454545 L56.3424242,17.9015152 L55.1893939,17.9015152 L59.6545455,7.41363636 L60.6757576,7.41363636 Z M84.1227273,7.41363636 L84.1227273,17.9015152 L83.0727273,17.9015152 L83.0727273,7.41363636 L84.1227273,7.41363636 Z M5.9469697,7.08030303 C6.04151515,7.08030303 6.0730303,7.12006061 6.09349091,7.18483636 L7.63966061,13.6716 C7.73715152,14.1083636 7.8169697,14.5509091 7.83787879,15.0136364 C8.63909091,13.579697 9.53436364,12.2369091 10.4081091,10.882097 L12.7424242,7.19545455 L12.7424242,7.19545455 C12.7646465,7.16212121 12.8043771,7.12609428 12.8445567,7.10578002 L12.9030303,7.08939394 C14.15,7.08333333 15.3969697,7.08484848 16.6424242,7.08484848 L16.7212121,7.0969697 L14.5893939,17.6060606 L12.0090909,17.6060606 L12.8320076,13.5234848 C13.1060606,12.1655303 13.3856061,10.8121212 13.6878788,9.46818182 L13.5190797,9.78232323 C13.4885522,9.83703704 13.4565657,9.89191919 13.4227273,9.94545455 L9.33181818,16.3666667 L9.33181818,16.3666667 C9.0969697,16.7378788 8.86515152,17.1121212 8.63787879,17.4878788 C8.58484848,17.5772727 8.52878788,17.6181818 8.42272727,17.6167748 C7.68182822,17.6112135 6.94089906,17.6112135 6.2,17.6167748 C6.12272727,17.617817 6.07954545,17.6018974 6.05127841,17.5465681 L6.02727273,17.4772727 L4.30909091,10.2378788 C4.2469697,9.97727273 4.21969697,9.70757576 4.17424242,9.43939394 L4.1530303,9.4530303 L4.1530303,9.4530303 C4.09848485,10.4287879 3.83484848,11.3636364 3.65,12.3121212 L3.13200758,14.8929924 L3.13200758,14.8929924 L2.60606061,17.4727273 L2.57575758,17.6030303 L0,17.6030303 L0.310606061,16.0424242 L1.57121212,9.85151515 C1.74848485,8.97575758 1.92575758,8.10151515 2.0969697,7.22272727 C2.11666667,7.11818182 2.15151515,7.08181818 2.2530303,7.08181818 C3.48333333,7.08636364 4.71515152,7.08636364 5.9469697,7.08030303 Z M39.2954545,7.08484848 L33.1060606,11.5333333 L37.9348485,17.6136364 L37.7424242,17.6136364 C36.6318182,17.6136364 35.519697,17.6151515 34.4090909,17.6106061 C34.3409091,17.6106061 34.2469697,17.5757576 34.2075758,17.5212121 L32.0246212,14.5492424 L32.0246212,14.5492424 L29.8439394,11.5727273 L29.8015152,11.5060606 L31.3575758,10.3666667 L35.6606061,7.18939394 L35.6606061,7.18939394 C35.7493894,7.1265986 35.8549162,7.09177473 35.9636364,7.08939394 L37.5318182,7.0842803 L37.5318182,7.0842803 L39.2954545,7.08484848 Z M134.15303,14.1439394 L134.497755,14.1528058 L134.497755,14.1528058 L135.187879,14.1469697 L136.284848,14.1469697 C136.613636,14.1484848 136.810606,14.3545455 136.810606,14.7030303 C136.815152,15.4878788 136.815152,16.2727273 136.810606,17.0560606 C136.80928,17.3583333 136.65367,17.5585227 136.398585,17.6038471 L136.283333,17.6136364 L134.090909,17.6136364 C133.778788,17.6136364 133.587879,17.4181818 133.578788,17.0787879 L133.575758,16.7100379 L133.575758,16.7100379 L133.577273,16.3424242 C133.577273,15.8136364 133.584848,15.2848485 133.574242,14.7575758 C133.568182,14.3893939 133.751515,14.1212121 134.15303,14.1439394 Z M149.504545,14.1469697 C149.777652,14.1482955 149.950994,14.2992661 149.990063,14.5572502 L149.998485,14.6742424 L149.998485,17.0909091 C149.998485,17.3679924 149.85464,17.560393 149.619732,17.6041637 L149.513636,17.6136364 L147.292424,17.6136364 C146.981818,17.6121212 146.780303,17.4045455 146.780303,17.0757576 C146.777273,16.2818182 146.777273,15.4863636 146.780303,14.6909091 C146.781629,14.3912879 146.929119,14.2007102 147.183188,14.1567324 L147.298485,14.1469697 L149.504545,14.1469697 Z M27.9818182,7.08030303 L29.2058712,7.08541667 L29.2058712,7.08541667 L30.4646465,7.08619529 L30.4646465,7.08619529 L30.5606061,7.09393939 L28.430303,17.6060606 L25.7287879,17.6060606 L25.9015152,16.7409091 L27.2393939,10.1469697 L27.8227273,7.23787879 C27.8424242,7.14090909 27.8636364,7.08030303 27.9818182,7.08030303 Z M21.080303,7.08030303 L22.2899621,7.08541667 L22.2899621,7.08541667 L23.6575758,7.08484848 L21.5257576,17.6060606 L18.7939394,17.6060606 L18.9924242,16.6151515 L20.3575758,9.89393939 C20.5363636,9.01212121 20.7136364,8.13030303 20.8833333,7.2469697 C20.9090909,7.11818182 20.9560606,7.08030303 21.080303,7.08030303 Z M42.1257576,7.08030303 L46.8554924,7.0842803 L46.8554924,7.0842803 L52.6090909,7.08484848 L52.5106061,7.57272727 C52.4257576,7.99090909 52.3454545,8.40757576 52.2530303,8.82424242 C52.2339132,8.90241444 52.1903961,8.97246641 52.1287879,9.02424242 L51.7206439,9.33768939 L51.7206439,9.33768939 L43.4539773,15.5850379 L43.4539773,15.5850379 L43.3969697,15.6318182 L43.4090909,15.6681818 L50.8681818,15.6681818 L50.4848485,17.6060606 L39.2833333,17.6060606 L39.2924242,17.4848485 L39.2924242,17.4848485 C39.4045455,16.919697 39.5121212,16.3560606 39.6333333,15.7954545 C39.6552007,15.712172 39.7042616,15.6385807 39.7727273,15.5863636 L47.3590909,9.86515152 L47.3590909,9.86515152 L47.7342312,9.57514029 L47.7342312,9.57514029 L48.4969697,8.96212121 L41.5606061,8.96212121 L41.7287879,8.11363636 C41.7848485,7.83787879 41.8530303,7.56212121 41.8954545,7.28333333 C41.919697,7.12878788 41.9742424,7.08030303 42.1257576,7.08030303 Z M60.1348485,8.59848485 L57.8606061,14.1681818 L62.4121212,14.1681818 L60.1348485,8.59848485 Z M91.1075758,8.59848485 L88.830303,14.1681818 L93.3833333,14.1681818 L91.1075758,8.59848485 Z M139.571212,10.6242424 C139.874811,10.6255682 140.056605,10.7800189 140.09731,11.0713542 L140.106061,11.2045455 L140.106061,13.4924242 C140.104545,13.8484848 139.924242,14.0606061 139.592424,14.0636364 C138.85303,14.0681818 138.110606,14.0681818 137.371212,14.0636364 C137.102083,14.0609848 136.929238,13.9005682 136.888201,13.6412583 L136.878788,13.5242424 L136.878788,11.169697 C136.880114,10.8674242 137.024124,10.6765152 137.278338,10.6335109 L137.393939,10.6242424 L139.571212,10.6242424 Z M146.213636,10.6242424 C146.476136,10.6242424 146.650473,10.7762074 146.691986,11.0293857 L146.701515,11.1439394 L146.701515,13.530303 C146.7,13.8530303 146.524242,14.0590909 146.222727,14.0606061 C145.477273,14.0666667 144.731818,14.0681818 143.986364,14.0606061 C143.703977,14.0579545 143.528314,13.8940578 143.488811,13.6227125 L143.480303,13.5 L143.480303,11.180303 C143.480303,10.8378788 143.672727,10.6257576 143.990909,10.6257576 L146.213636,10.6242424 Z M140.690909,7.06969697 L142.881818,7.06969697 C143.15303,7.08333333 143.348485,7.27878788 143.35,7.56969697 C143.357576,8.39545455 143.357576,9.22424242 143.35,10.0515152 C143.348485,10.3318182 143.154545,10.5393939 142.889394,10.5393939 C142.128788,10.5484848 141.368182,10.55 140.607576,10.5393939 C140.345076,10.5380682 140.174219,10.3650568 140.135606,10.1046076 L140.127273,9.98787879 L140.127273,7.66515152 C140.127273,7.31515152 140.267637,7.12175663 140.557502,7.07887666 L140.690909,7.06969697 Z M145.078784,3.54681901 L146.219697,3.55151515 C146.475568,3.55416667 146.651397,3.7227036 146.692371,3.9728782 L146.701515,4.08484848 L146.701515,6.43939394 C146.701515,6.72840909 146.55303,6.9304214 146.310872,6.97843868 L146.201515,6.98939394 L143.965152,6.98939394 C143.672727,6.98787879 143.481818,6.78484848 143.481818,6.47727273 C143.478788,5.67121212 143.478788,4.86666667 143.481818,4.05909091 C143.483333,3.76818182 143.665152,3.55606061 143.937879,3.5530303 L145.078784,3.54681901 L145.078784,3.54681901 Z M137.415152,3.55 L139.592424,3.55 C139.881439,3.55132576 140.055611,3.69997633 140.095653,3.97260594 L140.104545,4.0969697 L140.104545,6.43333333 C140.10322,6.75018939 139.96617,6.93828125 139.705575,6.98035334 L139.586364,6.98939394 L137.424242,6.98939394 C137.115341,6.98939394 136.929403,6.82930871 136.887746,6.53552912 L136.878788,6.40151515 L136.878788,4.12878788 C136.880303,3.76212121 137.071212,3.55151515 137.415152,3.55 Z M149.495455,-6.39488462e-14 C149.764583,-6.39488462e-14 149.949029,0.162405303 149.990936,0.424283854 L150,0.542424242 L150,2.8969697 C149.998674,3.21647727 149.858144,3.41302083 149.595665,3.45716442 L149.475758,3.46666667 L147.283333,3.46666667 C146.972727,3.46515152 146.787879,3.29393939 146.783333,2.96363636 C146.775511,2.13638213 146.775511,1.30907242 146.783333,0.481818182 C146.784632,0.22987013 146.92953,0.0558441558 147.145512,0.011264246 L147.259091,-6.39488462e-14 L149.495455,-6.39488462e-14 Z M136.309091,-6.39488462e-14 C136.60303,-6.39488462e-14 136.804545,0.181818182 136.807576,0.495454545 C136.816667,1.31212121 136.819697,2.12878788 136.807576,2.94393939 C136.800947,3.2594697 136.658594,3.42303504 136.394727,3.45899621 L136.274242,3.46666667 L134.125758,3.46666667 C133.781818,3.46666667 133.584848,3.28181818 133.580303,2.91515152 C133.571783,2.1151742 133.571783,1.31512883 133.580303,0.515151515 C133.58428,0.242045455 133.748343,0.0536221591 133.982153,0.00976858428 L134.086364,-6.39488462e-14 L136.309091,-6.39488462e-14 Z" id="Shape"></path>
                </g>
            </g>
        </g>
    </g>
</svg>