<?xml version="1.0" encoding="UTF-8"?>
<svg width="70px" height="70px" viewBox="0 0 70 70" version="1.1" xmlns="http://www.w3.org/2000/svg" xmlns:xlink="http://www.w3.org/1999/xlink">
    <style>svg {color:#e30613;}</style>
    <title>decor-icons-red-security</title>
    <g id="Symbols" stroke="none" stroke-width="1" fill="none" fill-rule="evenodd">
        <g id="decor-icons-red-security">
            <rect id="bounding_box" x="0" y="0" width="70" height="70"></rect>
            <g id="icon" transform="translate(15.000000, 10.000000)" fill="currentColor">
                <path d="M18.1828,0.1024 L18.1828,1.5136 L9.4741,1.5136 L9.4741,5.20288 L8.926,5.848 L2.21685,7.47088 L2.16566536,9.99709119 L2.16566536,9.99709119 L2.13578808,12.5227114 L2.13578808,12.5227114 L2.1279355,13.9601497 L2.1279355,13.9601497 L2.12676875,15.12538 C2.12779351,16.0599608 2.13369245,17.0287908 2.1464216,18.0056826 L2.16670521,19.2640671 L2.16670521,19.2640671 L2.1848656,20.101818 L2.22650752,21.5531332 C2.27480898,22.9899188 2.3438226,24.3732954 2.44015,25.61488 C3.07033261,33.8457478 7.9456244,39.669781 12.5358566,43.3874804 L13.0742956,43.8151572 L13.0742956,43.8151572 L13.608465,44.223507 C13.6970464,44.2899608 13.7853815,44.3556138 13.8734363,44.4204683 L14.3981278,44.8000318 L14.3981278,44.8000318 L14.9144516,45.1605402 L14.9144516,45.1605402 L15.4207685,45.5021023 L15.4207685,45.5021023 L16.1578949,45.979159 L16.1578949,45.979159 L16.863285,46.4141982 L16.863285,46.4141982 L17.3131816,46.6810625 L17.3131816,46.6810625 L17.7448751,46.9295242 L17.7448751,46.9295242 L18.1567261,47.1596921 L18.1567261,47.1596921 L18.7337123,47.4708807 L18.7337123,47.4708807 L19.2568322,47.7415197 L19.2568322,47.7415197 L19.7563422,47.9893786 L19.7563422,47.9893786 L20.236888,48.2173796 L20.236888,48.2173796 L20.7,48.42592 L20.7,48.42592 L21.1693655,48.2144959 L21.1693655,48.2144959 L21.6937393,47.9650837 L21.6937393,47.9650837 L22.3357776,47.6433829 L22.3357776,47.6433829 L22.8863747,47.3541488 L22.8863747,47.3541488 L23.2831545,47.1382864 L23.2831545,47.1382864 L23.9186634,46.7796638 L23.9186634,46.7796638 L24.3667596,46.5172053 L24.3667596,46.5172053 L25.0713061,46.0881829 L25.0713061,46.0881829 L25.560136,45.7784541 L25.560136,45.7784541 L26.0622962,45.4496285 L26.0622962,45.4496285 L26.5760934,45.1015981 L26.5760934,45.1015981 L27.0998345,44.7342551 C27.1878593,44.6714159 27.2762278,44.6077675 27.3649049,44.5433077 L27.9003869,44.1467936 C27.9901568,44.079079 28.0801647,44.0105485 28.1703752,43.9411999 L28.7137883,43.5152719 L28.7137883,43.5152719 L29.2603723,43.0695998 C33.7324799,39.3490291 38.3524115,33.6424369 38.97,25.68544 C39.0450079,24.7138928 39.1034544,23.6571196 39.1484564,22.5568494 L39.196205,21.2183173 L39.196205,21.2183173 L39.2322438,19.854052 L39.2322438,19.854052 L39.2614122,18.227776 L39.2614122,18.227776 L39.2800403,16.2434791 L39.2800403,16.2434791 L39.2820582,13.958495 L39.2820582,13.958495 L39.2711588,12.1929328 L39.2711588,12.1929328 L39.2441861,10.0332361 L39.2441861,10.0332361 L39.1933,7.54144 L39.1933,7.54144 L32.474,5.848 L31.9259,5.16256 L31.9259,1.5136 L28.68805,1.5136 L28.68805,0.1024 L32.6364,0.1024 L33.3469,0.808 L33.3469,4.64848 L40.0459,6.27136 L40.594,6.93664 L40.6554433,9.95954301 L40.6554433,9.95954301 L40.6913563,13.3871185 L40.6913563,13.3871185 L40.6951473,15.2173722 L40.6951473,15.2173722 L40.6885282,16.8149864 L40.6885282,16.8149864 L40.6783252,17.8824656 L40.6783252,17.8824656 L40.6686025,18.5992202 C40.6532557,19.6042284 40.6304547,20.6135622 40.5980949,21.5995962 L40.5421229,23.0577192 C40.4996781,24.013547 40.446622,24.9322624 40.38085,25.78624 C39.736325,34.16272 34.9277625,40.16032 30.2574938,44.07262 L29.6980007,44.5321053 C29.6049542,44.6070243 29.512032,44.6811138 29.4192683,44.7543762 L28.8648643,45.1840446 C28.7728725,45.2540081 28.6811082,45.3231492 28.5896057,45.3914703 L28.0440081,45.7915755 C27.9536906,45.8566259 27.8637037,45.9208609 27.774082,45.984283 L27.2410079,46.3550785 L27.2410079,46.3550785 L26.7183479,46.7064751 L26.7183479,46.7064751 L26.2077541,47.0385857 L26.2077541,47.0385857 L25.7108787,47.3515228 L25.7108787,47.3515228 L25.2293737,47.6453994 L25.2293737,47.6453994 L24.7648913,47.920328 L24.7648913,47.920328 L24.3190835,48.1764215 L24.3190835,48.1764215 L23.6890006,48.5254923 L23.6890006,48.5254923 L22.9296708,48.9260493 L22.9296708,48.9260493 L22.2747772,49.2532948 L22.2747772,49.2532948 L21.7375366,49.5081307 L21.7375366,49.5081307 L20.9639,49.8472 L20.9639,49.8472 L20.4361,49.8472 L19.9802334,49.6522815 L19.9802334,49.6522815 L19.539906,49.4511608 L19.539906,49.4511608 L18.9720131,49.178307 L18.9720131,49.178307 L18.4703292,48.9260493 L18.4703292,48.9260493 L17.9099,48.6325538 L17.9099,48.6325538 L17.2963012,48.2974402 L17.2963012,48.2974402 L16.8604502,48.0507221 L16.8604502,48.0507221 L16.4050986,47.7852251 L16.4050986,47.7852251 L15.9318983,47.5008366 L15.9318983,47.5008366 L15.4425016,47.1974439 L15.4425016,47.1974439 L14.9385605,46.8749341 L14.9385605,46.8749341 L14.4217272,46.5331946 C14.3346057,46.4746293 14.2470159,46.415258 14.1589921,46.3550785 L13.625918,45.984283 C13.5362963,45.9208609 13.4463094,45.8566259 13.3559919,45.7915755 L12.8103943,45.3914703 C12.7188918,45.3231492 12.6271275,45.2540081 12.5351357,45.1840446 L11.9807317,44.7543762 C11.887968,44.6811138 11.7950458,44.6070243 11.7019993,44.5321053 L11.1425063,44.07262 C6.4722375,40.16032 1.663675,34.16272 1.01915,25.78624 C0.953378,24.9322624 0.90032192,24.013547 0.857877056,23.0577192 L0.801905084,21.5995962 C0.777635216,20.8600707 0.758742209,20.1074391 0.744338141,19.3533557 L0.71771098,17.5253392 L0.71771098,17.5253392 L0.705903837,15.7634019 L0.705903837,15.7634019 L0.705903837,14.0665909 L0.7239407,11.5043993 L0.7239407,11.5043993 L0.806,6.93664 L1.3541,6.27136 L8.0531,4.64848 L8.0531,0.808 L8.7636,0.1024 L18.1828,0.1024 Z M33.7732,30.45328 L35.10285,30.93712 C33.1086057,36.3253382 29.2133335,40.0424944 26.1604163,42.2712342 L25.6458226,42.6387575 C25.4773832,42.7564279 25.3122062,42.8692722 25.1508035,42.9773245 L24.6784303,43.2871397 L24.6784303,43.2871397 L24.2317743,43.5684075 C24.1596453,43.6129179 24.0887159,43.6562473 24.01905,43.6984 L23.2781,42.4888 L23.4392999,42.3941233 L23.4392999,42.3941233 L23.7897382,42.1810419 L23.7897382,42.1810419 L24.1746694,41.9363496 L24.1746694,41.9363496 L24.5906237,41.6600783 C24.8057783,41.5140532 25.0312654,41.3561979 25.2651331,41.1865304 L25.7434643,40.8314509 C28.4293829,38.7919488 31.9719133,35.324608 33.7732,30.45328 Z M20.8080308,12.9143919 C25.9378142,12.9291559 30.0885548,17.0630133 30.08875,22.15744 C30.0552307,27.2800471 25.8582773,31.4120083 20.7,31.4008454 C15.5703905,31.3563557 11.4440363,27.1984896 11.4734883,22.1041486 C11.5035772,17.0098077 15.6782475,12.8997845 20.8080308,12.9143919 Z M20.7,14.3250741 C16.35523,14.3697076 12.8650872,17.8957134 12.8948348,22.210647 C12.9245825,26.5255806 16.4630132,30.0037966 20.8079884,29.9892317 C25.1529636,29.9744827 28.6675197,26.4724748 28.66775,22.15744 C28.6570097,20.06952 27.8115123,18.0713559 26.3172633,16.6025351 C24.8230143,15.1337142 22.8024192,14.314559 20.7,14.3250741 Z M23.9074,18.18592 L25.05435,19.01248 L20.38535,25.41328 L19.30945,25.504 L16.4167,22.65136 L17.42155,21.65344 L19.7256,23.92144 L23.9074,18.18592 Z M27.06405,0.1024 L27.06405,1.5136 L20.7,1.5136 L20.7,0.1024 L27.06405,0.1024 Z" id="Shape"></path>
            </g>
        </g>
    </g>
</svg>