<svg xmlns="http://www.w3.org/2000/svg" xmlns:xlink="http://www.w3.org/1999/xlink" width="44" height="44" viewBox="0 0 44 44">
    <defs>
        <linearGradient id="dbxwcwvaxa" x1="64.769%" x2="51.19%" y1="80.888%" y2="40.026%">
            <stop offset="0%" stop-color="#E11F27"/>
            <stop offset="100%" stop-color="#EE2A24"/>
        </linearGradient>
        <linearGradient id="zo4f6f2w5c" x1="38.997%" x2="61.329%" y1="45.343%" y2="62.992%">
            <stop offset="0%" stop-color="#595959"/>
            <stop offset="100%" stop-color="#0A0A0A"/>
        </linearGradient>
        <path id="2iz05v52db" d="M15.135 28.323c2.08.21 4.295.324 6.593.324 12 0 21.729-3.098 21.729-6.919 0-3.09-6.358-5.705-15.134-6.594L15.135 28.323z"/>
    </defs>
    <g fill="none" fill-rule="evenodd">
        <g transform="translate(-510 -2678) translate(100 2517) translate(400 76) translate(0 55) translate(10 30)">
            <path fill="url(#dbxwcwvaxa)" d="M21.728 0c-3.09 0-5.705 6.358-6.594 15.134C6.358 16.024 0 18.639 0 21.729c0 3.089 6.358 5.705 15.134 6.594.89 8.776 3.505 15.134 6.594 15.134 3.821 0 6.92-9.729 6.92-21.728 0-12-3.099-21.729-6.92-21.729z"/>
            <use fill="url(#zo4f6f2w5c)" xlink:href="#2iz05v52db"/>
            <path fill="#690000" d="M28.323 15.134l-13.188 13.19c2.08.21 4.295.323 6.594.323 2.299 0 4.515-.114 6.594-.324.21-2.08.325-4.296.325-6.595 0-2.3-.114-4.515-.325-6.594"/>
            <path fill="#A50D12" d="M15.136 28.323l13.188-13.19c-2.079-.21-4.295-.324-6.594-.324-2.299 0-4.515.114-6.594.325-.211 2.08-.325 4.295-.325 6.594 0 2.3.114 4.515.325 6.595z"/>
        </g>
    </g>
</svg>
