<?xml version="1.0" encoding="UTF-8"?>
<svg width="70px" height="70px" viewBox="0 0 70 70" version="1.1" xmlns="http://www.w3.org/2000/svg" xmlns:xlink="http://www.w3.org/1999/xlink">
    <style>svg {color:#e30613;}</style>
    <title>decor-icons-red-standard</title>
    <g id="Symbols" stroke="none" stroke-width="1" fill="none" fill-rule="evenodd">
        <g id="decor-icons-red-standard">
            <rect id="bounding_box" x="0" y="0" width="70" height="70"></rect>
            <g id="icon" transform="translate(11.000000, 11.000000)" fill="currentColor">
                <path d="M37.8151261,0.806722689 L38.5210084,1.51260504 L38.5210084,18.5647059 L37.1092437,18.5647059 L37.1092437,2.21848739 L2.21848739,2.21848739 L2.21848739,38.1176471 L9.57983193,38.1176471 L10.2857143,38.8235294 L10.2857143,46.1848739 L37.1092437,46.1848739 L37.1092437,42.4336134 L38.5210084,42.4336134 L38.5210084,46.8907563 L37.8151261,47.5966387 L9.57983193,47.5966387 L9.07563025,47.394958 L1.00840336,39.3277311 L0.806722689,38.8235294 L0.806722689,1.51260504 L1.51260504,0.806722689 L37.8151261,0.806722689 Z M8.87394958,39.5294118 L3.21680672,39.5294118 L8.87394958,45.1764706 L8.87394958,39.5294118 Z M37.8151261,20.8739496 C43.2150023,20.8795079 47.5910804,25.2555859 47.5966387,30.6554622 C47.5966387,36.0576424 43.2173063,40.4369748 37.8151261,40.4369748 C32.4129458,40.4369748 28.0336134,36.0576424 28.0336134,30.6554622 C28.0336134,25.2532819 32.4129458,20.8739496 37.8151261,20.8739496 Z M37.8151261,22.2857143 C33.1926419,22.2857143 29.4453782,26.0329781 29.4453782,30.6554622 C29.4453782,35.2779463 33.1926419,39.0252101 37.8151261,39.0252101 C42.4353067,39.0196536 46.1793175,35.2756428 46.1848739,30.6554622 C46.1848739,26.0329781 42.4376102,22.2857143 37.8151261,22.2857143 Z M14.1176471,26.8739496 L14.8235294,27.5798319 L14.8235294,33.8319328 L14.1176471,34.5378151 L6.63529412,34.5378151 L5.92941176,33.8319328 L5.92941176,27.5798319 L6.63529412,26.8739496 L14.1176471,26.8739496 Z M41.1731092,26.4907563 L42.312605,27.3176471 L37.6739496,33.7210084 L36.605042,33.8016807 L33.7310924,30.9579832 L34.7294118,29.9495798 L37.0084034,32.2184874 L41.1731092,26.4907563 Z M13.3613445,28.2857143 L7.31092437,28.2857143 L7.31092437,33.1260504 L13.3613445,33.1260504 L13.3613445,28.2857143 Z M24.4235294,27.9831933 L24.4235294,29.394958 L17.092437,29.394958 L17.092437,27.9831933 L24.4235294,27.9831933 Z M14.0672269,16.6689076 L14.7731092,17.3747899 L14.8235294,23.6268908 L14.1176471,24.3327731 L6.63529412,24.3327731 L5.92941176,23.6268908 L5.92941176,17.3747899 L6.63529412,16.6689076 L14.0672269,16.6689076 Z M13.3613445,18.0806723 L7.31092437,18.0806723 L7.31092437,22.9210084 L13.3613445,22.9210084 L13.3613445,18.0806723 Z M24.6756303,17.7781513 L24.6756303,19.189916 L17.092437,19.189916 L17.092437,17.7781513 L24.6756303,17.7781513 Z M14.0672269,6.55462185 L14.7731092,7.2605042 L14.8235294,13.512605 L14.1176471,14.2184874 L6.63529412,14.2184874 L5.92941176,13.512605 L5.92941176,7.2605042 L6.63529412,6.55462185 L14.0672269,6.55462185 Z M13.3613445,7.96638655 L7.31092437,7.96638655 L7.31092437,12.8067227 L13.3613445,12.8067227 L13.3613445,7.96638655 Z M24.6756303,7.66386555 L24.6756303,9.07563025 L17.092437,9.07563025 L17.092437,7.66386555 L24.6756303,7.66386555 Z" id="Shape"></path>
            </g>
        </g>
    </g>
</svg>