<?xml version="1.0" encoding="UTF-8"?>
<svg width="170px" height="85px" viewBox="0 0 170 85" version="1.1" xmlns="http://www.w3.org/2000/svg" xmlns:xlink="http://www.w3.org/1999/xlink">
    <title>viaplay</title>
    <g id="Page-1" stroke="none" stroke-width="1" fill="none" fill-rule="evenodd">
        <g id="Artboard" transform="translate(-240.000000, -155.000000)">
            <g id="viaplay" transform="translate(240.000000, 155.000000)">
                <rect id="bounding_box" x="0" y="0" width="170" height="85"></rect>
                <g id="icon" transform="translate(20.000000, 26.000000)" fill="#FEFEFE" fill-rule="nonzero">
                    <path d="M14.3081273,0.767615385 C15.3132852,0.648981969 16.3275992,0.628397877 17.3367426,0.706153846 C20.3405119,0.944153846 23.0709734,1.94715385 25.5032811,3.75176923 C28.2507426,5.78915385 30.2201273,8.42284615 31.3512811,11.6868462 L31.3512811,11.6868462 C31.7576596,12.8610263 32.0244857,14.0784202 32.1476657,15.3143846 C32.2535888,16.3644615 32.2666657,17.4171538 32.1672811,18.4672308 C31.857358,21.7456154 30.6882811,24.6761538 28.6417426,27.2353077 C26.6645119,29.7120769 24.190358,31.4866154 21.2009734,32.5026923 C20.1299342,32.8722681 19.0197326,33.116688 17.8925119,33.2310769 C13.4202042,33.6704615 9.4212811,32.4896154 5.91405033,29.6296923 C5.85258879,29.5786923 5.79505033,29.5237692 5.72181956,29.461 C5.80289648,29.4139231 5.86435802,29.3773077 5.92712725,29.3433077 L5.92712725,29.3433077 L22.0025888,20.6144615 L22.1268196,20.5451538 C22.4302042,20.3869231 22.5701273,20.1345385 22.5688196,19.7853846 C22.5635888,18.4816154 22.5648965,17.1778462 22.5635888,15.8740769 C22.5635888,15.351 22.5531273,14.8279231 22.5675119,14.3048462 C22.5792811,13.8968462 22.4132042,13.6326923 22.0588196,13.4417692 C19.0785888,11.8359231 16.1048965,10.2222308 13.1285888,8.60984615 C10.8675888,7.38323077 8.60658879,6.15792308 6.34689648,4.92869231 C6.14681956,4.82146154 5.9532811,4.70376923 5.72705033,4.57561538 C5.81597341,4.49453846 5.88135802,4.43176923 5.94935802,4.37161538 C7.29478961,3.20851605 8.83847319,2.29692328 10.5066657,1.68038462 C11.7358965,1.22007692 13.004358,0.919307692 14.3081273,0.767615385 Z M126.960589,9.27023077 C127.62882,9.14076923 128.295743,9.21923077 129.014973,9.24146154 C128.953512,9.42976923 128.916896,9.56446154 128.867204,9.69130769 C127.019435,14.5402308 125.16382,19.3839231 123.325204,24.2354615 C122.646512,26.0230769 121.52582,27.4196923 119.912127,28.4148462 C118.970589,28.9954615 117.976743,29.461 116.904435,29.9056154 L116.904435,29.9056154 L116.182589,28.0277692 C116.332973,27.9257692 116.457204,27.8381538 116.587973,27.7557692 C117.520358,27.166 118.455358,26.5801538 119.386435,25.9890769 C119.531828,25.9011232 119.668839,25.8000065 119.795743,25.687 C120.039159,25.4741003 120.143136,25.1429888 120.065127,24.8291538 C120.008896,24.5806923 119.926512,24.3348462 119.834973,24.0968462 C118.00682,19.2871538 116.173435,14.4787692 114.342666,9.67038462 C114.292973,9.53961538 114.251127,9.40492308 114.183127,9.21269231 L114.183127,9.21269231 L116.314666,9.21269231 C116.621013,9.20529322 116.905357,9.37124476 117.049589,9.64161538 C117.186895,9.87355513 117.304142,10.116798 117.40005,10.3686923 C118.695973,13.8863846 119.98405,17.408 121.27605,20.9256923 C121.379358,21.2055385 121.504896,21.4749231 121.659204,21.8410769 C121.750743,21.6161538 121.810896,21.4827692 121.861896,21.3441538 C123.108127,17.9454615 124.351743,14.5441538 125.603204,11.1467692 C125.755969,10.7328264 125.929681,10.3269178 126.123666,9.93061538 C126.27752,9.58660436 126.590228,9.33985829 126.960589,9.27023077 Z M81.9537426,9.84169231 C85.7120503,7.43684615 91.0971273,9.15646154 92.3054349,14.2433846 C92.7945119,16.3121538 92.7840503,18.4201538 92.0831273,20.4627692 C91.170358,23.1173846 89.3422042,24.7572308 86.5960503,25.2227692 C84.3455119,25.6046154 82.313358,25.0736923 80.6329734,23.426 C80.4747426,23.2703846 80.307358,23.1213077 80.1438965,22.9696154 L80.1438965,22.9696154 L80.0458196,23.0140769 L80.0458196,29.4583846 L77.5455119,29.4583846 L77.5455119,9.25715385 L79.9255119,9.25715385 L79.9255119,11.1389231 C80.1334349,11.0133846 80.2628965,10.9414615 80.3884349,10.8616923 C80.9102042,10.5216923 81.429358,10.1777692 81.9537426,9.84169231 Z M66.6171273,8.92107692 C68.1674106,8.65405271 69.7599006,8.77994124 71.2489734,9.28723077 C73.2928965,9.98815385 74.5090503,11.6057692 74.5469734,13.7896154 C74.5979734,16.7476154 74.5770503,19.7069231 74.5862042,22.6649231 C74.5888196,23.2363846 74.5876298,23.8091538 74.5848965,24.3819231 C74.5835888,24.5205385 74.5718196,24.6591538 74.5639734,24.8186923 L74.5639734,24.8186923 L72.0924349,24.8186923 L72.0466657,23.1108462 C71.909358,23.2141538 71.8125888,23.2795385 71.7210503,23.3540769 C70.600358,24.2838462 69.3475888,24.9403077 67.9156657,25.2175385 C66.3412042,25.5222308 64.8347426,25.3247692 63.4041273,24.5663077 C62.1029734,23.8758462 61.4517426,22.7538462 61.2830503,21.3153846 C61.2071387,20.6887095 61.2582848,20.0531631 61.4334349,19.4466923 C61.7119734,18.4907692 62.2428965,17.731 63.0798196,17.1909231 C64.1298965,16.5161538 65.2819734,16.1003077 66.4798196,15.8178462 C68.1262042,15.4294615 69.7778196,15.0685385 71.4281273,14.6958462 C71.5510503,14.6670769 71.6726657,14.6356923 71.8165119,14.6003846 C72.0192042,14.0433077 71.943358,13.4993077 71.6922811,12.9893077 C71.1404349,11.8673077 70.1975888,11.3023846 68.9958196,11.1912308 C66.9558196,11.0029231 65.1185119,11.5652308 63.4747426,12.7944615 L63.4747426,12.7944615 L63.1818196,13.0089231 C63.1229734,12.9383077 63.0510503,12.8846923 63.0235888,12.8140769 C62.8339734,12.3236923 62.6182042,11.8385385 62.4769734,11.3337692 C62.3252811,10.7936923 62.4704349,10.5086154 63.0105119,10.2183077 C64.1482042,9.60630769 65.3355888,9.13030769 66.6171273,8.92107692 Z M103.105666,9.51607692 C105.166589,8.74192308 107.26805,8.53923077 109.408743,9.13292308 C110.801435,9.52130769 111.888127,10.336 112.60605,11.6227692 C112.95043,12.2198502 113.136348,12.8951 113.146127,13.5843077 L113.146127,13.5843077 L113.151358,24.8173846 L110.715127,24.8173846 L110.715127,22.9408462 C110.552973,23.0886154 110.457512,23.1605385 110.37905,23.2494615 C109.305435,24.4433846 107.927127,24.9743077 106.38405,25.1756923 C104.805666,25.2371538 103.792204,25.1495385 102.540743,24.7912308 C101.099666,24.3793077 100.27582,23.3514615 99.9842042,21.8868462 C99.8069533,21.0590733 99.8203689,20.2018211 100.023435,19.38 C100.300666,18.2972308 100.94405,17.5348462 101.953589,17.0902308 C103.118743,16.5763077 104.329666,16.1970769 105.55105,15.8531538 C106.798589,15.504 108.051358,15.1666154 109.304127,14.8370769 C109.697743,14.7337692 110.100512,14.6723077 110.49282,14.5938462 C110.733435,13.4705385 110.041666,12.0752308 108.954973,11.5639231 C108.565281,11.3808462 108.128512,11.254 107.702204,11.2069231 C105.859981,10.9862099 104.001192,11.4542839 102.483204,12.5211538 C102.250435,12.6806923 102.025512,12.852 101.799281,13.0141538 C101.769204,13.005 101.729973,13.0023846 101.723435,12.9866923 C101.478896,12.3943077 101.223896,11.8071538 100.997666,11.2082308 C100.895666,10.9323077 101.035589,10.7178462 101.259204,10.5452308 C101.824127,10.1084615 102.44005,9.76453846 103.105666,9.51607692 Z M54.3195888,9.20223077 L54.3195888,9.20353846 L54.7772811,9.20353846 C54.7132042,9.38661538 54.671358,9.51869231 54.6216657,9.64815385 L54.6216657,9.64815385 L49.129358,24.1177692 C48.8769734,24.7820769 48.6886657,24.9154615 48.0008196,24.9206923 C47.6908965,24.922 47.3796657,24.9036923 47.0697426,24.9246154 C46.1242811,24.9873846 45.5175119,24.5623846 45.1958196,23.664 C44.9212042,22.9003077 44.6138965,22.1470769 44.3235888,21.3886154 L44.3235888,21.3886154 L39.881358,9.72269231 C39.8264349,9.57753846 39.7819734,9.42976923 39.711358,9.22053846 C40.5038196,9.22053846 41.2348196,9.21792308 41.9658196,9.22184615 C42.1850455,9.22058193 42.3883475,9.33618506 42.499358,9.52523077 C42.6600227,9.77577578 42.7953806,10.0416731 42.9034349,10.319 C44.2372811,13.9426154 45.5606657,17.5714615 46.8879734,21.199 C46.9965119,21.4906154 47.1194349,21.7783077 47.2632811,22.1405385 C47.3391273,21.9731538 47.3914349,21.879 47.4267426,21.7783077 C48.874358,17.7859231 50.3206657,13.7922308 51.7656657,9.79723077 C51.9644349,9.24407692 52.0141273,9.20223077 52.5855888,9.20223077 L52.5855888,9.20223077 L54.3195888,9.20223077 Z M57.8179079,9.25434473 L58.4806657,9.25584615 C58.5918196,9.25584615 58.7029734,9.26892308 58.8075888,9.27415385 C58.9082811,9.58930769 58.9501273,23.9229231 58.8520503,24.8291538 C58.0674349,24.8736154 57.2762811,24.8500769 56.4589734,24.8396154 L56.4589734,24.8396154 L56.4589734,9.25453846 C57.1585888,9.25453846 57.8189734,9.25323077 58.4806657,9.25584615 Z M97.5492811,4.68938462 L97.5492811,24.8409231 L95.0568196,24.8409231 L95.0568196,4.68938462 L97.5492811,4.68938462 Z M1.72551187,9.74623077 C6.48551187,12.1628462 11.2546657,14.5729231 16.0499734,17.0104615 L16.0499734,17.0104615 L1.73335802,24.2642308 C1.69412725,24.1896923 1.6522811,24.1243077 1.61566571,24.055 C1.06381956,22.9996923 0.676742637,21.8842308 0.409973406,20.7216923 C0.0809061251,19.2700658 -0.0510504219,17.7807163 0.0176657142,16.2938462 C0.114434945,14.0707692 0.606127253,11.9457692 1.59997341,9.95153846 C1.62612725,9.89661538 1.65489648,9.843 1.68366571,9.78938462 C1.69020418,9.77892308 1.70197341,9.76976923 1.72551187,9.74623077 Z M110.508512,16.83 C110.351589,16.8496154 110.211666,16.8535385 110.079589,16.8862308 C109.08182,17.1294615 108.076204,17.3478462 107.091512,17.6355385 C105.983896,17.9598462 104.893281,18.3443077 103.80005,18.7156923 C103.215512,18.9144615 102.824512,19.3303077 102.623127,19.9187692 C102.178512,21.2120769 102.838896,22.491 104.143973,22.8244615 C105.082896,23.0650769 106.037512,23.1291538 106.992127,22.9277692 C108.523435,22.6047692 109.702973,21.8070769 110.250896,20.2626923 C110.426829,19.7358089 110.541356,19.1903788 110.592204,18.6372308 C110.654973,18.0461538 110.660204,17.4446154 110.508512,16.83 Z M71.8988965,16.8273846 C71.7419734,16.8561538 71.6321273,16.8692308 71.5248965,16.8953846 C71.0345119,17.0235385 70.5388965,17.1412308 70.0537426,17.2876923 C68.3942811,17.7898462 66.7361273,18.2972308 65.0818965,18.8124615 C64.4424349,19.0125385 64.0697426,19.4767692 63.9494349,20.1332308 C63.6918196,21.539 64.2449734,22.2255385 65.1472811,22.6230769 C65.4825675,22.7690173 65.8336224,22.8756502 66.1934349,22.9408462 C67.2474349,23.137 68.2726657,22.9382308 69.274358,22.6178462 C70.4355888,22.2425385 71.2228196,21.4383077 71.654358,20.2901538 C72.0715119,19.1825385 72.1015888,18.037 71.8988965,16.8273846 Z M85.0019734,11.135 C82.8848196,11.1193077 80.8788196,12.6362308 80.2445888,14.6893077 C79.6914349,16.49 79.8156657,18.292 80.528358,20.0155385 C81.2855119,21.8436923 83.095358,23.0153846 85.1484349,22.9486923 C87.0550503,22.8872308 88.7302042,21.709 89.4389734,19.8586154 C89.7894349,18.9458462 89.9855888,17.9977692 89.9725119,17.0117692 C89.9712042,15.9368462 89.7410503,14.8174615 89.2859734,13.9020769 C88.4019734,12.1223077 86.971358,11.1480769 85.0019734,11.135 Z M57.6868965,3.99107692 C58.6781273,3.99892308 59.4941273,4.80053846 59.4954411,5.76823077 C59.4980503,6.75292308 58.6689734,7.57415385 57.6685888,7.57938462 C57.1873206,7.57938462 56.725783,7.38811225 56.3855977,7.04768165 C56.0454124,6.70725106 55.8544726,6.24557573 55.8548191,5.76430769 C55.8561273,4.73776923 56.6368196,3.98453846 57.6868965,3.99107692 Z" id="Combined-Shape"></path>
                </g>
            </g>
        </g>
    </g>
</svg>