<?xml version="1.0" encoding="UTF-8"?>
<svg width="170px" height="85px" viewBox="0 0 170 85" version="1.1" xmlns="http://www.w3.org/2000/svg" xmlns:xlink="http://www.w3.org/1999/xlink">
    <title>volvo</title>
    <g id="Page-1" stroke="none" stroke-width="1" fill="none" fill-rule="evenodd">
        <g id="Artboard" transform="translate(-50.000000, -260.000000)">
            <g id="volvo" transform="translate(50.000000, 260.000000)">
                <rect id="bounding_box" x="0" y="0" width="170" height="85"></rect>
                <g id="icon" transform="translate(45.000000, 29.000000)" fill="#FFFFFF" fill-rule="nonzero">
                    <path d="M72.9272727,0.127272727 C77.0167464,0.127272727 79.2962856,2.41985646 79.5309162,6.41758903 L79.5454545,6.74545455 L79.5454545,20.8727273 C79.5454545,25.4545455 77.2545455,27.7454545 72.8,27.7454545 C67.0625455,27.7454545 66.2144,23.95624 66.1827692,20.5703935 L66.1818182,7.63636364 C66.1818182,1.4 69.8727273,0.127272727 72.9272727,0.127272727 Z M25.8363636,0.127272727 C29.9258373,0.127272727 32.2053765,2.41985646 32.4400072,6.41758903 L32.4545455,6.74545455 L32.4545455,20.8727273 C32.4545455,25.4545455 30.1636364,27.7454545 25.7090909,27.7454545 C19.9716364,27.7454545 19.1234909,23.95624 19.0918601,20.5703935 L19.0909091,7.63636364 C19.0909091,1.4 22.7818182,0.127272727 25.8363636,0.127272727 Z M4.83636364,0.381818182 L8.01818182,17.9454545 L11.3272727,0.381818182 L16.1636364,0.381818182 L10.5636364,27.3636364 L5.47272727,27.3636364 L-4.26325641e-14,0.381818182 L4.83636364,0.381818182 Z M51.9272727,0.381818182 L55.1090909,17.9454545 L58.4181818,0.381818182 L63.2545455,0.381818182 L57.6545455,27.3636364 L52.5636364,27.3636364 L47.0909091,0.381818182 L51.9272727,0.381818182 Z M42,0.381818182 L42,23.0363636 L47.9818182,23.0363636 L47.9818182,27.3636364 L37.1636364,27.3636364 L37.1636364,0.381818182 L42,0.381818182 Z M72.8,4.32727273 C71.2116364,4.32727273 70.9135127,6.20398545 70.8922042,7.36754735 L70.8909091,7.50909091 L70.8916824,21.1693839 L70.907291,21.3916112 C70.9751396,22.0618697 71.3058712,23.6727273 72.8,23.6727273 C74.4392727,23.6727273 74.6781382,21.8414255 74.7058653,21.0528884 L74.7090909,20.8727273 L74.7090909,7.89090909 C74.7090909,5.34545455 74.2,4.32727273 72.8,4.32727273 Z M25.7090909,4.32727273 C24.1207273,4.32727273 23.8226036,6.20398545 23.8012951,7.36754735 L23.8,7.50909091 L23.8007734,21.1693839 L23.8163819,21.3916112 C23.8842305,22.0618697 24.2149621,23.6727273 25.7090909,23.6727273 C27.3483636,23.6727273 27.5872291,21.8414255 27.6149562,21.0528884 L27.6181818,20.8727273 L27.6181818,7.89090909 C27.6181818,5.34545455 27.1090909,4.32727273 25.7090909,4.32727273 Z" id="Shape"></path>
                </g>
            </g>
        </g>
    </g>
</svg>