<svg xmlns="http://www.w3.org/2000/svg" version="1.0" width="234.000000pt" height="252.000000pt" viewBox="0 0 234.000000 252.000000" preserveAspectRatio="xMidYMid meet">
<metadata fill="#ffffff">
Created by potrace 1.16, written by Peter Selinger 2001-2019
</metadata>
<g transform="translate(0.000000,252.000000) scale(0.100000,-0.100000)" fill="#ffffff" stroke="none">
<path d="M1118 2280 c-21 -4 -47 -15 -59 -26 -50 -46 -49 -21 -49 -816 l0 -743 -267 267 c-231 229 -273 267 -305 272 -112 20 -194 -66 -173 -181 6 -33 56 -88 403 -436 436 -437 443 -442 525 -418 36 11 100 70 435 404 216 216 400 404 408 419 18 35 18 101 -1 138 -37 72 -146 99 -210 53 -17 -12 -138 -130 -270 -262 -131 -133 -243 -241 -247 -241 -4 0 -8 332 -8 738 0 713 -1 738 -20 769 -33 56 -88 77 -162 63z" fill="#ffffff"/>
</g>
</svg>