<?xml version="1.0" encoding="UTF-8"?>
<svg width="160px" height="50px" viewBox="0 0 160 50" version="1.1" xmlns="http://www.w3.org/2000/svg" xmlns:xlink="http://www.w3.org/1999/xlink">
    <title>Ñlients-center-black-sas</title>
    <g id="Symbols" stroke="none" stroke-width="1" fill="none" fill-rule="evenodd">
        <g id="Ñlients-center-black-sas">
            <rect id="bounding_box" x="0" y="0" width="160" height="50"></rect>
            <g id="Sas" transform="translate(48.439766, 13.000000)" fill="#000000">
                <path d="M57.2904961,1 C60.8682884,1.00128834 62.568716,2.01384337 63.2508394,2.38969661 C63.6937926,2.63384059 63.5925113,2.9904193 63.5925113,2.9904193 C63.5925113,2.9904193 63.5176576,3.39862128 63.4353488,3.84523055 L63.3732724,4.18161082 C63.3016764,4.56897398 63.2372731,4.9149617 63.225214,4.97184045 C63.1745734,5.20827462 63.0324135,5.13888633 62.8383927,5.00974701 C61.8121569,4.33128374 60.6388802,3.58086224 58.7584648,3.58150473 C56.5613928,3.58343218 55.4424175,5.32970413 56.0263102,7.75700929 C56.2276526,8.59095373 57.6187451,14.5165851 57.8695078,15.6621344 C58.8121561,19.9455763 56.1196599,24.9987142 48.6962288,25 C44.5711514,25.0012842 42.1782282,23.4773117 41.3026941,22.717253 C40.8371662,22.3131304 40.6974468,22.0844061 40.7590698,21.8145627 L40.7590698,21.8145627 L40.7712965,21.7469493 C40.8380451,21.3777304 41.1561349,19.6168611 41.1757874,19.4823452 C41.2087343,19.2317764 41.454616,19.167528 41.6193507,19.3390712 C42.3612667,20.1209745 44.4527865,22.3208402 47.6230132,22.3195553 C50.5490142,22.3195553 50.8069864,20.1293399 50.82021,19.2312706 L50.8205632,19.0941539 C50.819842,19.011515 50.8177612,18.9472171 50.8176449,18.9060369 C50.8152044,18.3425783 50.4427211,16.6001613 50.0244781,14.803374 L49.8661254,14.1292266 C49.4945865,12.5605195 49.1190477,11.0578118 48.9567536,10.3744898 C47.7968997,5.49610752 50.6309457,0.995505979 57.2904961,1 Z M41.5290801,1 C41.8065448,1 41.7292288,1.23632769 41.7292288,1.23632769 L41.7292288,1.23632769 L37.4250959,23.8494932 C37.4038963,23.9602918 37.3652383,23.9980786 37.254876,23.9980786 L37.254876,23.9980786 L29.6143074,23.9987191 C29.3948297,23.9987191 29.3767477,23.8245155 29.3885945,23.7598296 L29.3885945,23.7598296 L29.4001032,23.699091 C29.505048,23.1452381 30.2927347,18.9882732 30.3107751,18.8962185 C30.3294806,18.7995099 30.2328356,18.805274 30.2328356,18.805274 L26.6912071,18.8059966 C26.6019108,18.8060148 26.5130254,18.8060328 26.4248417,18.8060508 L23.911004,18.8065549 C23.8330644,18.8065549 23.7738304,18.8962185 23.7738304,18.8962185 L23.7738304,18.8962185 L20.0084155,23.8571787 C19.9616518,23.9263477 19.9354641,23.9987191 19.6723403,23.9987191 C19.5895907,23.9989021 19.4853236,23.9990589 19.3661901,23.9991934 L17.0529484,24 C16.8752462,24 16.8527996,23.866145 16.9563033,23.7354923 L16.9563033,23.7354923 L34.6504484,1.19341724 C34.6504484,1.19341724 34.7838809,1.00192136 35.1081094,1.00192136 L35.1081094,1.00192136 L37.2001904,1.0010997 C37.2762419,1.001069 37.3535558,1.00103811 37.4320009,1.00100715 L40.7768233,1.0000505 C40.8625209,1.00003966 40.9476451,1.00003044 41.0320648,1.00002296 Z M17.2294109,0.406040416 C20.9131246,0.408568421 22.6605191,1.40393684 23.3628663,1.77277895 C23.817917,2.01214737 23.715609,2.36267368 23.715609,2.36267368 C23.715609,2.36267368 23.3678875,4.17656842 23.3365047,4.31109474 C23.2844093,4.54541053 23.1381654,4.47530526 22.9391984,4.34898947 C21.8828532,3.68077895 20.6758705,2.94372632 18.7426898,2.94498947 C16.4806172,2.94625263 15.3288683,4.66414737 15.9307905,7.04898947 C16.1372893,7.87004211 17.5689729,13.6950947 17.8281948,14.8205684 C18.7966682,19.0313053 16.0268218,23.9986737 8.38950245,23.9999376 C4.14654724,24.0012 1.47335992,22.3786737 0.573301079,21.6315158 C0.094399477,21.2342526 -0.0493337692,21.0094105 0.0140594966,20.7441474 C0.0140594966,20.7441474 0.612843413,18.7205684 0.653641059,18.5746737 C0.731470415,18.2910947 0.897799281,18.2203579 1.0233305,18.3498316 C1.78028375,19.1254105 4.02540961,21.3649895 7.28545538,21.3649895 C10.7959359,21.3649895 10.573118,18.4344632 10.5718627,18.0081474 C10.5662138,16.9009895 9.03975417,11.1567789 8.65751161,9.62267368 C7.46433737,4.82646316 10.3804276,0.402884211 17.2294109,0.406040416 Z M32.4089074,7.5851526 C32.356532,7.5851526 32.3066507,7.65240031 32.3066507,7.65240031 L32.3066507,7.65240031 L25.6973781,16.3600189 C25.6973781,16.3600189 25.6593436,16.4054912 25.6792961,16.4368735 C25.7017427,16.4676153 25.732295,16.4599298 25.732295,16.4599298 L25.732295,16.4599298 L30.7167535,16.4593131 C30.7308865,16.4580796 30.7538873,16.4543792 30.764695,16.443278 C30.7802829,16.4272667 30.785271,16.3914012 30.785271,16.3914012 L30.785271,16.3914012 L32.4425773,7.66008577 C32.4425773,7.66008577 32.4606593,7.5851526 32.4089074,7.5851526 Z" id="Combined-Shape"></path>
            </g>
        </g>
    </g>
</svg>